<mxfile host="app.diagrams.net" modified="2024-05-28T11:13:12.061Z" agent="Mozilla/5.0 (Windows NT 10.0; Win64; x64) AppleWebKit/537.36 (KHTML, like Gecko) Chrome/121.0.0.0 Safari/537.36" etag="2LzVXtMaZSqccPUtdnNd" version="24.4.9" type="device">
  <diagram name="Página-1" id="7WA0mOos7pG7LoxNI5Q7">
    <mxGraphModel dx="1434" dy="782" grid="1" gridSize="10" guides="1" tooltips="1" connect="1" arrows="1" fold="1" page="1" pageScale="1" pageWidth="827" pageHeight="1169" math="0" shadow="0">
      <root>
        <mxCell id="0" />
        <mxCell id="1" parent="0" />
        <mxCell id="wqn46flcgay6vvXDy6C1-9" value="" style="rounded=1;whiteSpace=wrap;html=1;fillColor=#4D4D4D;shadow=1;strokeWidth=8;arcSize=16;" parent="1" vertex="1">
          <mxGeometry x="236" y="80" width="356" height="560" as="geometry" />
        </mxCell>
        <mxCell id="wqn46flcgay6vvXDy6C1-3" value="&lt;h4&gt;PRODUTO PEDIDO&lt;/h4&gt;" style="shape=step;perimeter=stepPerimeter;whiteSpace=wrap;html=1;fixedSize=1;fillColor=#808080;strokeColor=#000000;shadow=1;fontSize=12;fontFamily=Lucida Console;" parent="1" vertex="1">
          <mxGeometry x="252" y="290" width="100" height="30" as="geometry" />
        </mxCell>
        <mxCell id="wqn46flcgay6vvXDy6C1-4" value="&lt;h4 style=&quot;&quot;&gt;ENDEREÇO&lt;/h4&gt;" style="shape=step;perimeter=stepPerimeter;whiteSpace=wrap;html=1;fixedSize=1;fillColor=#808080;shadow=1;fontFamily=Lucida Console;" parent="1" vertex="1">
          <mxGeometry x="252" y="350" width="100" height="30" as="geometry" />
        </mxCell>
        <mxCell id="wqn46flcgay6vvXDy6C1-5" value="" style="rounded=1;whiteSpace=wrap;html=1;shadow=1;" parent="1" vertex="1">
          <mxGeometry x="372" y="290" width="190" height="30" as="geometry" />
        </mxCell>
        <mxCell id="wqn46flcgay6vvXDy6C1-28" value="" style="shape=image;html=1;verticalLabelPosition=bottom;verticalAlign=top;imageAspect=1;aspect=fixed;image=data:image/png,iVBORw0KGgoAAAANSUhEUgAAA4QAAAOECAYAAAD5Tv87AAAAAXNSR0IArs4c6QAAIABJREFUeF7svQmAXFWd73+X2nrvdNLZCGFLBMOm8FwAdchTcdzmOTMmjjoi+jAoihJx3riMpoP7yioI6nPePHXGxAVRQXEwODyXKCCyCAFCVsiedNJbbffe//93+v7ak7JDeu+qup/SpjtVdznn8zvVfb7121yHBwQgAAEIQAACEIAABCAAAQgkkoCbyFkzaQhAAAIQgAAEIAABCEAAAhBwEIQsAghAAAIQgAAEIAABCEAAAgklgCBMqOGZNgQgAAEIQAACEIAABCAAAQQhawACEIAABCAAAQhAAAIQgEBCCSAIE2p4pg0BCEAAAhCAAAQgAAEIQABByBqAAAQgAAEIQAACEIAABCCQUAIIwoQanmlDAAIQgAAEIAABCEAAAhBAELIGIAABCEAAAhCAAAQgAAEIJJQAgjChhmfaEIAABCAAAQhAAAIQgAAEEISsAQhAAAIQgAAEIAABCEAAAgklgCBMqOGZNgQgAAEIQAACEIAABCAAAQQhawACEIAABCAAAQhAAAIQgEBCCSAIE2p4pg0BCEAAAhCAAAQgAAEIQABByBqAAAQgAAEIQAACEIAABCCQUAIIwoQanmlDAAIQgAAEIAABCEAAAhBAELIGIAABCEAAAhCAAAQgAAEIJJQAgjChhmfaEIAABCAAAQhAAAIQgAAEEISsAQhAAAIQgAAEIAABCEAAAgklgCBMqOGZNgQgAAEIQAACEIAABCAAAQQhawACEIAABCAAAQhAAAIQgEBCCSAIE2p4pg0BCEAAAhCAAAQgAAEIQABByBqAAAQgAAEIQAACEIAABCCQUAIIwoQanmlDAAIQgAAEIAABCEAAAhBAELIGIAABCEAAAhCAAAQgAAEIJJQAgjChhmfaEIAABCAAAQhAAAIQgAAEEISsAQhAAAIQgAAEIAABCEAAAgklgCBMqOGZNgQgAAEIQAACEIAABCAAAQQhawACEIAABCAAAQhAAAIQgEBCCSAIE2p4pg0BCEAAAhCAAAQgAAEIQABByBqAAAQgAAEIQAACEIAABCCQUAIIwoQanmlDAAIQgAAEIAABCEAAAhBAELIGIAABCEAAAhCAAAQgAAEIJJQAgjChhmfaEIAABCAAAQhAAAIQgAAEEISsAQhAAAIQgAAEIAABCEAAAgklgCBMqOGZNgQgAAEIQAACEIAABCAAAQQhawACEIAABCAAAQhAAAIQgEBCCSAIE2p4pg0BCEAAAhCAAAQgAAEIQABByBqAAAQgAAEIQAACEIAABCCQUAIIwoQanmlDAAIQgAAEIAABCEAAAhBAELIGIAABCEAAAhCAAAQgAAEIJJQAgjChhmfaEIAABCAAAQhAAAIQgAAEEISsAQhAAAIQgAAEIAABCEAAAgklgCBMqOGZNgQgAAEIQAACEIAABCAAAQQhawACEIAABCAAAQhAAAIQgEBCCSAIE2p4pg0BCEAAAhCAAAQgAAEIQABByBqAAAQgAAEIQAACEIAABCCQUAIIwoQanmlDAAIQgAAEIAABCEAAAhBAELIGIAABCEAAAhCAAAQgAAEIJJQAgjChhmfaEIAABCAAAQhAAAIQgAAEEISsAQhAAAIQgAAEIAABCEAAAgklgCBMqOGZNgQgAAEIQAACEIAABCAAAQQhawACEIAABCAAAQhAAAIQgEBCCSAIE2p4pg0BCEAAAhCAAAQgAAEIQABByBqAAAQgAAEIQAACEIAABCCQUAIIwoQanmlDAAIQgAAEIAABCEAAAhBAELIGIAABCEAAAhCAAAQgAAEIJJQAgjChhmfaEIAABCAAAQhAAAIQgAAEEISsAQhAAAIQgAAEIAABCEAAAgklgCBMqOGZNgQgAAEIQAACEIAABCAAAQQhawACEIAABCAAAQhAAAIQgEBCCSAIE2p4pg0BCEAAAhCAAAQgAAEIQABByBqAAAQgAAEIQAACEIAABCCQUAIIwoQanmlDAAIQgAAEIAABCEAAAhBAELIGIAABCEAAAhCAAAQgAAEIJJQAgjChhmfaEIAABCAAAQhAAAIQgAAEEISsAQhAAAIQgAAEIAABCEAAAgklgCBMqOGZNgQgAAEIQAACEIAABCAAAQQhawACEIAABCAAAQhAAAIQgEBCCSAIE2p4pg0BCEAAAhCAAAQgAAEIQABByBqAAAQgAAEIQAACEIAABCCQUAIIwoQanmlDAAIQgAAEIAABCEAAAhBAELIGIAABCEAAAhCAAAQgAAEIJJQAgjChhmfaEIAABCAAAQhAAAIQgAAEEISsAQhAAAIQgAAEIAABCEAAAgklgCBMqOGZNgQgAAEIQAACEIAABCAAAQQhawACEIAABCAAAQhAAAIQgEBCCSAIE2p4pg0BCEAAAhCAAAQgAAEIQABByBqAAAQgAAEIQAACEIAABCCQUAIIwoQanmlDAAIQgAAEIAABCEAAAhBAELIGIAABCEAAAhCAAAQgAAEIJJQAgjChhmfaEIAABCAAAQhAAAIQgAAEEISsAQhAAAIQgAAEIAABCEAAAgklgCBMqOGZNgQgAAEIQAACEIAABCAAAQQhawACEIAABCAAAQhAAAIQgEBCCSAIE2p4pg0BCEAAAhCAAAQgAAEIQABByBqAAAQgAAEIQAACEIAABCCQUAIIwoQanmlDAAIQgAAEIAABCEAAAhBAELIGIAABCEAAAhCAAAQgAAEIJJQAgjChhmfaEIAABCAAAQhAAAIQgAAEEISsAQhAAAIQgAAEIAABCEAAAgklgCBMqOGZNgQgAAEIQAACEIAABCAAAQQhawACEIAABCAAAQhAAAIQgEBCCSAIE2p4pg0BCEAAAhCAAAQgAAEIQABByBqAAAQgAAEIQAACEIAABCCQUAIIwoQanmlDAAIQgAAEIAABCEAAAhBAELIGIAABCEAAAhCAAAQgAAEIJJQAgjChhmfaEIAABCAAAQhAAAIQgAAEEISsAQhAAAIQgAAEIAABCEAAAgklgCBMqOGZNgQgAAEIQAACEIAABCAAAQQhawACEIAABCAAAQhAAAIQgEBCCSAIE2p4pg0BCEAAAhCAAAQgAAEIQABByBqAAAQgAAEIQAACEIAABCCQUAIIwoQanmlDAAIQgAAEIAABCEAAAhBAELIGIAABCEAAAhCAAAQgAAEIJJQAgjChhmfaEIAABCAAAQhAAAIQgAAEEISsAQhAAAIQgAAEIAABCEAAAgklgCBMqOGZNgQgAAEIQAACEIAABCAAAQQhawACEIAABCAAAQhAAAIQgEBCCSAIE2p4pg0BCEAAAhCAAAQgAAEIQABByBqAAAQgAAEIQAACEIAABCCQUAIIwoQanmlDAAIQgAAEIAABCEAAAhBAELIGIAABCEAAAhCAAAQgAAEIJJQAgjChhmfaEIAABCAAAQhAAAIQgAAEEISsAQhAAAIQgAAEIAABCEAAAgklgCBMqOGZNgQgAAEIQAACEIAABCAAAQQhawACEIAABCAAAQhAAAIQgEBCCSAIE2p4pg0BCEAAAhCAAAQgAAEIQABByBqAAAQgAAEIQAACEIAABCCQUAIIwoQanmlDAAIQgAAEIAABCEAAAhBAELIGIAABCEAAAhCAAAQgAAEIJJQAgjChhmfaEIAABCAAAQhAAAIQgAAEEISsAQhAAAIQgAAEIAABCEAAAgklgCBMqOGZNgQgAAEIQAACEIAABCAAAQQhawACEIAABCAAAQhAAAIQgEBCCSAIE2p4pg0BCEAAAhCAAAQgAAEIQABByBqAAAQgAAEIQAACEIAABCCQUAIIwoQanmlDAAIQgAAEIAABCEAAAhBAELIGIAABCEAAAhCAAAQgAAEIJJQAgjChhmfaEIAABCAAAQhAAAIQgAAEEISsAQhAAAIQgAAEIAABCEAAAgklgCBMqOGZNgQgAAEIQAACEIAABCAAAQQhawACEIAABCAAAQhAAAIQgEBCCSAIE2p4pg0BCEAAAhCAAAQgAAEIQABByBqAAAQgAAEIQAACEIAABCCQUAIIwoQanmlDAAIQgAAEIAABCEAAAhBAELIGIAABCEAAAhCAAAQgAAEIJJQAgjChhmfaEIAABCAAAQhAAAIQgAAEEISsAQhAAAIQgAAEIAABCEAAAgklgCBMqOGZNgQgAAEIQAACEIAABCAAAQQhawACEIAABCAAAQhAAAIQgEBCCSAIE2p4pg0BCEAAAhCAAAQgAAEIQABByBqAAAQgAAEIQAACEIAABCCQUAIIwoQanmlDAAIQgAAEIAABCEAAAhBAELIGIAABCEAAAhCAAAQgAAEIJJQAgjChhmfaEIAABCAAAQhAAAIQgAAEEISsAQhAAAIQgAAEIAABCEAAAgklgCBMqOGZNgQgAAEIQAACEIAABCAAAQQhawACEIAABCAAAQhAAAIQgEBCCSAIE2p4pg0BCEAAAhCAAAQgAAEIQABByBqAAAQgAAEIQAACEIAABCCQUAIIwoQanmlDAAIQqDYCURS5rutGlePS5yu/28cd6Vw5Rl6T78NdW1/X157pOnq/ymOGG1flPY82vsqxHel8616e67phtdmQ8UAAAhCAQO0RQBDWns0YMQQgAIG6JRBF0ZDQsX+OhZsn+s4WT0cTTsOJS/u5I4nEIwG2xZ9oTB1P5ViHOz+KIt913UDHrMfIGJ5J7NpC1Ba2IxGvdbtQmBgEIAABCEwYAQThhKHkQhCAAAQgMFYCsUgaElj2dWzRF/8swqo8nDhbvXq1XCO1fv16t7u72+vr6/N27drlhGEoqsttbW31TjrppNm5dHpJsVQ6q5AvnFwoFecWi8X2crHcGDlRynHdyI2i0HHd0HWiIHLcwImcsuu5xUw2uyud8rem/fTj6bT/eNlxNm7cuHF3f39/WYRdR0eH297e7vb29oadnZ3lhoaGaGBgIFi3bl1QKfxU3NnCrmJOQ15NEZwiPitE6LAe1bHagPMgAAEIQCCZBBCEybQ7s4YABCBQlQQqxdFgpKcb2l41EVY33XRT+v9973uZTf39mX379uUO7DiQbZjR0Dp/zvzjIy9aPNDTd1y+kJ/d198/T8ReFEVNruu2RFHU7ERRxnNdEZWu53mh54lT0jwiEYPOoPj6i4e48aJIDnHN384wDKNyuRyEUVRyoqgcuW6v5zg9fjrdl81mexobGnY1NTc9kU6nH9m5e/dDpZ6e7v4wHJg7d27hhBNOKGez2cKpp55aXrVq1VCY7HCho7GQHPKO4hmsyqXLoCAAAQjULAEEYc2ajoFDAAIQqC8CsegTdWbCKm1x1NXV5a1fvz69c+fOubt27VrQ2tp6XFMmM7+vUJxTyBdOKBYLi8JyeWHkum0i8NK+78h33/dtL5t6II1zLqZnRJ54EEXnxVrPBntYTqMlCM3zsTiUn+UCRlmGYWjEonwPgsANgiCIIueQ6zrbHM99rKmhYVsml9tTLpef7t5/aGvaC7e2dnbuWrJkycCaNWuG8gLVo2gNxow//vew3tT6WhHMBgIQgAAEpoIAgnAqKHMPCEAAAhAYlkBFOOiQF0wE4F233NK6df/+s3sO9R2bSqUyDQ255shxzyyH5ZeWS6X56ZREd7qOiD750pBKuaZReYN6zQioCg+j/Fu+9Bgdm4ZkPpO1DhOI5gaD1xIBakSg3Fd+VuEWC7vY1SlKMRKRGJbLZRn0nnQm/RvP9e8t5PN7isViIZ32ndmzZ2+Yt3DhPbfddlvxmYThaHMgWYYQgAAEIACBSgIIQtYEBCAAAQhUAwH3Va961ZzHHnvsVfv37j82k/KcbC43y/f8/14ulxc7jpfyPM/xPMeIv1iEDQk+8fDFBV7sudgeNSPUhpTfYOin+ad8H9SGgw/7Z+ti4rKsvLZ1yp9DSa1cP71HrD0HbxePM9aSRkwaARsEgRGpIvJSqdTvCoXif+Xz+f5sU8Ou9vb2Ox9++OGN6iE8WuXUajAoY4AABCAAgdoggCCsDTsxSghAAAJVQ+BoYmSkOW4rVqxo3LRp0/O2bt78nP1798/OZbMnpbOZvyqXy3M81zUhnyaMU1Sg0U2D3jd5TkIyNZevasAcfSDGA6mC0/LuqbAdmlIcbirzDH3f3x9G4fqB/v5HU35mz/wF8x4550Uvuuu66647NJIqq0dqi4F38egG4wgIQAACSSCAIEyClZkjBCAAgQkgUCn0rMqXg64vq32C/PtI1TOXL1/+7Pt+f98ZPX2H/jqXyZydTqVnh4PFXnK+b2q9DIVhTsCwq/4ScV7iX4zT9kiGYSh5laWU7/cHQbC/p7d3g+t6vzj2hON+dfrpp2/4xje+cbCyl2JFxVKtUnpY2w61k9qv6mExQAhAAAIQmHACCMIJR8oFIQABCNQvAbs9xHAiQnvt2YJQhcmiRYuW7N+37wuNjY0nZ/xUkyMFYFw3p9cRr5iIIxGFcaGXWvQCjtr46jGUkFjNR7TEoAo4L85TNGjFQ+q47qFCsXgoX8hv8nz/60uWLPlRZ2dnz9q1a+1eh39RpfVI4m+knt1RT5ATIAABCECgqgkgCKvaPAwOAhCAQHURsJurD9MOwTSVt8MYzzjjjAU7n9rxSceJXpPN5bKZVKrBkW4Pg95EzZnzRAyqCIp/jiRXMM4NrC4IkzwazWm0xKG0xjAeVyMEHYmmNZ0xIk+qqbpuVCyVivmCeeyf0dZx8cYtG++SyqcVwlzbaRyxzcUkT43LQwACEIBAFRJAEFahURgSBCAAgWolIGGiIvoqxxc/Hy1YsCDX1tbW5gbBJXv37P2wn0qlmpqaxLslQlHOjTVKpBU5jUiJq3Kamip28Zdq5TCR47IFYCz0RAib4jny73K5bBIorXBaSS00HkN5pNNpw0+OE3ZybqFQcNraZ/w+05B99a5du/rOO++8gra0qKy8aucS4iWcSMtyLQhAAAK1QQBBWBt2YpQQgAAEpp3AMDlpRhguX748/Ye7724LU6m5fq7hkwe7u5/XkM3OyWQyQyGQcq6Imzgs1DSDN+plsC2E8RDG/9aqn4c1gZ/2yU/iAGxBqD8Lq2w2a0RhqVQyXxoqKsI6nU6HmUzGMJXnfd83OYLCsVgsGmEtr5eCoDcMg3uaGhu/3rtvYN3xS47vvvjii/PLli2TvomHteSgyMwkGplLQwACEKhiAgjCKjYOQ4MABCBQbQTscNAux/FumD37hI62thcUC4WXD/Tn/ybXkGvLZDK+6cU+6O0z7Rq08bvOJ24+79sFVeKwyKFefsM0ia82HJMyHuEgYjqVShkPYezxi2JR6IpHMJ1OS2uKoYqrcZityRcU1vLvcqnkpNMZJ9eQE49hb7FU+m1jU+PP88Xib06dfer9a9at6assRDMpE+KiEIAABCBQ1QQQhFVtHgYHAQhAoHoIqIfw/PPPTz3xpz8tcVz3ha7nvypynJdnM5kG8frFxWCM18qUC417/MXCzzwXewOHXjcHx+GPKhCHayhfPSQmbyQyfxGCuVzOiEF5CEMJBy2VSsajl06nXd/3tYVFpN7WQYwmz1A8sF6pWIzCIHS9lG88jX4qZTyNQRBscB333/ID+R2Lnv2sNXfccUefCv34fn9uyjh5U+XKEIAABCBQJQQQhFViCIYBAQhAYDoJHC13TF5fvXq1/53vfOeC3Tt2ndPa0vz8IAheFnuxRAjy92QCDKiVRGMvoBGFKpIrw2rldtLMXp6X40Q4qohUkZ3P580xcZ7hUOEeea5YLBaDMPhyb1/fU4ue9azb/vqv/3rDqlWrhtpSDNdv8mjrZAIQcAkIQAACEJhiAvwBn2Lg3A4CEIBANRIYpsfgUI6fvHbO88956cbHNixtmzHjdYVi4dmZdHqwaXwcopi0QjCTZUP1qMp3EXEiuMW7Z3lOh/IyY1FnBJ8IQTlWzrGPl+Iy8qUPDcO1RWYYRX1RGP6yVC799MSFC39y9+9+t8k6XkN/zVPkGU6W5bkuBCAAgekjgCCcPvbcGQIQgMC0EIgbyhsxF3uBpPpnEHuVhv4uyOb/3HPPPW7j44+/uTHX8EbPdY+PXKfRcz2pcGmKvgxqBFOchL8nY7SmikA93e5LKAJP8gltoSjiT0I/xfunXkM9V46Vr9gwRizqcep91PBdE146WPpVDpd+Fnv//1zQXzU1N/3Hsccff8fPf/7znti+Q2sDQThGI3MaBCAAgSomwB/wKjYOQ4MABCAwGQQqQwGHCwOUPMGH/vjQ/8zlMpfkstmTHMdpkWIl0t4gPt4Mze4fOBljTdo17SI7OncRhVJx1K5AKkJPRGGxWBx6Xs4V76DkH4q3UPM5NWy0UnBaQl5tKhK/GJTKBwbyAw/Mntlx+YOPPfZoLAqNdoxzQ8kxTNrCZL4QgEBdE0AQ1rV5mRwEIACB4Qlovz/tKTjUcL4r8jqv73yx73mfbW5sOsNz3ZwWKonDDbX/nakeaolJ/p6McbHZIlB/tlp0GMGnnkIRfPLQpvUSDirC0Pb+iSCU4+Pqrk5/f7+2+zDnatio5idqkR8pTqOVXkUs9vX19YeOs3nHrp2nj3FqnAYBCEAAAjVAgD/gNWAkhggBCEBgIgnYHkH9+dRTT810d3cfn3Lcm6Io+ivxSMlrURQFcdFKCSo0HkJT9TIMTEuJ2GM4WA6Tx4QRsENE7Qb0YhcVcioMRRTGTemNMGxoaDCeQhWEfX19QzmItiCUZvdiWz1WWoXEE5Aw4EAqlUZhFHQf7HY7Z3X+2Dt44B+Xvfvd+a6urvKETZQLQQACEIDAtBNAEE67CRgABCAAgekhIIJv+fLl3m/X/XZO06ymFfv37X9va1PTjFhomH6AWqDEtJQIwsH2EFJMxnSYGKwsOlyY4/TMqDbvaucQ2j9rxVD1BqqnUCuGKnf5rp5CsVdjY6MBIc9LaOnAwMAQGPscq8CMtgAxNrWOMc9LTmJ/f39QLpcfm9U5619C1113yimnHFq7dq3JLeQBAQhAAAK1TQBBWNv2Y/QQgAAEnpGAnS9Y6Rl89rOf3VEcKL6gVMy/w3Xd1zU0NETlcpm/C2NcU5XFYUZzGTtUVESdij4R5ZoLKKGh8m8NH1VPoXwXD6GIP9NvMK5KKvdX76F6GUc7JjleW1rI9ctBsC2dzX6/ta31Oz09Pfc9/vjjRTlGQkwr15o+P5p7ciwEIAABCEw9Af7wTz1z7ggBCEBgSgloMRC9qWzeZ82a9d8aM7m/D6PwHblstiMWJMY7xGN8BFQY2tVCR8JVCsFISKgt6OyRaCEZEX96rHr55LhKT60UnFEROdYZVba7kMoyg895d/cP9H13xsyZ3/6Hf/iHA3b/wngsh+0vqE46VgtwHgQgAIHJJ4AgnHzG3AECEIDAtBKwPTennXbasT37918QRNFb06n0C9PpdLpcLoemqSCtI8Ztp0oBNdJwWruHoHr+KovNaKEZFXoiHDWnUAWhHiPiUbyD6mG0heNIJmn3K6ycU1xp1CmWSsUoCP93S0fHow8//OB1R7pu7D2U1ibhSO7NMRCAAAQgMLUEEIRTy5u7QQACEJh0AnYFUevnaOHchc8O3fJHMun0S13Xna396EQIWuKDvwtjtJDtGbQF2HDiyr6FiDi7VYSGiGpLD3ldwzY1L1BEoe0pVK+ivC7Py+tjFYPDTd+egwhCOUY+RDAVSl23u+9Qzw3v+h+v/fiqb3yjUHm+hpPiJRzjwuI0CEAAApNMgD/8kwyYy0MAAhCYagJ2iKhswpctW+avX7/+/HKhdGU2mznbc13pXC6//4c8g1JxcrBHOX8WxmOvSlEoQk28f5rjp6GjNmc7J1Durf0FtaiPnK/N5lW4y/W0WIyeL+faYnCibFkpaNVDqB7lQV0YDgz0D/xgzoL5195///2/l7GoZ1q143i4ci4EIAABCEweAf7yTx5brgwBCEBg2ghIX8F44x7Onzv384253BvDyJnnOo4RfWEYSssIKURihGEqlfLifnTTNuZav7HdC1B+FjEoQk4EnZ3/VzlPu2+ghnqKKBQ7qcC0m9PLdUX4aX9BuZ7VOsJ4Bu3WFOPlahfLsQWtfNgg1WfL5bJpReK6bilfKDwRBNF1O3bv+EqFKJR1R1XS8RqD8yEAAQhMAgEE4SRA5ZIQgAAEppOAemaWLl3qP/jHBzZ2tLfPiaIoK5F+piKI9I0YfJi2AvHG3Xwjj3BiLCeCTMSgevYEs4RxaiinxdzkAcpxco4IwXw+b0SdPlRoajsJFYpynFxvJOGplfmIo/UeVng2jQCMW1REvu+70sNQnpPWhflCodjb13vl+1au/GxlsZmJoctVIAABCEBgIgkgCCeSJteCAAQgMIUExAsoXpc41NOEfMrtTzvttFS5UHhd76Geq5qam+eLNyku6CG5gqoBp3CkybuV9gwU75+KO/HiaV9A+R57ak0jefEiqldPhJ7daF7FmHoShaYcq4KwyuiG0tC+HATyycO6hkzjPz3yxCP3x4J0SOVa4aSmZUWVzYHhQAACEEgUAQRhoszNZCEAgXohoD0F7TyttWvXuitXrmyPSsH/TKW8lblcw1ypIBoLDSMW8QJO7gqwPXEqCsUDaOcWikDUSqEyGttDKP8Wsaii0A7X1ONEWMo1+vr6DvMkTu7MRnf1yHFMUmqpVNzle96KU8844+e33357YTghaPfHHN1dOBoCEIAABCaCAIJwIihyDQhAAAJTTMAWhFo45pH773/W/p6ey9Kp9Bsy6XR7GIZGBMrrccVK+Z1PWOgU2UpDPTV01G7foMVfRPyJYNf+gzI0bTQvolFel4fmI8pr8hB7SlGZKsz7FC+g2VtIfqEstr6+vkJTU+O7Fxx33LfuuuuufMWHGWZN4iWcokXJbSAAAQgMQwBByLKAAAQgUKMENFR0xYoV6Tt/+tMzgjD8F8/z/4dsxLU1gGzOpQSktgiI2xPwu38SbG4XlbEvr20lhL39ELGn7SNENIoo1Id4BuV1FYRyDQkrlYdd/1jZAAAgAElEQVQWqJFzq/BhCs1I0SIdm8y7v7/fdX3v/fOOOebffve73+2ze2PqOq7CuTAkCEAAAokgwKYgEWZmkhCAQD0SkI300qVLvc0bN77edd2LPNe7QDbjcX6a1I8xm3Mp+CFVRFVcjLagSD2ym8o5iZCzG8jb9xZPoRSSEU+fehK1/6AdLirn6L/leG06X4W2VCEo38WdaTzSIgpNI/sw+nIql/neE0888WtL/JJDOJULkntBAAIQqCCAIGRJQAACEKhBAupVmTNr1juam1v+KQrDxSbsLi4g6g16mEQQSjsJ3ZRL6Ci/9yfR3pXVPEUMSjEYbRwvt9YiMSrytNWEikItMFM5THld+xmKKJzI1hITjETWm1lzWsFI1qBv2pyEhXJY/lVQLn96+86dv6Bp/QST53IQgAAExkCAjcEYoHEKBCAAgekmICF3M9tnXjGjvWWl63rzZPMtHsE4gUtkockbFA9h3DhcfhhqFzDd46/H+9s5gurl00IwMl95TquLikC0BZ28Jl4/EXrSc1BFoV2MRsRgXDHWfNd8wipkaTx+cRVVWX+DeathFHm+74ZRWCgUC/eXSuGnXrL0JT9Zs2aNhDTjJaxCQzIkCEAgGQQQhMmwM7OEAARqnEBFERmnc8aM6xsaGv+hoaGhIwgCSRM0gs+aJr/fJ8jmGpZpe/b00hX9+czTKuLsUFF5TkM95RwRiiL85KFCUr5LXqAIQxF7eh1bFE7QlKbzMiL+ZK2W84X8Dsdx/vmLV1+9ZtmyZfJhRWVbCvNhxnQOlntDAAIQSAIBNgxJsDJzhAAEapZA3FvQrsLozprRcVNra+ubfM9rEiUoYlAagsuX/GyHLdbsxKtk4JUsbQFYmeNXeawIPgkXlYfdakKOEw+hCEZtSC/P6ZcIQvEA1qEdxYltPNmpVMp4DXt7eweaGnJv/ce3v/2WVatWiQgu26a3i89UyZJgGBCAAATqjgCCsO5MyoQgAIF6ISD7ZmuD7J5/9vkzn9i+4apMJv0PqXQ6JXlZcQVRaVAv+2wRETSen4AFUOmVUy+h/byGbKqQk9vaYaB25VA7JNS+lhaSsb2BcuxwfQgnYFrTeolY4Aau6/rabkOE4cGDB91FixZ/dEbnzC/deuutA/FaFi8i3sFptRg3hwAEkkIAQZgUSzNPCECgJgmIwFu7dq137eevPW7Ttif/JZtOvUXEoDScjz1NsnEWD5Txvlhho/x+H6fFKz2AlZcbzlton6OCUD194vmTL7syqPxsi0K5h4aOSvjocGGq45zWtJ0et9IweayxcDZeQvn5UG+ve/yJJ3xszpw5V9966609wzWwn7aBc2MIQAACdU6ADUOdG5jpQQACtU1g3bp1qQ9fccXxT+/c9WHX8y5Mp9PGuxKLCs0Z1N/llf+u7clP4+jtAjG2KBPxovl92ifwSK0fbKGnOYTabN4Wk3qceheH8yZOI4oJvXXcq9EUPIof5kMM1/Pc/oGBqHPmrI+dsPik63/wgx8cwkM4oei5GAQgAIEjEkAQsjggAAEIVCkByR9csmTJsf0HD61yPe8iyUmTthGDJRtN8RITJmptrMWjpC9X6axqY1iV7SNE0Enen4g3bTCvVT9FGGpVUfs8zRGU49VzqM3o9XgRgWJXu4iMXXymiltLjNmQIvQ0tNkW26l0Ourr6ys1NjVfefKzT7751ltv3Sc3oQLpmFFzIgQgAIEREUAQjggTB0EAAhCYegIvfcFL5zy69U+fS3n+W0SIBEHgOiICZY/sOFH8C9x803jRuP+b2UdP/Yjr844iWkTciXDTyqAxcxPSKeJOm8trblzc8sMcL7azvYjymt183m4fISJT8gf19XoiKmtUxLGs41jk6QcaJu819h66hVKpu7Gx4csvet7zvvr1b397Sz0xYC4QgAAEqpEAG4ZqtApjggAEEktA8wBXrFiRvv3WH/+b63vLspmMNJc37kDpK3iEvDI8g5OwatTjZxeIsb2AtudPnhdBp/0GVUiqV7GyCI1dXEbPkZBS7TU4CdOZ9kuKEJS1XBlmK8+Xy2XXeMGjSH7uzjXkbnjRS17ypa9//ev7KwdekS877fNiABCAAARqmQCCsJatx9ghAIG6IGCX1pefL7nkktT3137vGy1NjW/wUympIOoGknMVRYf1pquLyVfxJOJiPYa5LQh1yOoFtAvJqLDT/EJbUGoz+sop6zkaglrFSCZtaHZhpDjENiwUCntSfvqzF77ygpu6br65X25u9+McjCalEumkGYULQwACiSGAIEyMqZkoBCBQjQRsT4f+PHfmzBubWlrf5rlu1iq+Yfelwxs4BcZUQSi30nxA+S4PDRMVr58IGM0rtFtQyDG2yNOwUz3WFoIiIDX89EhFaqZgytN2iyiKTDNN9RRKOwpTXKdYPOBF7sq3v/Md3161apXEmpqk2WH6c07b2LkxBCAAgVongCCsdQsyfghAoOYJ6OZ29erV7vXXXPPp1ta2dzpR1Gp7qOKNsAkX1Z9rfuJVPgG756D8LOGM2WzWeAxV7EnuoAg8eU3bKdg9BcVeIvbkOA0nlWknUfQ9k7lFWAsfz/NM+VHXdT3Ni+0bGNhXCsqv37Nnzy/1GhSaqfI3D8ODAARqigCCsKbMxWAhAIF6I6BewbPPPju95cknL29rbfsn13U7rfKhQ/lWtvcJQTH5K6FSEIpoyeVyxluo3rz+/n4thjJUeEYEoghGDRfV3EH1FqowjIuomInUU7/BcVjGeAnjtiriCZSehabPZl//wFOBE75y165dD8U1lHxx1CIMx0GbUyEAAQjEBBCELAUIQAAC00zgnHPOaXh6y7Y3+enUR50oOi6uxqjewCHBoEVlEBDTZzDxBDY0NBgBJ1/SaF4FXmNjo2kfoS0kbDup+LP7EYrXMPaGTd+EquTOWoFUWPq+P1Q0N86vNSHSQRj+vrWx/Q0PbHhgk9W4njzCKrEhw4AABGqXAIKwdm3HyCEAgTogsGzZssx999330qBQ+mQq5Z8Zb3Rdx/Okn8Fwv6PFa3KkSqN1QKS6pyCCTr2E8rN4s0QUao9CHb16EOXfKhA11FQqicoXj8MJxP0JPe2iIt+NdzWKXCdyolA6rXj+D05+9skX3Xbbbb0UlGEFQQACEJgYAgjCieHIVSAAAQiMiIBdJXH58uXeow8++pyenu5Pe7738ji0MAqjyLSY8K0WE3YlyxHdiIMmjYDmEmrTePFqaRiphouq51AGIcfr65pPaBcLmrSB1taFjVdQmR4Wruu40lQzdH3PLRSLju/5q17zur/53HXXXVewp0gritoyOKOFAASqhwCCsHpswUggAIEEELBC3ZyTTz55fr6v75qUn/o72QCr5y+OlxMa/I6uwjUhokWKy2jF0cohqgfQzgu0q5Pa+YVVOL1qHNJQVV3P86J8Pl+KXOdf3v+BD1y/cuXK/KDDPBp6r5BXWI0mZEwQgEA1E2CzUc3WYWwQgEDNE7A3qkbhxZvXxYsXZ/oO9nwum828KyU19gerh5qdbZxvRlhoFVtf+hLKl4hDEXha5KdSDFZ6du2m9lU8vaoamjKTEFEpMhOGYVQolfaLKNy+fftNOlh9byEIq8p8DAYCEKgBAgjCGjASQ4QABGqbQGXjedmwHnfsse+OIueTuUymTUIO9SEekNizxO/nKjW72EdCQyWXUHsKylAlHHRgYOAwgTjcFGyRiEA8upFjXqbqqLRokfeP63lRsVT6U0tz64cfeuShH1deBVF4dK4cAQEIQGDoAzVQQAACEIDA5BKoEITeK847b9bDmzb9qamhsUM8SnF+2VDD7bj4iBTUQBROrmnGdXXbSyjCToR9Pp8fajdBK4lx4bVPlkJKIrTFax6mUimvHARBEIZREIbfXXLqkivuuOOOnXGbCq1Qat5PPCAAAQhA4OgE2GwcnRFHQAACEBg3AS14sWLFivR316zd3Dlz5ry4qblbLpcjLbUvG17xgqRSKZfCI+PGPuEX0NBQsc1wXkLxENoe3wkfQEIvGLvNTdEZeQh/+SClVCqVD/X2de07sO+TUodJXhqMzHZNg3seEIAABCBwdAIIwqMz4ggIQAAC4yKgYvD8889P/fEPf7x19qyZLwuCIB2WA1MKQ1IIgyCQna7kSJncwTh0dHD3y6NqCYiXUKqIav9B8fiKl9DOK5TBq5CUn/Ecjs6cwrZUKoWZTMYrFoviOZcv08BeXisHQVguh+8598Xn3rx27dogiqKU67p/jsMe3e04GgIQgEDiCCAIE2dyJgwBCEw1ARGEl1xySepnt/3swnQm9ekoCDqlMEbK991oMC9KfhebEDersIz8ONVD5X4jIGDn/amXUNsliBDUlhOaK2jsKIYeNPFh4nAEt0v8ITZv7eUoolBCSM13ef+47u8bm5sufeihh+6Ncw1913WDxMMDAAQgAIEREGC3MQJIHAIBCEBgpAQk3FPFXbz5N4LvlFNOOXegt+/GbCZzWhAEspENwzCUAhkjvTTHxd61uEWHE0axwIrFtJWrqaxMpKEq64oCLpqzaV4+rO/dM9tE8tmM0WJPX5TJZNxcLicCRTxZ8jUU7muqoHieK8rfhADLT6IPB8dllgiGHR8BEYXimfVT6ataZ7R9/P777+8+Uk9CO593fHflbAhAAAL1Q4A/RPVjS2YCAQhMI4HKwjGSw6TPHXPMMSc7QfiFXDb7Ct/3/TjUzbSYQBCM32hDZVn/LOwMfFXbWmXEEurGERuzHyo+YvWBNIOyxbolGIcEoR4j3sE47FcqjYowlFKxpsWIOn2dKDKhwNI1IXLMz8a7VdmWZPw0EnkFU3SmWCj0hq73kTnz5nzl3nvvLcWiXW19GBia2CdynTBpCEDgCAQQhCwNCEAAAhNAQD2Ddi802XQuXbo0u+nxjR9wPPeDvuc1+Z4n+YIm9wkxMH7wdo86CSEcEmDSmiD2vqknTo6VUF1RaXKseOzk37GHcNBdJ+dVuG3lPKPdBz2SRsSJmNPrirc3nU6LujM6NJ6V3T7ECEN5Xfro6TWs1gj8LR7fUlCbRYVicf/iExf905133/Wvla0n8A6ODzJnQwAC9UuAP0L1a1tmBgEITAMBWxjK7efMnPnf05nstZlMZol4rCwBgiAcoX0qwzkrC7TEcaFGAKq4i3MznVK5LFU/XYHt+6meTDbzmJ/yH45CZ3shX9ibz+cLoRsGbhgGps2H77tO4ESe1KuUipah44RB6ARhyQmDQKrBOlHguOlsyk/7mWwqnepwPe/0KApfUCwU5ks4sFS/lGIzFYLPqMX4j+5hYcV4iUe4EI58mN1iIgoj56m3vv2iE7u6usqIwHGz5QIQgEACCCAIE2BkpggBCEwuAQ0/q9x8zpkz58RMKvX5dCr9OvVWxU3NXQktjD1S/B4+inmGE4RaqVNS80Roa7GRWAAORK7zcFOu8aFcY+PWXC7TPVAo7Ozp6dmby+X2zJ8/f19nZ2eP4zgDl156abhnz55o+fLlWoBkqMDPcMNSG69evdp9+umn/Ycffjh36NChzkOHDs1tyTbOaWxtmh0F0Zzevp7ZPT19pwVB+bm+77dkMxnjZRTPsI419jSa21B5dOzv0dgrby5gQkclhzNyPnfxios/tGrVKjsk2M4bpU/h2JFzJgQgUGcE2IjUmUGZDgQgMD0ErGIyRlAsXbq0ac+OHZf29PZ2ZTPZBgkTNZVFU6k4l8yV8vjih+IxCgLqHRSe6XQ6lJ5/UsSlVCofSGczG2fP7rzHc5zv7zlw4IlMJtN75plnls4///xgz549+VWrVgXqtbPDdTXMd7T96yqvsWbNGr+hoSH7g69+1X9kz570li1bmhYvXrzIc5zX7Nyx69xDPYcWlEvF2blsLqMeRJlHfF9E4SjWgR5qFwqKC/iYNiD7u7v3nfui8172/e9//0E7nze2tXHWj+F2nAIBCECgLgkgCOvSrEwKAhCYSgLDhaW1tbWdlMtk72hraTkx3vQP5acFQSCbUc9xncB1XEThCIylG39t7yBCsLevL2pqbtoxZ86cL+zdv/9/Nzc3lzs6OoLzzz+/2NXVddiGv6Loj3b3kL+B2v9xRB6j0RYj6erq8jZv3py57777/HQ6nWptbV3QvXffV3fu3PlCuVZjY6NpsG4qkOIpHMFKOPwQq7WHye3UHp7yfPehQ3+46pqrl775zW8Wb/BQCG9cbwhBOGranAABCNQrAQRhvVqWeUEAAlNOQDea8+fPb2zIZP7dCZ3XSBER7T835QOqkhvqpl1Ej4ZMqvhRoafeHdm3i9jzfd+IZnnel36NgwVhyj39fXnXcftOOOnEC9evX39HlUxxVMOQKYmH6oUvfOEpTz/99JUD/f0XZDPZTFNjYzool00V2pTvS86i43quY/pUDBazEX7GAx334MOr+AzkXcfdm86mP7T6E5/4hoYEj1bQj8qwHAwBCECgRgkgCGvUcAwbAhCoHgIVHkJ34cKF5wbF0l1NjY2psBw4WkmkekY89SPRUM+hip1WW4c4pE8EnycVO0X0xN6e0PN9p1Qs9hZLpX3pTPb2WbNnfemee+55crThnVM/47+843BiRJ5bvny59+CDDy7fs3P35c1NjQsymUyH4zgZ4RE3LDQVTU1YchSVI0f0sm/yUCsrolbDPKtlDIN9IcsPnHbqs995+3/+529lXHHIKE3rq8VIjAMCEKgKAgjCqjADg4AABGqZQCwIZW8eLlu2rPmX6+56vL21dY54umg+flgT9iEzq9cwdn3Z4XxG40iLBsdx+stR+Kjn+z8655xzvnfBBRdsvOiii4rxRUQMjSjMs5rWlq6VuCfiUAEbmctVV13Vfst3bznnoYceeG1ra+tLPd9bEEVRgzfIQ8WfCEGpiCqiBg/h0Y1bKhaK3zxj0YlX/Pjuu7v1gwQ8hUcHxxEQgEByCCAIk2NrZgoBCEwSAdtDOKdj1sqm5qYvxu0PTJPyirZ2kzSK6r6sVtHUkFH1FGoD95iRCYUMwjBIp1K/KIfBb1/4/Of/7N/Xrv2Nzs4uClNLgtAWgpW9KtVzFYtj6V0pYaOvePyxx1/se955ad8/x/d9yXUUBRx5rhsGQSBeQhrbH33Zi5DenM6kP/SnDRvW2KyPfipHQAACEEgGAQRhMuzMLCEAgUkmIBv+JUuWLOzet++Btta2lmKxqN5Bswed5NtX9eVtT9bwPQWjKAwjqRYaeL73nXIQPPqS88//wb//+78/bFXyNN60Wq0SWSkIbYNVFLwZqoApVUuvuOKKs6JS6dWen3ql67pnS5Vaz3W9crk82BNxqLVhVS+B6RxcJL0hwyj8Tkdn5wfvv//+zfQmnE5zcG8IQKAaCSR6k1KNBmFMEIBA7RGQDebq1avTN15/w/XNzY0X+a6XLktBENe0So8cNu3GqJUhjto/rlgqhJ7n/9Rx3dtnz5176+9///vtFX357N6A+nerpkJGj5Q/qKt9uNYXeo5UKr35hptf2Nic+6uBgfwl6VRqYTqVMmGkcbuT2nvTTN2ITTGeKIr2B2Fw6Zbt29fW6ocKU4eMO0EAAkkjgCBMmsWZLwQgMCkE5s2b9/dZP3VdyvPnyYYzkBQ4EggN64pecVppNCqVSk4YRQ9lM+mvepnMHc3NzU/ee++9Ja3W+gzer1G1ipgUg4/horYoHIlnrzIk9oILLmi6/577z2htb710oL/vzbls1ujsMQwlSacMNaMPg/A/3Ezqg08++eTW+AOKmstBTZLhmCsEIDB1BPhDMnWsuRMEIFDDBHQzP1w/u2XLlnX8+r/u/j+NjY2vDIPAd73B4pDGy+W6UmS07n/XiniRIjoS0igaUCpgSt6bEYOO40hIqOu5Q2GO+Xy+kMtkfjKrc94nnLTz6G9+85t8XGjlqKskaQVBKkNKzzzzzFlzOjvf8vCfHr0843vHZLNZV0OUYy+sadWhvQ3jlhXiURV7hHFl0rpfk9ZCMlVa84VC/8z2jnddevll37vkkkv64w8rhnpS1mp+6lHfMBwAAQhA4CgEkvQHgcUAAQhAYFwEoihKua5bjjeS4qUyG80F8+f/UzqV/mcnitrFuxU3GpfXpFJmYhrPx03jpQimLz9rJU3XkV56g1UypcdeX19f7+LFi16eL5cfuPfeewdGKgTHZbwaPbky3y0OEY0uueSS1G9/8ds5/eVDH+7r639Xa2urKcgjIlDDbSXHsFwuiwA0eYlxr0epTmqOrVEkoxp2ONjLxLTskO+lcvmWRt+79JEtW3ZUemytsN2hqrejuhkHQwACEKhRAon4g1CjtmHYEIBAFRGwwhiNEIyH5r5y6dKFDz362PXZbObVIg5l0yneMVMRUrxjkkeYgEcYSZSs6SMoczZeFxEd8l2+pLfgQD6fd1xv87anti1RJEnz9o11KQwnDOMPHJx58+b9nRM5V2fT6bnpVCodhmEk5UhDJ3LjSqSaa2jy6ZLYuzAWhU5ff79zwoknvPeCXO7GrrvuKsdcRTAHmo+pXMdqK86DAAQgUGsEkrFTqTWrMF4IQKAqCdhhoyJypNjHjV++8YNNDbmPOo4jCV0mLM8SOyKEElEJMvYIGu+UeGXi8MRIwmfdyAn68wPbWlvbPzD3mLm3rlu3Tl4Xj5X5G1RL7SOmY2EeqQqpjEWrl5577rntTz7xxMeaGhvf7jpu85BLMIrMhxRGCQ4+BtX60D+nY0ZTek8z7zCKpP+L8d739vU9eszCY1+8fv36A9Y6NH1ElSlrckptxM0gAIFpJoAgnGYDcHsIQKC2CFii0Dv++OOPC8vhZ3zPXZbyfRFCZjKyAY9D8rSZeG1NcoyjFc+UhCmGg0IvCgfFSD4/MPAbP5P+5y9+8Yt/WLZs2SCkwYfxzIzxdok4bbicVRWBtidLnnvb296W/dH3b/lIY3PjO7OZ7Cz1Vsd28WR9amXXpHgJTaPGQS+9fvjgFIrFqL2t/bIHH3n4y+ohFM0Yq2UKzSTincUkIQABmwCCkPUAAQhAYIQE7PBG0wrgK195a8pP3ZBOpbLaUiEOlTShkyZ0LyExo3F+mvE8SfN0KaYTRdHeUrl8R+REX3zqqafur+zFR7jo0ReeLf4qxaGebee+yXPz5sz7QCaTXuFG0aJcLifFfobadqhnMCnrMi6o43qeJyHM8gGF8eL39vYWduzZnavIIxwKB8dDePS1yREQgED9EEAQ1o8tmQkEIDDJBDSPUG6zYMGCY9zQuTKd8t8m+XEi/ozLK84hlCqPVlheYn7XxjmDTr5Q3JXN5W5KZVL/+sgjj2w5knhh4z26RTucKKwQhGatPeukk/7Wddx/zOfzr8tms1L1tTKfNTFrUsNlzYc0UWjyWQv5ghN67lu3b9/+TeVHUZnRrUWOhgAE6odAYv4g1I/JmAkEIDCdBGRDvnTpUv/pbdteMzBQ+Foum+mQ5+JN51DT9HrsDxeH3xnnkgpg9TTFxUpMzmR/Pr8ll8uuetYpp9x+++237xF7VXoD8Q5O7CoermLmi57//GdteeqpSzzHvTyTyUiFV2MuU/HItAIxIaRDOYaxfYdyYCd2hFV1NSMKD/X2bty1Z/fimN1QKDNrs6psxWAgAIEpIIAgnALI3AICEKgPArpRPO200+b0Hur9bBQGF6ZTKbOPrkcBWGm1OBxWPU2mNonJFQxDT3IHRVwcOnRody7XtPyiiy9av2rVqoLtGayPVVBbs3juc5/buXvXrsvcMPpQLpeTlhMmv1XyDyV0UkRhnGMoXm7No6trUahR3IVisa+5uekf/7Rhww9jq5rQWrzWtbXGGS0EIDB+AgjC8TPkChCAQIIISO7gT374kxdv3b7l1qaGhpakVBEVE3ueFwZBIPmRIgKNEBZPS7zBjrq7u7e2t7a8+h/f/vZHurq6qNg4ze+LOMQ5es5zntO2Y9u296RT6Y81NDbKJximX6EIwFjIS8N6Ga2p/JqU/EIRxQcOdK+/+J0rXvmZz3zmUBwyqv1FKS4zzeuX20MAAlNHAEE4day5EwQgUMMENH/w7LPPbjx0oHttGASv0nL+8Wa67n+figiU0MNSqTSUjyYiUQRET0/vhnCg76929fbuifu5iSDE41I9az49f/bsj6TTmQ+nUinxFJoWDIVCQWwpwtCIworQ5+oZ/SSMJPaW7mhuab7sgYcf/p7mZ8qt8BJOAnAuCQEIVC2But/AVC15BgYBCNQUARWEpxxzzMyDxdKG5uZmyR1MRI9BNZSIPwkPjcPqxJ1kXEoD/f0bHN97zc6dOzfZG2lysaZ3idtFkFTszJvZ+bnG5qb3+L6fLZVKbiaTMV5fzQtNindQLCPvX8/3g30H9v/ofZdf/uZVq1blaUo/vWuWu0MAAtNDAEE4Pdy5KwQgUIMEZIN9+qmn39B78OCKVDplcq7icMm6zrmyTSVzTqVSpqu8fJWKxV+XwuDdO3fufEjFYBRFvoQf4mWZ3kVut/lQb+3q1avda6+++ovtrW3v8H2/Me6XaUJFfd83+aDTO+qpu7ssYZNMGYbbZ8+f9+H169d/M/Zuk0c4dWbgThCAQBUQQBBWgREYAgQgUP0E1Ns1e1Zn2NbS4kRBaNqqW60lqn8S4xyhFpWRHMIgDKNCofhgIV+8Yt/Bfeus/nZ2kR021uNkPp7TRZi7rhvo2lUv4erVq9PXX33tl1tami/0fT+j3sE4J9R4zhLyMOszCMNSoVC86e+Xv/5/XXfddUOFkBLCgGlCAAIQMPkdPCAAAQhAwCIwXKijPHf8ggVLI8e9M5NOm9KamkgXt1yoi9+nJozO82xRYLoUiGgIyoGTSqdMQZlCqfRgoVT80J49e35qi0HBSC5Wdb2dbEGoXtuVK1c2/Ps3v3ljLtfw1pTvO0O9KOJQyuqaweSMRj650LUeRNFvZ8+dc8X69et/i2d7cnhzVQhAoHoJ1MUGpnrxMjIIQKCWCFR6UuyG1cFOHA0AACAASURBVDKP+Z1z7mlsanxuRSievFRPv0tNXREtza8Cz2ycg9DxUn5UKpV2ean0lWc/7+yb16xZo60KEuNWqqU1/UxjffWrXz3jTw8+dIfnume7jmkh4kZGGdbVen4mBDJZWb9+FEXFchis2rp9+2fqxb7MAwIQgMBICdTTJmakc+Y4CEAAAsMSeCZBKNVFd2zbvrOxsbFZe7lJDpLjOq75f508NHwwbi1h8skkt0yamktRmSiK+hzH/cqxJxz3pXXr1u2qFM11gqHup6Fr/XnPe95L9+7a/U3PdedYnvG6Wc/xBxrGnvaHHPG6Nj0Y5cOOUqkUlaPwxjPOPPOjP/7xj7vxEtb9W4AJQgACFoG6+qWPZSEAAQiMl0Ds/ZOqi4FeS55bMHfu+3K5hs+4rpuNi8mYapvxMXXzu9TyDmrBDdkwu0EQOOl0Ougv5P+jqbn5nx999NEdtJUY72qb3vMlYnLp0qXexsc2vj4ISjc1NzW1iPCf3lFN7t1FFErvRfmSDz3k3yIIy+WyUw6DzVHgvuexJx+7bXJHwdUhAAEIVBeBuv7FX12oGQ0EIFArBOwcQinMsXLlytnf+da3b2tpaTmzXC5LIZlINpTadqLS81Ar8xxunOrxi3MJTfioVKLMZrPh3v37n25pa/1vmzZt2qV5gngIa9Patv3OOeechs0bN17o+6kbGnI507S+nsJG5f2pH3RI78VMJqOCUDyDjjwXBEFULJXCYlC+9C1vecvXurq6DAQeEIAABJJAAEGYBCszRwhAYMQEKsJGTWP105cseVVPT+9XM+n0vEBcZY7jxyGV5ndovQnCGJYIA5NXlkqlou7u7jDyvfY9e/b0VghmKThD/uCIV1h1Hai2PPXUUzN7d+5+Zy6XvTqTyagorK7BjmE0Kgbl1HQ67WSzWSMG5W0ch0DLe1gqsUoeoZPOpG9snznzyjvvvHPXGG7HKRCAAARqkgCCsCbNxqAhAIHJIlDZQ2/ZsmX+3et++amW5qZ3O67bFHtPzO21SqEpxlFHpfpjb4rxkHie55XL5dKMjhl/d+/9998mbdvsKqKxIEYQTtaCnKTrxv325MMMY2ex6ZmnnHJ8z8DAp13HXS5hwvWypo3Qs8SgvIflS56XDzvEA+77vuFQKBa7Hcdb9vCGP61z/xwSPklW4LIQgAAEqoMAgrA67MAoIACBKiKgVURls/yKV7zizEcefPjr6XTqrFj4mZy6uOuE8aBV0dAnYiimj2Ds9ZSfw0KhcPvcBce84d577+0friXHRNyUa0w9AXudqyic3zn3f6YzqU9mMpnZ8XNTP7BJuKN4BiVUVB6DTn7HyefzYblc9jKZTJTNZkUURsVi0Z0xo/19zzv2nK9etfaqgUkYCpeEAAQgUHUE6m0jU3WAGRAEIFA7BIbzfJ248Pj3Oa7zEddxOmtnJuMa6ZC3T1Rhb1/vvY7vv37Hjh1bCA0dF9eqOnm4sF957uabb051fexjV+ayuctSvt8kuXX66UBcRKkq9g1W70vDVcO2h/Nqymu5XM6Eipp+mkHgDAwMGA+/zE0+3BFPoYhG+bDH9/y1fi7z3t/97ndDYaO69vlApKqWMYOBAAQmiEBV/GKfoLlwGQhAAALjIqBhdLLxlQ1gV1eXd/0113y2tbXt3Z7rNtRLCN0zQbLbTpRKpW1+yn/35Vdc8Z/vfe97C+OCy8lVS6BSHD7/+c8/8+mnnv5iQzb7EieKvLjliOwXJKzStCKppodUCY3X7VDxGBlf7MU3VURVEMZFkpz+/n4VkqZwkh1WWiqWds2dO/t1v7j77t9rJWEtnhSLT0Kkq2kBMBYIQGDcBBCE40bIBSAAgXohIILQzqk667SzztjXvfuLKT+11HXdqtsITwZ3rcYoBWVKpfIXnJT3me3bt+/HMzIZtKv2mu6iExb9Y6mY/0I2m+2UlgxWTuG0hUlbLVGGwIkQlPxA+RLPX6FQMEJQKodqOwnbQ6hCMZ/Pm+PjarrmHDm+qakpksqjxxyzoOu1f/s/Pmt/EMJ7oGrXKwODAATGSQBBOE6AnA4BCNQPgcqcqoULFr435Xsfdx2ntX5m+cwz0U134ER3hVH0ga1bt96n9XNULCeFRb3Ps1Lg2CHTF1988Yyf/fSnH2vIZC+NoiitDdwrw6qnktFwglCEn105VMRcXCzGhIgWi0XTY1DyB0U0qidRxKAcWywWTU6wev4aGhpMLqHjeb9afPKzXrl27VpTVTf2jA7246Cq7lSanXtBAAJTQABBOAWQuQUEIFAbBOzebDLiWR2zPtbYkOvKpNOmoGhtzGJ8ozQb5ig61DvQ/4ljjz326nvuuafMBnh8TKv57CN5vUzV0TPPPGbXjp0PtrW0tJXLZem96YqQsnIKp3RqwwlCEXoiCOWhId3q9ZO1LGJQvIYiDuVY8QLqcbFHMQzDUCIDTB6hCMx0Ou329PYeXHTysxbfdttt++JJmjByvIRTanJuBgEITBEBBOEUgeY2EIBAbRCQthOu6wYveMEL5ux8euenPCd6W9yEPhG/L2XHWw7C7xbKxffs3Llzr+ZTshGujfU72lHaHr/hhP+iExa9vlgYWKO9Cae752Zl8Rh5b6qHUL1/ysAWhBpaKoJPr6Gvx61kjBgUBuIx7O3tdRY96+TVP7n9J1fG1zP1Z0bLl+MhAAEI1AKBRGxwasEQjBECEKgeArJJPmHhCW9wnPAG3/Pa67C1xBFhR1G0q7dv4Mpde3fdGB8kntEQL2H1rM+JGMkzCXz7tWXLlmX+6xfr9rW1tTWKJ832xE3EOEZyDbuiaKUg1PBQu2iMHiPeQc0VlPtU9iKUNS0qT1qrSI6w3WNUzh0o5Lc9uXnzwsrcYrkW74eRWI5jIACBWiGAIKwVSzFOCEBgKgm4HW1tFzc2Nt2Uy2a15+BU3n9S7xWH1JmG3LKxle/iHZHYuYFi4Y7nv+AFb7zlllu6dRB4ByfVHFV38Tg8eihE8sXnvviNm7ds+r+5TEYcyOJBHwq7lBBMbfQuP4/1oe0g4nV4WLEXvaYIOhF+ch8JA5UvFYRxy4jDQkLlmiIINa9Q/i3nynUkfFSri9oeQ5mL5B0GQRDu7+529+7f59m5xbwXxmphzoMABKqZAIKwmq3D2CAAgSkloJu9888/P/XEY4+903e969KD+YN187syzsPSXKgg3vy7Ms9CsfB0fmDgkne+5z23d3V1hZo3KaFytpdkSo3CzaaFgJ1Pe/LJJ7f09fT9NptOLYm9Y2ZMlW1YbKE42kGrIIzDsw87XcM9NQdQXtSiMPJdw0bt+9v5hCII5UsriYoolHO0yIxcT0WtfBfvoDwO9fQ4Z5713Dl33HHH7ni+Q78H8BCO1sIcDwEIVDOButnkVDNkxgYBCNQGAfF+yN5QimkcOtD9cc91L7QKaNTT70vTe00i3zxPHCCRuHzK/fmBW170V3/15jVr1pTijb8ppkPuVG2s34kapXoIdQ2sWLEi/fv169+yZ/eeaxtyuSY7tFILuAwnEEczHs3/s3MU9dp2hVAVfTIGEXlxS4yhgjE6Nm1Cb4tHFYW2R1B+tq+p8xDBVywW3Y5ZMz/3t3//9x9atWqVabfBe2E0VuVYCECgVgjU0wanVpgzTghAoEoJiDC66667/He8/R3/vVAY+HY2k+nQ5tb1lEc4VCpx0CVqeswVi8WefLl03s6dOx+ymnCbDXBl9dUqNR/DmmACtmd84cKF85wg/Eo6nX6N6ziSd/cX4ZnWe2XcI1GRpnl/KtzUgydCUPsIys3U66djEBGp3kYNa9Vz5HhtSVEpbi2BaPIL+/P5bVdfe80Jy5cvD2KxaMKsxz1BLgABCECgigggCKvIGAwFAhCYXgKyAX7b296W/cM9f7ho797dNzQ2NJhQsnoSg3FPwaFKi5I/KJvuAwcPPrZ7755TjmABPCPTuzSn5e72BwGXXXZZ9sc//OGycjn4Wi6bzarwqszDG+tAKwWmijzJDbQrg0p+n3zJ/bUNhYaH2i0ltFm9CD/7oePWpvWShyjCMhZ7Q+8LeZ9Im409+/Ydet/KyztXrVo15DUf6xw5DwIQgEC1EkAQVqtlGBcEIDDlBGQD/KpXvapl26YtKw8dOtiVyWTEO6aCsL5+X5ppRZEz2FvN6z7Y8/r9B/d/L94YS3WQv/CC4BmZ8iU5rTesbElxwvz5J0e+f63v+ReoB8/uDTieHMLhBKEIQS0io57BuOCL8QgOI+IOe07EoJyvj+EqlNpVSPU4Lbok8+8bGOg94zlnPu9nP/vZBus6eAindWVycwhAYKIJ1NcGZ6LpcD0IQCBxBBYtWtQZFsuf8zz3rWEYmrCxGEI9/b40VXKMHPTcqLe3t3DKaae2rFu3zrhKVPhVFtNBECbu7SBeOJNDGn9YknnoD3+8zPXcz0tIpi3IKgvMjIWUCkr9rk3n1ZsnYlDCPjXMUwSjiD75sr2DWilUvssx2qfQHqP8rN5GFaN6XSuPUSrwFjO5ho8/+tijn7LfG2OZH+dAAAIQqFYC9bTBqVbGjAsCEKgRArLpnTt37vGu497S3NBwuuUdrJEZHH2YxqNj/meqRJp/lIPyl7Y89dQVFJA5Or+kH3HsnPn/4Kf9r6RSqTb9wCQWcBJbPea+E5VFZWRpqiAUwadVRbUCqDwnYk+E4HCFaOQ4CQdVUSghpBo+ansbjyRktWl9Op0Oe/t6f/Wj22576dlnn13mQ5GkvwOYPwTqkwCCsD7tyqwgAIExEOjq6vJ+8fNf/PWGDY/c0trSkg6CIJKCKxNZLGMMw5rwU+KiMqHv+V5/f98+J506edu2bQfY7E446rq74Etf+tKZGx97/BNOFK0QsRQEgS8fpKgwG6+n0A471YIydniohqja4Z/2c/b9RUT29/cbG6gnUX62W0scyUByHRWQBw8devyDH/nw0ve///1P1Z1BmRAEIACBOiuUgEEhAAEIjIvAl1aubPjer3/9qW3btl8uYWaxEJSwMVNvflwXr66TTXVRKSgzMND/q855817xxz/+cYCS+tVlpGodTUd7x8eamxq7Mum0qTbqOFHZcdxUFEWh67pj8hIO175CBJlWC618+9nCUXsYqvCT71rsRhvTy3N2WKmd+zgcZ3nPiyAVUTkwMLB16ctf9oZvfetbv6XibrWuSsYFAQiMh0A9bXDGw4FzIQABCDhnn312Y19v722lfOHFcc8xI5piz1m9/L4crJLjupKPVW5saLpi9jFzb5T8QTyEvAlGQmDJySe/uVgsfToMggWxUJP3huQZSr7hSC7xF8eoR86uHqoCT3MAK4vWqOiTc7QFhYg4CSVVr75dldQe20gK4MRjisrl8u45c+dc8Zvf/e7bvEfGZF5OggAEqpzA2H5zV/mkGB4EIACBsRA4+eSTW/oO9vwqm81I/qCEi6ogHMvlqvYc2dTKhnggn3/AD4O/3bxz5+a49yBN6KvWatUzsDe+8Y2z7v7lL69J+6k3+L7viRjzPG8wOVX+O8ZHpddPwz+HKx6jIlDurSJSbiseRflS8Sd5hCIK7RYVIxGt2ovTHBs5vfli4fptTz/1YQThGI3LaRCAQFUTGPMv7qqeFYODAAQgMAYCnZ2dzX7kPNLS0rJABKEWlYkcR6py1sXvy3ijKxtkt1gOPjtj5ozPPvDAAwclyo7N7hgWTUJPmT937pXZdGZlKpVqDILAMx+eRGHoOmMLGVWMR8oHFGFm5ynKcbYQlPPldfEmagVUEYsiCLUQjW2qo4WMyrFxWHXop1LhwYOHfviFq7741gsvvLAvoSZn2hCAQB0TqIsNTh3bh6lBAAJTSODVF1xw2n1/uP/3LS0t2XJQjmtxDjbkqxdBGOOMiqVS6KVTF86aNWvtvffeW6LC6BQutBq/lXyY8KJzz337zqeeXu163jHyYUIcWj3mmdlVRisrjupF1YM4nJiT1yqb2IsglBxCbSdReZ0RDlaasziFYnH9W9564ds+/elPPzrC8zgMAhCAQM0QQBDWjKkYKAQgMBEEZDN7JE/Yy84//6oNGx57X1xQZih3cCT5RhMxtqm6hnhS8vn8w6UofPs73/nOe7q6uqRlgPEa4iWcKivU7n1knbzrXe96zo9+eOvXctnsWaZ/SVxpdDRVRofLCdTCL5Wir9JzaP9bztHiM0I1DvU23sFSqTQe0NKX0x/Mtw02nHfeOe/91ne+c8d4Lsi5EIAABKqRAIKwGq3CmCAAgSkhUCmA/tuZz3ly9549x0thCqsKsynCUjdVmSMTGuoEUXB9f6HwiZ07d+4xk3NdneeUsOcmtUtA3jdr167Nve+yy25uaGhc7jpOJgpD82nCaGdl5/bF63DEl5DcQu1FqOGkKjJFDMrXGIak9zfvE/0dEYbR9mOOO/bDd9999zdHPEAOhAAEIFAjBEb9y7tG5sUwIQABCAxL4Jm8YCceu7AUOY7n+35cTn/wEvGmtS5+X4rwM4U4gug9zz/vhTetXbtWvCBm44sw5E0zEgL6Hjr91NPfc+jQwdXpVKrdiSJvJN7BI/UPHFJhUTRUAMYWiPa1tSKpeAXjD28OO0eKyIhnsDJUdCRzs44xkeKaR+h63j4vnfrE448/fu0or8PhEIAABKqeQF1scKqeMgOEAASqhsAzCcI5M2eFbW1tkg/lhYMeD7MnFb1ULx5CmVOhUIgG+vMr9h7c/zXNHSSHsGqWaE0MRNbLhW+88Kw7f3nn2sZs9njpYSnFZUbjkZNjtWG8ePo0d1A+sJBCMPI1XKsI7VmofQr1XDlei8joMSMRqcMBN170IDCVhs1733UPFUvlz297atsnasJADBICEIDAKAggCEcBi0MhAIH6IxB7xsQTEM5qnxHNnDlT+o4ZD6GGn41mk1vthIwgLBa39xfy79m3b9+tsUA2OYQ8IDASAvqhSldXV/N1117765ntM04PgmDEfQjVwydCTjx8IuzsxvTi2RNxJ54+rRCq78HKwjJyrlxDzpdjRUzqYySVRI80X/s+IgqDMMz39Q9cv3vv7v8Vf0A0ElQcAwEIQKAmCCAIa8JMDBICEJgKAp0zOoIZM2Z45XJZvYN1FS5qGLquEzrRWj8IPvT41q2bRAhbG2j6EE7FQquDe4iHUITR3Nmzr2lraX1XsVhMicA7mkdOhZ+IOBWDikPEnAgxW4wdqW3EkQo92SGp48EsEQKpVMqNeyyK0Cx3Hzr4tZu++tX3LF++/M+qczw34VwIQAACVUIAQVglhmAYEIDA9BEQj8fy5cvT/++uX+abmpqG8uksoTSmghnTN6Ph7xyHwTnlMPjUSYsXr7rrrrvKciTVRavNUtU/Hs05Pe20087t7T54RyqVatAiLEcbvQhHyf9TAalePfEMiki0205opVAVmnZ10XjtDt3OFol6/Fi9+/F9TC9SySmWD4mKQfDd1/7Na9/zla98ZffR5sjrEIAABGqJAIKwlqzFWCEAgXETGE78RFHkn3feecdvfXLTE9ls1ngHpa+a3EzL4I/7xtN4AXsTXSqVgnyx0LVrzx6TC6U8KCozjQaq0VvLmnn5y1/e+vADD2xrbmpuGUkRF3lvieiT1i76AYWEhsqXCMSGhoahthGybu2cQNv7dyShZ4eeHs1b+UzYbVFqCjGFoeP7qf867czTL7/lllvur1GTMWwIQAACwxJAELIwIACBxBEYTgSd9ZznXLRvz95vSE7SkXqh1RIo0xgu3jXbgrBYKvX19vV/dH/3/qtqaT6MtfoIxJ51b92dv9jf3traanvxZLSVok3XoYjBuNenyfkT0ae9BEUUykPEpQpF+/0Yf4hhjhmr928UJE0xqXhekZdKPbRwwXEf+MV//YJehKOAyKEQgED1E0AQVr+NGCEEIDBJBGxv4cmLFn+rWCi8Ka4qOEl3nJrLWsU0TG9ByYWSDbbkRQVBsH0gP/DBXXv3fjveXNOMfmrMUq93cTtmzNg7o7WtQzxplqf5sLYPtnjL5XLGG6geQmkRoT0F7ee0qbyIR1nT2krCDg09Ui7heGFXXte8p3x/y4z2jg/e84d7/mO81+d8CEAAAtVEAEFYTdZgLBCAwKQTOFJo5MJjFjySTqVOmfQBTNEN4pA3KYwh3hgRhNFg1cZgfRg679+8ffNv46GYCquIwykyTB3eZt7sOY81NjQsrhRq8ZoyM9ZiMfLBhAg8zRW0c/3sEFJbDGqvQXlOvIl6vfGEhB7NDJa4NR+qRIOtJ/anU5l/2fDEhhuPdj6vQwACEKglAgjCWrIWY4UABCaEgB0yqhu/eXPm7mlpapopm0z9moKQtAmZT+VFdE7i7VRvjLhuTJ+2fOEHHc2Nl65/6KFdk3JzLpo4Aicef+L3nDD4OzvftrLlg/2ekoIykiuoOYfyPjOtHYLAyefzxhMoodvalkLFpKzfgYGBKRGE2ntUQ69FFUaO018uBx/d9tS2LyXOyEwYAhCoawIIwro2L5ODAASORED7D8o+b/Xq1e4N13/5gORBxaGVU5GfNJnGMftY3XgPbWqjKCwWCl+bfcz8d69bty4Q4TiZg+DaySBw1llnvXvfrt3XiYDzPM/k3Nl5q/rBinoAhUpjY6MRgfLQ40UQihiUf2tbChWLIgZFLMr3KcrxNfmDKgxlnEEUFQqFYteOXTs+Sy/CZKxtZgmBpBBAECbF0swTAhDQzafJmasMHZ3VMfNgR3u7EYSTGYo2FWZQASjzbGhocD3P0wIzpYGB/A0bNj6+UsvqxxvyISaIxKmwUH3d47WveO2p993/+wdlrWnfPs0J1CJNGk4qgk9Cl+V5+cBCm9KrF1DWpV2tVMWkhIrKefoYb1uJEVjACMI4nNoo11IQlPP5AanQ+8kRnM8hEIAABGqGAIKwZkzFQCEAgYkiYBeT0QbbHe0zujtnzqxpQWhvqoWV9E6T/MFcLheJ5yYIgvzAQP76xzdt/F+2h6MyhHaiOHOd+iagH6osX7489+v/urtfvH4i1LTHoHjyKnsDamioiDv5OfYqHib0Kj2HIiLVcygHimC0cxInObTbfJgi6rBUKoX9A/1de/fv/3h9W5bZQQACSSOAIEyaxZkvBCBgbz6HPGOzO2Z2z5gxo1WbZOtGdrKqGE6kGXRzLMU6xOMiYXWy4Za5WE3AZU/b39PTe9XGLZs+OpH351rJJGB9sOKeuPC4ci6X82TNSd7q0foEarsJWa/6JRTt3EM5RtayfI2kx+FEW0ELM8mHKXLtYqkUxYLwyom+F9eDAAQgMJ0EEITTSZ97QwAC00pAPRySQ/jla649UEuCUDbOspFW0adiUIGKINTiHPKaeF3CMOzp6ev94pObN6+eVvDcvN4IuItPOLHc3NxsBKF+QCGTlH+LmJP1J+vVFn36wYU8p1VH9XXN5ZXzpyuEO/4waNBDONj2Iurt7+va392NIKy3Fcx8IJBwAgjChC8Apg+BpBMQUbh69Wr/+quv2dfR0VFzHkLxAIpHRh52GJ0dZichfPIVhmH3wYOHvrjlqW2fSLrdmf/EEZD3kAjC1tZWTz15IqD0QwldmyL6ZB3qv+UYqRoqwlAftmexSqr9ai6hUyqXo77+vtV79+/nA5WJWz5cCQIQqAICCMIqMAJDgAAEpo9ALAjTX77m2j215CEUYtpWQjbaWsxDQ/G0OI58930/ymQybqlcPniw+8Dnd+3bR1GM6VtydXnnRcefUG5pafHVm2danBQKQ+tS8/7kwwtZrxoaKqJRviqLxETS5GEaa+CqMFVRKu81SxCKh3AaR1eXS4hJQQAC00gAQTiN8Lk1BCBQHQQuu+yy7He+9e097e3tLbWUQyi93CQMTzevMnbNHRxMx4r0d7zxcoRReLC3p+fzew4cQBBWx9Krm1GcdNzx5RkzZvga4mmvRTvkU9aqrluZvDab12Mq+xdONyA7l1hyCHv7+q/c3208hAjC6TYO94cABCaMAIJwwlByIQhAoFYJXHTRRbmf/PDW3TNmzKgZQSgb1aampiExKB4YCb9TT4yowbjohxxjfo6i6GBfXy8ewlpdqFU6bllbxx2zoDRr1izfWn/GOyheQvEWaj9BeV0EoYQ6y3PyAYYco4/KfMHpEojqGdS8RxGApXLZ7esfWL13/14EYZWuRYYFAQiMjQCCcGzcOAsCEKgjAitXrmz4v9/4110dHR01Iwhlo6rNvdUbI94WzeESESiheb7vuxIyGred6O7uPvj5bTue+lQdmY+pTDMBEYTzOmeXOzs7PUtAGcGnH1RocRnNedWWFBoyaq3baZ7N4O21PYZ8j0WqCEInX8hfuXsvgrAqjMQgIACBCSOAIJwwlFwIAhCoRQKymX3/8vfnvvmf/2dXLXkIpTiH5GOpJ0M33mIDbfgde2GiMAylUKJszg/09vZ9euOWTZ+vRVsx5uohoOHI6n2eO6uz1NbW5mubEx2prDsRg+q9lg8ptOqt/UFG9cxscCQybvFsisAV97p8sCIho339fVfu3b+/q9rGy3ggAAEIjIcAgnA89DgXAhCoeQIqCL9157/tqqUcQvFciIdQ+w5anoyhMFLtoyZzjDe2Bw719nz2yc2bP1vzhmMCVUEgiiLPdd3wmDlzo5aWFiP+RPRVtpGQwYo3UJ7Xtap9BuX5SW4uP2pW6t2U900Yhqb1RKFYjHp6+1Z3H+qmyuioiXICBCBQzQQQhNVsHcYGAQhMOgERS+9973sz//HNb0mV0ZoJGZUNq12xUb0aw/RsG8oljJzo4KGens9v2rKFojKTvrLq/wa2l/CEYxeGbW1tbn9/v/FaV4pCDcG016nkDkqYc7U+tNen5kWWyuVQBOH+7v30IaxWozEuCEBgTAQQhGPCxkkQgEA9EVixYkX6lu9+b297e3vN9CHUIh0SHqoFOqzS/VEQBKaZtnxpCwrXdXv78wNf2rx166p6sh9zmXoCsRiUPUS0evVq9/9+41+lyqgUEngnlwAAIABJREFUiHFF6Mma076DdqVO9byJEBTPoIqtqZ/ByO6o4xVBWw6CsLevv2vv/r0fH9nZHAUBCECgNgggCGvDTowSAhCYRAJdXV2pL1973b4ZNSQIBYeIPRGDGoZn9U6LyuWyqy00tBVAOpXqL5RK12zetvXDk4iTSyeIgAm5fv/7cz/6wS39ra2tRuBJ7p2KPfnAQpvR65pVMagVRIfxalcVQRmfCMJiqRT09fV27evu/kRVDZDBQAACEBgnAQThOAFyOgQgUPsEurq6vOuuuvrAzJkza8ZDaFMXIageQ9srKJpRcp9kk+55nlQdLZaLpese37Lpn2rfasxgugjYoaIyhje96U2L713/uw3SBkU803Y7CflZisjIBxeyNkUoimC0G9FXqyBUwaoftBRLpXJf/0DXvgP7CLmersXHfSEAgUkhgCCcFKxcFAIQqCUCIgivv/qaAx0dHTUjCNVr8Uybaa0AKbYQL40IwkKxeMOGJx5fWUv2YazVSSDucxktfclL3vTU9qe+1dzcPBSebHsJRVCJIJQPJjR8uTpn9OdRaZir1QdRwrDLfQP9q/bs2/fpah8/44MABCAwGgIIwtHQ4lgIQKDmCegmViZi/zyrY+bBjvb2VtnISniYPKYyv8negMq9K6su2h6VeOzmGD1vOMPoOdqiwnGcoFQOvr7k9FMvXbNmjfSiiPQ8m0XNG5kJTCqBSg/hWc856+YD+/ZeLEVldG1KmLKEhsr7qVYfQ9WYBicQlcMwPzDQ/7Hde/d+oVbnxLghAAEIDEcAQci6gAAEEkegckMrAGbP6jzY3tpqBKGVizcl5fAtL8Qz2mIYr8WwglA2stKIPvYKmp/j4jJSZuaHjanUZesfeGC7LYoRhIl7G4x5wrpWtOXE4hMXrS8W8s+XthPiCZSHegg1j/WZPrgY80Am/0QTcq0frISO09PfP/DRXXt2XTP5t+YOEIAABKaOAIJw6lhzJwhAoEoIDCcI582Z293S1NRWuYGdio2sbjjVM3mkMFAVquK5lId6CGNhN0Q3zhd0pdjMoCN0qA+heG0e6B/o/8CmrVt/bgvCKjENw6ghAioMZ8/q3NHa3Dw7l8t5WvFWvINSbVTeT9XWY3CkiK2Q69BxXS8Mw71BGH1k6/atN4/0GhwHAQhAoBYIIAhrwUqMEQIQmDQCuqk99pgFe7Pp9MxKMTbZgvCZri9NsfXLbuYtm21tJ6Gb7crryHlxSwrxckj4qyvn5fP5vb39ff+ye+/emxCEk7as6v7C+r5Zs2aNf+k737V73pw57Z64ot3BbUVlW4mpDL+eCPhxjm4k7xsjDB1H4qu3eCn/gxs3bvyPibgH14AABCBQLQQQhNViCcYBAQhMCwH1Fj5r0eIHysXiaSKktFLn0XL0JnrAtqdQxiHVGUUIVuYXyuZaNtzifVFvYeVYtOhMQ0ODeUl7w5XK5WJvX/+qfQf2fcYWhISMTrQ1k3E96eF5249+vLdz1qxW8UaL41rWpV1NVHv51ZqnMB63hlxHoes80D5jxhV/+MMf7kyGdZklBCCQFAIIwqRYmnlCAAJHJCBi6OznPve6fXv2vlvCLG1BOB3YZAzyJaKwMm9Q/61FO0QY2o/K6qP2+aa5drkc9ucLq3fv3S3NtYeKykzHPLlnbROQ983f/M3fzHz0T49sbG5sbJXYZHlO1qR+YDHVH6pMNNEoikLxfIZhGIVOdMdJixe/984773xsou/D9SAAAQhMJwEE4XTS594QgEBVEJBN7MvOP/9lGzY8dod45abToyGiTZt5a4l+zWsUgah5hnavt6P1cbOL1gRhGAVh8KmTFi/uuuuuu2q3BGRVrBwG8dznPvclhYH8bQ3ZbJMKQSkocyTPdQ0SMyHX8r4plsrfPPdF57577dq1vTU4D4YMAQhA4IgEEIQsDghAAAKO47zyla9s/eO99x1samoyXg7NeYoLSwijUf2+HEVF0CEvoJwjok/CPDVnUELv5EuFonoNZUADAwOmmqOdP2hXSD2SYYMw+HahXP7Qjh07tsoxwxXZYVFA4EgEdL3I68cdd9wn25pbPuBEUbpYLEqvvqGqnLVOMP4gxVQaDcKw1NvXe+PuvXsvt9u11PocGT8EIACBUW9wQAYBCECgngnMmTkramtrM7l5cTilyYkarRgcDaNK4fj/sXcmcHaV5f0/213mzkz2yR4gQEggbLKDImChoSil1ib/VorFqoAsfyu4W80g1qUqCoiK2lZrtUqqdaGxrdqkpSJqAqJsIYEkJJNMZkkyy93P8v//3jnP8OYwyUxmPffc3+EzzOTes7zv933vzPmd3/M+DxxKOITi+uXzeSX4wgQxShhCrEIkSrgoXkObR1K+QjmL1equslu9rb29/YfSVt7kHs2o1fe+KDeBz8ftt9+e/edvfHPDrFkzz8Vc9H1/oIBncjZ8/kUQFgr5wr37ujs/yFDr5Awwe0ICJDBA4KieeBMaCZAACSSZQMvMWd6MGTOQFEMlkkBfJcvgaH9fRhPCDJVYAwJPHEG4g2G5CCXwSqWSqu0m6fxFDOquIdqpr9k60hhB+FUqFa9crdy4r7Pz72VfqSmX5PFl38aPAFzCa/7gD07b9Njj329sbFzqui4+M4m6rzBNBAqoJYSGHwQH8oXip/Z17vv4+FHkmUiABEggHgQoCOMxDmwFCZBADAjMn9PiNzc3q3DR0BlQbpwUdj+aJopbN5wgFIEoLp+sH4yWkRBnENlCZY0W3ER8iSDEe8OtJ8S+ELye7916wStf+cC6des8isGjGVnuKwRWrlhxfbFQ/KRlWXPENRztg5O4UVVx4wMlNOQ+qSNfLn2kvb39/ri1le0hARIggbESoCAcK0EeTwIkkBgCxy5aXHUcx4GLFq4hHLgjNM0RCS09ZDMqzI5UdF72lTWEjY2Ng0k5xDmMhonCMZQwUhGEcBNHUO8NN7qB5/mfrQbex3bv3r0/CAIby6RYeiIxU3lCO4J5sm7dOuvmm27+4vRpzW8KfD9lmmbSwkXVZx5rdj3PQ2H63YZtDdYgZIj1hE4xnpwESGCSCVAQTjJwXo4ESCC+BF5x2unl/fv3O6lUCokxkEtCNRZuwUidDxGFIgCj2Rb1WoN6UXl9P4SNSvIYCSeFKwjBJ8dks1n1s/wb7qAUrB+OMI4plErPeNXKm/d1d/8q7CKKiitrlBsJDEfgLX/+lhPX/+dD32zM5c4xDMPCGlap4TncsbXyfigIkSgHvwOeWnjMkpt//vOfP1wr7Wc7SYAESGCkBCgIR0qK+5EACSSewKrXXP67p595eiXCMMUt0zMqjgQAbiLFvcP+EHL4ktqGEIq4cZYvKTwP4Ycv2Rfun9xg6y6hLgKlPThGCs8P10YRrFXXNSzbuv7klSu/vX79+kqYTRUimLUJh4PI942zzjhjzcGDPZ+wTHNp+NDEh0s4kpDlGsGnQkbDz79fKpX/6/xXXvim733ve3trpP1sJgmQAAmMmAAF4YhRcUcSIIGkE1j9+jfc/sgjP/9ULpdThajD/h7V70mINySFgaDDDSXEGpw7fMcGkSdib6hQVBGF+C7F6XXuenip1CmUjKNDJaw50pi5nnt/Jpdrfe6557qZOTHps/vo+qeHD0dDifHvBXPmvifX1Phe0zBmIvcSXEJ5qHB0V4rv3pZlqTIalmWV+nr7vvn2/3vrDa2trXTR4ztkbBkJkMAoCRzVjc4or8HDSIAESKAmCKxatWrBE5sfe665ublJBKHmEhy2D3riGIg4OIwSMoqDEHImJSKGEnlyYpxHQkRRYxAb9hcXEf+Wa2E/Oa8Urj8KyHBzzEKx8Ezatt+wva1ti9YGOoRHATKJu+qu+FAi7/Wvf/30X/3i0buzmcy1lmWlsQ8eeISOdiLuK8LPmco27AfBwd6+/k90dnd+MonjzT6RAAmQQCJ+cXMYSYAESGA8CLzyla9s3vn8C09ks9njQicOvyOPav2gFJAXISehopLsBTfN2MTd01+XTKMi+gqFghKAOEYEprwHEShhpiNIJHMInsAIAtNQ7qVnp5x3zZw9+wubN2+uMqnMeMyiZJwjFIV4buBLFloRikuXLv1D33U/mXJSJ4Wx1ao8y8DzimTcVoQPZwKEf7ue11F2q7e2tbX9SzJGl70gARIggUMJJOM3N0eVBEiABMaBwKWXXtq0d3fbw5Vy+QxZq4ebYISOjXQtIQSgiEKEhmrO2yGZSuGoINRT1vRJKKkeRqoXnx8qvHQM67WUC2jbttnb3/8zy7H/sK2trcj1g+MwiRJwisPMdcm467fMnv2BxlxjayqVcqqViiRAwmckMZlGxa3Hd8/zd86YMeuNv3nyN48kYHjZBRIgARJ4GQEKQk4KEiABEggJrF69uqFt9+4Hd7+463XpVEoSwaiC20cShHq5CZxK0tVLWQgRcyIy4e5JVlCpL4j3ouGmcP7y+fzLSl7o4lDLhDricQyFHzKp+sVy+UDFrS7t6urqo0M4YoR1sWM457E2UJUkQacvuOCC07o7uz/lViu/bw98LvCyCkEOoSTlvkJFBuDzWSwUt573yguv+O53v/si+sgHJ3Ux/dlJEqgrAkn5xV1Xg8bOkgAJTAyB9evXZ+675763P/74Y3dPa2pCQgncDA9bg1BfQ6jXG9RFnt5i3ERDEMIB1JxI9TPKSSBMTRyKvr4+dageihcVoEdDQyt7oVxP27aDYrny7l1tuz5zNOfhvskmEEkqgzhnJFMxF8ye+xfpbPrLmUzGCUOVwxruav2ryjSaBDLh589Lp9P2vs6Oxx/4ylcuWL16dZViMAmjyz6QAAlECVAQck6QAAmQwEsEzDPOOOPMfe3tP2nONc4OE8vAKTjiTa4uCEXg4ZQi3JBkBm6hrCcMi10PuoS64MO+EITyWm9vrwpBjWYXHe1aLdOwDKwhHFgaaaikGT29veWO7q5c2F4mleEnYrDsiqBAOOhVV12VevLxJ24zLfNTeHDheR6cQ8syLc+0TCUQk7KF63l9x3H83t6er7R3dd0cfqYldJafk6QMNvtBAiRgUBByEpAACZBASACuyDHHHLPANqy/sy3z9+F2SNbPkazXE1dP1hHqoaIi9KJOH5xCqT0oDiFCR7EhtBQho3JeXTi+7OneCJzMgWOU4xmgpj0EIUL9qp4X+NXK+S/u3buJDgg/Doerwbls2bIL3Er1q45lnYKHJZg7MsfhDtq2nag6hPiw+L5fyDXm/vTJZ555iJ8NfjZIgASSSoCCMKkjy36RAAkcNQHcCF922WXTu9o7/rq3t+cOuHr6ja84IFHHLnQOBuQWlFYozkT8SRZQnE8SzYhoxHsiCqWgvYSdyuu68zKWcFENiGROlXVSfj7f//xJp5xyyoYNG7ywH4MOiKwf4w3xUU+pmj0gIgrNVatWNbTt3HVLX1/vJ/U5XLMdHKbh+Jw5jhP09vX1n3XuOSetX7++Pal9Zb9IgARIgIKQc4AESIAENAKtra259Q89dOOe3W13Z7PZQMScyr8fhsRFwzX1TKEIB5UyERIiCqdPXEARhQPZCz0VDio1BWXNIZqD90qlkvo+TiJQH2e4O3JelR0yCIJ8X7FwcUdHx29EEEYS6SgEnCz1RUAyh5566qnH9/f0/nPKcc7Gc4+ROOa1TgqfzYO9vftuue3WxWvXrlUPSmTjw5FaH122nwRI4JDfacRBAiRAAiTwEoEHHnggdd99973+QFf3t3INDRaWSYUCcMh1hCLWou5eNDQUghBfEH8QhQgL1RK8qNexiUDEvhCE+trBcRwniEBcS2UaxU2/4zhuvpD/5vxFi27etGmTKkERzazKm+BxHIEaORXmxmWXXWZ17tt3Y19P7+cymYwd1hyskR6MqZlBvlj80U03v/31a9euVW46H4qMiScPJgESiCkBOoQxHRg2iwRIYGoIQAStXLbszLLrPWAaxjmhQyiJJAYTw+iCD+IOglB3BjUnYVDUwe1DZlF8x5pCWSuIfSWEFD9LSYqJStIRrklUa8Cg+sIkN75l2e19fT3Xt3d1/Uyjf0hx8qkZFV51sgnoIaPz58/PpSz7v7OZzFl15A4G+Kxmmxov37Jly3/x4chkz0BejwRIYDIJUBBOJm1eiwRIoCYIvPKVr2ze8+Luv/J9D8W3VVX6sED9ywQhHD1kXISo0hJsDIZ5ynpA6biEgkIASvZREYT4DmcQgnCixCCuodUhVOsEB8NXbbtSqbo/WLBowc2//OUv90cHiw5hTUzfcWukiKBTVqy4Kd+f/2wmnU6HYdCJv3fA57a3t9c967xzm3784x+XuY523KYVT0QCJBBDAon/pR5D5mwSCZBATAloLoDVMnv2XzY25L6ca2z0Pdc1XddVRaqj6wjh8iEEVBLNVKtVA1/YDyIR7+tOIPaD4CsUCuoYcQpxow0xCFdCjpX1ixOwXkuEoHIIQ3dSldfwg6Az35+/a193532hUB0MlWW4XEwn7gQ0SxzC1atX2z/7yU/b58yaNQfz2rIsSUg0AVeNzynRz4O9vT2d3V0zw3WUg0mW+GAkPuPElpAACYwPAQrC8eHIs5AACSSEAG7+IHyWLFzyl42NDV/KpNO267oWRBy2aKZRuIMQfOKySbinXo9Q9pESFnAJIQhlg3CEKJNzSzKaw9UaHKckM0FgBH7gB1YqlYLgVc0JgsDzg+BrpmPfumPHjpLcDPMmOCET/Ci7ccySJd/JOKk1EIPIulkvIaP47LlB8L0dO3e84SiRcXcSIAESqDkCFIQ1N2RsMAmQwEQSEAF09dVXn9je1vaJSrnyR1hE53meCbEHMaeLPb2+oISDQlxJqCjEGwQfRKG8huOLxaJyA6MhpRPZt5GcG8LP9/3ecqnykYsuedU969atU8XH6Q6OhF7t7SNjq68ZFPG/cuXKpu59HXumTZuWw374DEjtytrr6ctbHM51VUsx7BceyiASICgUCt4Jy086/+GHH34sCX1lH0iABEjgSAQoCDk/SIAESCAkoIeG4Wbx+OOOX5tryLamHEc5eBBwki0UN5EQc5IxVIrHQ+jpglDCPsUlFNgoOC9OYAwHAKLwh5Vi4T27Ozu34WaZGRZjOEpjaJIIwOgpJGx61apVuScee/yr06dNWw0hGApHSUQ0hivH59DwYQ3muhKFeKAjiaH6+vteOGbatFf8ctu2XqUWg4Gux6f1bAkJkAAJjB8BCsLxY8kzkQAJJICAJgrN5cuWvyedciAIM+ia1AuUpC+4idQFIfbBTaUUlMe/ZW2hnkAGr/f39ytaE7A+cEyjoLLnmKbq6//PMPPXruHfs2/fvjxviMeENZYHa64g1onKulI1BZYvW/bn5WLpM9lsdo6EEw9MV+UWx7I/R9uoUBD6ELzyOZXPo+f7/+oZwZ/v2rWrTHf8aMlyfxIggVojkIzf6rVGne0lARKILQE9hO7iiy5adfDAwb+1bftUiSvDzTCcQkn+gnITcP+0Qu9KFEp5Cd1J1NcKStH5GN5cK0GItlYqlSerVf998xbN+8mmTZtcOiSxnbajbli0nAJOdNxxx51ZLZfvz2UbzkNVklAsqqRD4haP+oLxOzB8BmKq7LvgUa1Wi9NnznrrilNWfOfBBx+EfajEMh+KxG/w2CISIIHxIUBBOD4ceRYSIIEEEQhvks0bb7wx+x8Prf/ctOnT/sK27TS6KO6ZiD44afo6QsEApwH7SMZQOBCSpVTWIsp6xLihkztk3Ai7rrehcXrzbU8++eQzFIRxG6nRt0dfF6qLwquuumrOU7/93Udtx/5zyzCz4XzHvYK4aInJMiqfZV3wIXFOvlD4jZVyVu/atev5KGGWnxj9nOORJEAC8SVAQRjfsWHLSIAEJpmA7gCEoaPGipNO+mDaSd3hOM70aHgnMi/CCdRDRyVbKBy20FUYdA9FJMId1IXjJHdzuMsNuCFGYFimhWQ6vuv5X8zksnds27ZtINUqt5onoIeLIiRShM7CefPemElnPm7b9pLAMHzLNJUzBkEoYaXhzzXPIPx8qvkehowO9DEw7ss2N9751FNP7R/KQeWDkUQMPTtBAiSgEaAg5HQgARIgAY1A9Abwj6/548u3bXvuXtuyVkh4p5SPwHesr4IwxCY1ByV8VASkHCcCEseNU+mIcR+7QbfE9yFkESsX+EHQU62U/2h3e/t/j/sFecIpI6C7Xfh5/vz556Vt59PpVOoiKS8RzgepRemHYjAR9w5a/c2BWNGBcPCgIdPwF5dc8ZrvPPDAA4Nh0nQGp2ya8sIkQAKTQCARv9QngRMvQQIkUAcE9NT7klWztbU1909f/8d7m5ub31gqFrMIKbOQlz4IVJHuwDBUDb9KuazCQ6VQvZSmEMcQYhD76S5jXEVhdKgHsqH6u3LTpp341FNPVaJrqbi2Kt4fjiOVDZGxO2/FebO7Ch3vMozgDtM0U/Hu0fi0LnxwAy2Iz7J6/lGuVH7tVco3tnV2/mZ8rsKzkAAJkED8CVAQxn+M2EISIIFJJBAEgYNkoWGCCRX3ef7551958MCBL9uGubBarQZhCQmVcdEIMy66Yfgo1gViiyaL0YvNy3txyzB6OMzS3gMH9j/b3dNzsuwXuiZghMQbcI+4xYxAVAxGQ0XR3EsvvTTbuaf9uv58/+czmUwqnMOJvz+wLMv3fR8Pd+AOqm+GYb5/nr/g3l/s/kUxZkPJ5pAACZDAhBFI/C/8CSPHE5MACSSWQHTN1DtvuWXFd777rz9obMge73me7TiOn06nLWQYxY1k6DQopxBOoISQShIZEYgSShp3cNFQVxGElmVVuw8e+ORpp59+54YNG5Rojntf6rl9esZccbzDuQ07zMP7d955p/Hd73znNV1d3T9qbm7OuK6r7gtimP123IcynOc+HH/0t1gsVYulwg3dBw9+bdwvxhOSAAmQQIwJUBDGeHDYNBIggakloK8bmtcy7yuNudz1tmXaYd2yANlFw0LWg79L4a4gaQzCR2XTb671YvS1dtNtGabvBX5HpVp5V7ax8V+2bt2KxZOSdVK5LFM7Yry6TuBwiWO0eRmcdNxxK/LF4kONjU0n4IGGNoZ1cX+gFaT3fc//oW+b79++ffsWzmV+lkiABOqJQF38wq+nAWVfSYAERk9gqLVwIgovu+CyRVt2PPt0Y0NDky70MpmMCVGorxmEIJTso7Jv1HUbfSsn58gh3UwsmBzIM7PF8713bN+166cIF52cFvEqR0sgsiZWP1zVEzz++OOXuKXyP2Wz2VeGDzDq7Z4A64FRHsb0fN91q+7a3e17Pg5QFIRHO9u4PwmQQC0TqLdf/rU8Vmw7CZDAFBEQUTivZe7WaU1NJ0AswU3BzWQ6nVZf4vbBIUSdQXkfTRa3UEQjXtPXFE5Rt0Z1WbVwcuAm+pFiofLO9u72X4/qRDxowglEyqgc8vf+tNNOm5vv7f20ERjX2ratis6HDy3E5U38/UEQBAgXxeJBw/P9bYVC6b37uvZ9X8JrJ3yAeAESIAESiAmBxP/CjwlnNoMESKCGCOilJyTZBL4vX7b8zdVq5e/ssDZbKpUKsI7Qtm31uxQ3lnAGIQhDl+GQXtdKVtHDDRWK1dmWJXXpgmq1urEa+O/au3fvYzU0vHXV1KFE4SWXXLL4xZ073+mY1q2GYdhqvuMrTJBUL4BCFxw1YPxy1f3nec3zb9+0ZVN3+Nll+HO9TAT2kwRIQBWa5UYCJEACJDACAq2trdY3vvb1amMuZ/meF9iOg3VzaoMLKAlldEewVjKJjqD7InID3/dNuITQwKVSeaNbKd3Wvn//U1HxoYvpkZ6f+x0dAT0sVA9zjIaLylhcccUVS57fuvU9hu//heOkmnzfV3MYc7bW1rQeHamX720ZJgqq4L/9ffn8Jzq6uj6jhXZTEI4VMI8nARKoGQIUhDUzVGwoCZDAVBKQG+xzzjrrX6qlyhsslFlQd+Co0RcM1CKsVA5JJjOV7Z2Ia0MwiIAIk8koBKVS6X/tTPr6nTt37hgwSpG+f0A/4t9cjzURozFwzqFYa9lFkT0Txi7Gwbz88stbtm/b9l7DMN9imea08PiJa1zMz2wGhvoMu573CyvtXP/8888/HzaZczbmY8fmkQAJjC8BCsLx5cmzkQAJJJgAbqzPO++8pQe7uh+bPn36NIhA3GjrzmCSnRZZP6gqeYdrzuAUBkHg9efzTxm2dVF7e3uRNQkn90Mggi8UfyphjL4ODu9f9eqr5jy9/al3m4Z/E5xBPSx6clsbn6vhaY5pWwd6DvZ88pLLX/OZdevWqVIcfIgRnzFiS0iABCaHAAXh5HDmVUiABBJC4Nprr532zBO/Xef6/hXQRShUr7IUet7g79Mkh96FiTgsJM9BMhIwQGIO/NzT07N/+cpT5m/cuNHVS3YkZOhj2Y2IQwjDS2V91WsQXnnllTOfe/bZd/qe/55MOp3CQwsKwoFai0Hgv9CYzV71xLPPbtVd71gONhtFAiRAAhNEgIJwgsDytCRAAskksHr1ant/Z+fqbVu3IV2/ValUEF6mFtQpuzDBiTnC0E+VlVErNwExrEQh3ML+vr4Di447duXZZ5/d9eUvf7k6VCmPZM6MqeuVLr4jDpd57rnnLt7ftf+uSqV8XcpxzOCl9Z9T1+CYXFk52/39Gy75vddcCXdQmiViOibNZDNIgARIYMIJUBBOOGJegARIIAkEdGGzePHiRaZhfDVl2VealnJkTCOomyRdUIM+RDDsQSSYSaVSSEqiVCKEYSGffyHbkH1LyXV/uWvXrlIolJmkYwI+CLpDqLmDas3g4paWE9NNzff5rvv7KcfB1VUoaRjyW9d//9V62CDIe0Zw8Y4dO34TrncddFgnYKh4ShIgARKILYG6/oMQ21Fhw0iABGJHQBeEN998c9OGDRve2tfT++lsOg13UFyz2LV7XBtkGoHv+So8NCyhgX77EIVVfeMeAAAgAElEQVQGwkZNs+r7fspxHJSk2B743keqvb0PtfX1qVT+3CaGQDSxzI033ug89NBDl1h+8PFMJnO2JPqBgysF6JPsZA9HWfrem88/0dHZ8YpwLqsHFgx1Ho4e3ycBEkgiAQrCJI4q+0QCJDBhBEJhaBy7cOGZXmB+KZtJnydF5nFRy1LGWZJ/tyqXSQccui3qfhppLaXgt+e5u0vl8rfcIPhKR0eHZHBUh0ZDSRlaOvYpC4Zr1qyZ9qtHH31DuVL526aG3OxI1ld1ESlBMfYr1sQZDpmvoRhUznZfX+G1nQc613Pu1cQ4spEkQAITSCDJNy0TiI2nJgESqEcCuntw/fXXZ3/2k5/cbJvWZ+CIhevqVJmFCJu6+D0bJpdBiQOliCGMoT1c1y1XK9V/s7PpzzY3N//6qaeeqoYiRbJhDuJieYojf6qGES7miuNXnFqsFv+P61bfns1mZxpwbrmJm620sDy06e/r69vb1TmdeEiABEiABCJPeQmEBEiABEhgaAK66yfCZeG8hdekUvb9jm0vClPVIyQPN51+WI4B4ijRiWYitFSR89AxxTpDbFirBUdmU6Va+fqe9vavBkHgavXx5BSDYprC8OVzMEwWo2cRVaixJxId/e/G/32lk3He6Zjm5ZZtNxrJdqlH/GsqfFCDeak+hwiZdRzH7O/Pf3pPR/u7R3wi7kgCJEACCSbAp4cJHlx2jQRIYPwIiDujuzQrVqyY3XOw56MZx7nJtm1cTN14am7h+DUg5mfS+j0YkqhiZ3Ejjv9Mw3R9f09/f/+/n3XuOXf/+7//+9Nalw5xVikIDx3saBbRUEzbpml6F198ccvuF3e/CVlEs+n08iAIsip017LqY13r8J+LQxx7cCmVSt12Jn3Ojh07dgx/OPcgARIggeQToCBM/hizhyRAAuNIILw5x804qtKb81pa3teYa2y1LSuN8guhO6jCIetJGOqZKy3LUu4gWMGRMQ0TiypNw0IyVqNcKpdfsE3jvS/u2fOjoYYmCAIldsZx2Gr6VBFBGKINzFOOP/6Yg/2FL2Qy6Qtt256hksagroRhqrqYED813fFxaHz4UELWEYKJXygUv2Wm7Bt2795dHIdL8BQkQAIkUPME6v6PRc2PIDtAAiQwqQSCIHAgBsObdPPCc845c19n5+eMwLgYLiFEIESQrKGrl5DRcA2hGgtJsiN1C42BsFn8byCk1jSDquvmew4e/NFZ555zw8aNG/MhT+Xm0CF8aUofrvD86aeeunbv3vY7Zkyb1ohcRmEJEJWsB8JQyyg6qZ+PuF0MNWHsAdc+QHbcQqHQ73vupXs6O1FqgqVQ4jZgbA8JkMCUEKAgnBLsvCgJkECtEZBi1dG1XOjHgpaWj6XTmXdkMpks3odTWG9p/SV7YygIJVwRN9wqfBFCULJbhmUrcINu9ff391Q9/y7TNr/0wQ9+0L3tttsq4X6IwcVBdX3Trq9dXbJkSXb58uVn/uaxx/9jenNzo+M4luu6qi6k4zh2tVrF2lVwtSuVihGGMdfaR21c2xsgVjkIIAhVvdBypfr1BsN/z9a9e7ulbuO4XpAnIwESIIEaJEBBWIODxiaTAAlMDQFNFA6KGwiWk0866U/L5fLHTcM8Bm6NiCO4EuExU9PgSbxqmLBDRejBnRJ3UHcLxQVUqWYGZF5g2ZZZqVYrnu8/8/8Nm9bGadMe/tM//dMDa9euZZFwwzAefPBB+wtf+EJzOV8+pa1993vcSnVVU2NjtlqtIjkKkvWAowrNFYc6dGuTXv5kRLMbCY1wo6McU9fzAtt++7FLj/2njRs3lkZ0Au5EAiRAAnVAgIKwDgaZXSQBEphYAihB8eMf/ej+adOmv9H3/WwoCFUJhom9cjLOHmZkNUrlct5JOd8olsv/vnjx4o2bN2/uGapQeDTBTzQDrAj3qaBzpBqU4pBG6wDqLmg4Z5CMJzj99NMbLd8/t1qtXtXb0/uGdCazdCCidjBx0VR0saauKUXnAa1cLj9WKlbf0nGg44l6d55rahDZWBIggQknQEE44Yh5ARIggaQTgAg48cQTVwVV9yumaS6WtUkSNprwQvVjHt5Q4KiMpPC7CoVC0NiY+1h/X+GZubOmP/rbLVu2R0WQ3NDr4lBvyFTd8EfFqAg8ZeOpPDvKsFL/1OZJmPtk4P1zzjnH2d/R8Qelinu649irzSA4LZ1Oq2NCJzBwXReuF/+GDzP7QuZqbaXvBR+oBO49e/bsKYx50vIEJEACJJAgAvxjkqDBZFdIgASmhgBu+tesWTPj4f/+n/VNudy5cCOwjlCcLymIPTWti/1VJZGMSjhjWhaUEwQPxE+/bZk/Llcqj8+YPv3Xp55xxs8ffPBBFeqniSvgVpGBUZE42T2XRENh+ZHDhmzqbdf3fd3rXrd0069+tcb3jWnTmpquq1QrizIDQlBKmRyieUNByb/jRx5o9aDBdd295Yp76559e74v82ey5wevRwIkQAJxJcA/JHEdGbaLBEig5ggsmr/oTdls+gHTMDJI+2/btixh4u/aYW7apUTHQOmEAXWnHEPPQyrIqu/7T5cr5f9tbmr6+bSZM9dv2rSpLzzlYNKZGAhCrB+VMVe6QwRfKOqi7xu33nrrrM2bN1+0e8eLZ9u2dbZhmldg/qRSKVXJQ9ZdaqGPyCiqBLEq6VFv2YtG91shqFTdfyhVyx/s7OzcF841ZrMdHUseRQIkkEACvElJ4KCySyRAAlNDAGu+2tva986Y3tzoeZ7UIuQ9+zBiEG+HZRKgpnzLNGXtJSJIhSPSRFaNwNiXLxaecFLOQyeccMITp59++lP3339/XrvEISJsMmfC4UKDdaGK9tx4441OT0/P0s2bN59X6MtfmUk755qWvSDw/SbUybMsy/Y8TzlbmqiEYzpggw4IwmgI6mR2tWauBU6e7+f7+vOtXfu7Ph1df1ozHWFDSYAESGACCVAQTiBcnpoESKB+CMiN5uJFx/xjyjKug8BhSN/w4y9rA0O3CyUqlCsWBEHVsizYZCpcEuUUAkSKGogs9bHf/mqlki9XKl227Xxr/uKF3960aVP7VJas0MNW1eBHkgqtWbPGeeKJJ07uOXDgLsu0VmbT6WbbcaYZhpEZ2F1taiGhBVVo23AB1d9pD08YsGhwoINwISEImbRomCkGXJ7n/4fp2+94fvfzW5XCHljLqdza4Wco9yABEiCB5BOgIEz+GLOHJEACk0BAxMDZZ5+d2/Pirv6mpqaBIuzcRkRASnWE9QqVA6ZiJgdu4CGIpK6eiYQqjuMYhh/gtcD1vUq5XK6UqxUvncpsnjVj2l2z58//+caNG90RXXwcd9KEhtna2mr+7Gc/m71r16539ff2XRcEQa6hocFpyGSyqjwJksR4viFpZkLhq9xS9FdCQ4VBKDIHQml9X1+jOo49SNapAt/v7+nr/1z3wf1rUa8xKtqT1Vv2hgRIgARGR4A3K6PjxqNIgARI4GUERAzMndOSn9bUlAs8FeKHG37+rp2A+aJnHg0dWSWUIBjL5bJy2zKZTGnmrFk7W+a0fMPOpL7z2GOPtYfF24N0Ou3Pnj3bu/rqq4PW1lZPsn4epqnm6tWrlSM3c+ZMa9euXdbvfvc7q1qtWs3NzXZLS4tz7IIFV7bv67huz969F/X29eV8z7NTqZSRzWaxnlSdVhxPWcc2AVjq8pRhmlalnbU6jIZpmM+XKqX37N6791/1EiYUhnU5TdhpEiCBw/2BIxkSIAESIIGxEYjcaDqvuvBVf7x7185vplMpB+GNyuLiNu4ERBBqa+oGs3FqJT8QYgrh5nu+D5V40LSs7mw229WQy72QdtJbHMd8oVAutxd7e3vLxWKlv1r1MpmMkUqlrHK5bDU0NKRmzpzZaNt2U9pJzzF8f36pXDq2WCweU6qUl1Qr1YWu581O27Zj2zZEYAAHU5U68GFKqSnA+oHjPgMGT4jQz8HPWOgom47jFPP9+W+ftPLkGzZs2OBJqKie6GfimsQzkwAJkEDtEOBNSu2MFVtKAiRQIwRWrlzZtL+jc1NTU9PywPeRJZPbJBIIhaJKSCOhqHqCFgnlhVCDm4g1eZ7nVXzfL5umWfENo2KZJmI2bd8wEN6ZtkwT6xlTjm1D2Kn1fbZtqwQ2cCexvC90/5RZFSaAUUJQ1gbqCPiMYFwnxMDiywGoal2g7/u2ZVl7envzb+080PnjqDuIfaaqVuW49pwnIwESIIFxIEBBOA4QeQoSIAES0G84r7/++uyjjzxye6E//5F0Oo0yAfxdOwFTRHcGcXoJw5TvCA3VXheHzleKDrUifV8dZNuOESCwNyznEAp4NWZ6KKJ0Qbm+htL52Gcw62d4XXldJcIJxQkzzU7A+GunVMzDkh/4vMGhDfKFwiOLjz3mtY8++qiUKBnMzEoxOLEDwrOTAAnUFgHepNTWeLG1JEACMSSgC77wRtM87bTTlu/v6vpWLtvwCqxr4zZ5BPTMpEolDPCHgzQo4pSVNFDHL3CclPrZ9z2Vx1RCPCHokNwFW+gAitmrhyfqohO7KtcwFJPKIAwdS/69ndgpMMg8XE9ayPf33bG3q+tL2udzykqSTGzXeXYSIAESGBsB/oEaGz8eTQIkQAKKgFbfDDGF3plnnjmj0N//3kq58l6EGTKJyMRNFK3QuH4RCSGUeg5Su0+Kvat94SQh8Uu1WlXZS/UNTmAYFipZTgcTn4Zjrr5BgITCUxmKofiMdph/byduCkhGWhMiHuI9n8/vb7St5Vva2rrDqN2X8adLOIEDwlOTAAnUFAH+gaqp4WJjSYAE4kwgFANKG6xevdr+1S9+9fuuV/laQyY7VxMQce5CTbVNQkaHarS2Rm8whFMX5RADEA7pdFqVsCiXy0alUpEQ0UP+NkooqOYSDlSMD91ECR/VS2WEIYzhsA8kleEcmNjphTENXV+j0J//5N7uzvcfLlybYnBix4JnJwESqC0CFIS1NV5sLQmQQEwJ6GnspfzEhRdeOGtvW9u7bdN6n+gBCAWEITqOg0QmkvQkpr2Kd7OGEoQi+iD08IWtVCophy+65XI5VdsQIgLvYz9utUVARDg+f3AH8b1UqXimbc3dtWvXAQq/2hpPtpYESGBqCFAQTg13XpUESCBhBCKCEEXn1MK1+S0tb0un0l9CWCL2QXZKz/MQioi7V5UJM2EoJq070bITuDBeg8iDGAxDOZXggwMoIaEiJJuamtS+EIN4r1gsqrZLTUOG+U7aUI76QuEYqbITCO/F+B/o6XnulttuPbm1tZWLd0dNlgeSAAnUEwEKwnoabfaVBEhgwghEC12LS3jisce+wjDtz/iBfwnsQJQ8sCxLuYMQIxQdox+SwwlC3R0UkRgWqz/EKYRDiHBR3SHEz1HnkSUiRj9Gk3FkOD4qeywetmRSmTc88/xz35fP4GS0gdcgARIggVomQEFYy6PHtpMACcSOQMQpVGUJ5rW0fLghk/1wOp1WN6xSpByNpyAc/yEUhxBiT2cM1nAK4QjiZxSfh3jEzxIyGhWD+vgcac3i+PeCZxwJgTBhjBpDPGjpLxS2TJ8544ItW7YMlpoYyXm4DwmQAAnUMwEKwnoeffadBEhgXAgMIQIPKXq9cOHCt6Qs+6Mpx5kHN8PzPAkdHUw2Mi4NqbOThCJAiYGoWEPYJwSfiEJBA+GH5DH4Lk4ixqRaraqQUYq+mptEqqwHHrz4vl/xXP+Dc/bMvWezsblacz1hg0mABEhgighQEE4ReF6WBEigfghcccUVC5996plPpVLOn5iGkYZYgSAxLdM3Aq4hHMtMGCpsFOdD6CfWbUoWUbwmYg/hoxCAcBKxj4wHXsc+et1IEZtyPB3dsYzWxBwriWNKpdKvPdNYs2fPnl1SC5JJZSaGOc9KAiSQLAIUhMkaT/aGBEggBgSi6wnRpGOXLLndtuz3mYbREoMmJqoJIvS0MhCqf3gdou9wTqG8H10jKKJPxKB8h1CEu8gtfgSQXtT3gw80Tm/+/JNPPlnAct34tZItIgESIIF4EqAgjOe4sFUkQAI1TGAoQXjaaaet2N/R9dWGhuwFvu8jHeJgfbwa7mqsmq67hZJhVMJK4QTiSzYRfSIGDycKZX+4h+IsxqrTddIYTfSj1iCW4eLzo0KuMXblSnWHafhvOe+ii/573bp1HhPK1MnEYDdJgATGhQAF4bhg5ElIgARI4MgEUKj+Fw8//K5stuF9hmHM8H1/cO0T2Y0vAQgEhIpKjUGEh2LTw0d1AXi4MFDsI+sL4QxK2YrxbS3PNgIC6uGJjJm2zhPGoDrc8/17nEz6Y9u2beuUYvQMFx0BWe5CAiRAAvgFSwokQAIkQAKTQ+DVr371adu3bv1+Op05PgiCqmVZKa5JGxt7PVwUIZ0iBuEGSkIZZBaFoJP38Lpwh5OI4yAa5XgRgngP++E9isGxjdNYjtbdwdB9V+GgIvxQw6Varbz97vvu+4c1a9Z44XuqystYrstjSYAESKBeCFAQ1stIs58kQAJTTqC1tdW69557vjl7xsw/CYLAYWH6sQ9JdP0gXMFsNqtOLGGjEHQQhRB8sqYQ37GJ64R9JPuoHKsnlAlFxuD+Y285zzBSAtFssiLUZfxcz/tBf7Hwnq6uruf0cw4Vuj3Sa3I/EiABEqgnAhSE9TTa7CsJkMCUERA34+KLL57x4o6d27Pp9HS4Tix6Pj5DAtEA50/WCkrmUAg9fCGrqwgIKUmBEFKV7dU0lVCU0hPyWlRssiTF+IzVKM6iwquxdhDRoZZl2aGb6xtG4Jcqlda2vXv/JhTtFsxDhouOgjIPIQESqFsCFIR1O/TsOAmQwGQRiDgV5qwZs7bMmTVzmYiUyWpH0q4jzpGUiYDAQ0ZRCfmE4yfOIERgKBiGzT6qrxcMhYg6VnemksayFvoTCnKIPRPuOsamUq0+39vb/94DvQe+r/UBg433BxYYciMBEiABEjgiAQpCThASIAESmGACyHgorgV+PuWUU64s9PY9BDdLnMMJbkIiT6+HEsr6QIhCEX6lUkmFgcL904WdZCOFwEN4KZxFEZU4J0SkvmZQX2/INZ9TMpUkIy/WBKrPEsbO9byq67p/Z6dTt+/YsaMUjjsy+A7YwdxIgARIgARGRICCcESYuBMJkAAJjJ6AOIR69sMFLXPzjY2NuTBN4uDvYt31YjjpkZnrIZwQCBCDUloC7xWLxcEC9DiTnjRGzqwLSYjAaDZRPbMlQ0ZH/xkY45FSYgIlJ5T7Z1mW6bru3nKp0rq3a99X9M8YncEx0ubhJEACdUeAgrDuhpwdJgESmAoC0RvWE45d+mXf994ahiHid7EKhUPbBiLiBu6Bp6KtcbvmkYSYuH34jnBRiEJJBqNnF9WL1sMxhHBU9evKZbU/jpNso3HrP9ujCOguoQoZdT33vxoc58YtO3duJyMSIAESIIHRE+DNxujZ8UgSIAESGDEBfR0hfj7//POX7dq+49GmpibUJFSCMBSDJtYWQrQwPPHweKNlI0QQQhTKJtlFJUmMrC2EGIQAVGvQKhX1Fc0oOuKB5Y6TQgAPSVRBessMjMBAgciDhUL+rr0dHXdPSgN4ERIgARJIMAEKwgQPLrtGAiQQHwJRh3Dx4sUNaSf1HTMIXqc5gcoFgT2IkDgKQlVrTiVzURZRWIRcH1XdIcRaQAg97C/1BSEGIfik5AT2kTWFOA/CRCULKXnH5/MSbcmgZW6aGFsTyWTSDdmrn3vuuWcZIhrfcWPLSIAEaoMABWFtjBNbSQIkUMMEtMQxuhNoHLNw4UW+569vyOWmeZ7nI0DUNEwrFDMSIlfDPR+/pkvYqIR7So1BCD18QfhJ6Qm4hJIkRjKDyr+l/iD2xWuyblDe57rN8RuzcTyT0oMIqfZ933ccJzjY1/e9laeufOPGjRvdcbwOT0UCJEACdUmAgrAuh52dJgESmEwC0QLZMABxb3v66afP7e3ef1cqnb5BQhaxNip8nzUKw0ESMSihnrrDJ66erP/Dv/E+nEB5Txd5emZSOIfiDlIITuYn4uivFYaMYmxNz3X7A8c+9YUXXngRZ6JDePQ8eQQJkAAJ6AQoCDkfSIAESGCSCETWETpr1qxJPffUM2/df2D/Z7PZrOX7PlxBS0SNuFaT1LxYXwahoBIOCi662NNDSuH44Qv7RtdhSukJHCsF63EucRu5jjCeU0DCgsPkP15fb+++to59i/SsvfFsOVtFAiRAArVBgIKwNsaJrSQBEkgQAXEI8X3RnDknWZnM5zOp9O+FTpgKFUVonIod5abcPgg8cf2kfMQhTzdN5BkxBzOFInuoOIr6fuIkQjTq6xP1khRcSxivSSfrBy0Lz0oCq69YuLKjo+M/os57vFrN1pAACZBA7RCgIKydsWJLSYAEEkjg0ksvdZ579rmbHNu6NzNQ+kCtM5Q1U0npsl72QXd8oqGaQ5WYQPF4qS8IHhLqKWsG8R7EIjZx+QqFglpXKJparjmUmEwK44T3QxWj7+/v79nb2TGTYjDho83ukQAJTCoBCsJJxc2LkQAJkMDLCcxvafmDTCZ7X8pxjg/dKfxu9hE+mhReRxKB0kddNIowhAhAkhgRfHD2SqXSISGjCA2VEFE5B0QjXEJuySAQGIFvGqbRXyj+7b7Ofe+HUxjW7lTlWriRAAmQAAmMngAF4ejZ8UgSIAESGDMBOB1Lly6d7pYqH02nUzeHYXEIf1RrCZO8SchmNBOo3meIPRGEsvYPghCbhIjiOwQhnEJxBOEOwiUUYTmU85hktknqW5g0xiyVyx2zm1vOeuK5J9rQPwm9TlJf2RcSIAESmAoCFIRTQZ3XJAESIIGQgCTGWDBv3h2ZdKbVtqwcboAl02gSQEVFmS7kIOLwJeUfJAwU/ZaQT4SMyvpBvAZBKKGfIprFJRQnUReEIjiTwLJe+4DxzZdKD843gjdv3rOnEApCVKJI9lOTeh1w9psESGBSCVAQTipuXowESIAEDiUQroUyVhy/Ylm+2Pe5dDp1ZVicPnFlJ6JlICTpixSRR5gnNlkvKAXl4RDiNVkfiAyheE93UHEOSTyDc0AwwiHkVvsE4JqXyuVu3/fWvO2mmx5eu3YtwqkhBr3a7x17QAIkQAJTT4CCcOrHgC0gARKoYwLiEN55553mF+6994O5xqZ3WabZZNs2ylAkhoy+PhCd0sM8JbGMuH4S9gnhN1S2UAhBCEIRkDhenEYpPI/jRDQOVY8wMWDroCOYD6Vi6QueZaxta2vrDh103L+oBEx0CetgErCLJEACE0qAgnBC8fLkJEACJDAyAggRPe+ssy47sP/AvYZpnqJnyBzZGeK7l75+L1JTTq0PxGsiCvVagBCIxWJRrQtsaGhQHcR+4iji3xCNeE2K1Yv4w3FgiE2/PtcSxneeHK5lnucFtmO/cclxx/3Lhg0b1KBSBNbeOLLFJEAC8SVAQRjfsWHLSIAE6oCAOIToKlzCez/3uU9NnzbtppSTymFdnax/i7pocUYjoksXf3pJRb3mnySNkeLwUigefYeow4bXEA6KtYQi8HQuIiL10FMIxaQn5YnzHDjatmHsXNf1HcexIAARJhqW4gzKlepPCuXiO7q6uraIEGTZiaMlzP1JgARI4PAEKAg5O0iABEhgigmIKMTN7sknnXR5pVL9e9/zluAmWYSPLm6i4ZdT3PwRXR7JXsQN1NcASqinCEI5Gdw92U/EpJ5xNFpPEHz0ovNJCrcdEeAa3wlZlLAoMBT86meIQohD33PvaJwx4wtPPfVURYRg+JlhyGiNjzubTwIkEA8CFITxGAe2ggRIoE4J6A4hBOG11147beNPf/bDhlzu4sD3VR3CqNNWS86XrBWEIBSBC7GGNX4QfSIU0U/dOcTP6KfsJ84hRCGOkbWCegZTCEick2Kw9j5MKq2uZZm+78t3H5qwWq3udivuLW2d7T+K9opho7U3zmwxCZBAPAlQEMZzXNgqEiCBOiGgh76JOJwzc84fTZ/e/E8oQQGBo6+vE3Eor8UZEwQgxJteH1CEH8SbhMRKKKgu+kQQ6qIwdI9etmZQQkYpBOM8G4Ztmx9+FpRRCIEYGEbgG8ED6Uzmw1u2bOkOM4uq/eRsFIXDcuUOJEACJDAsAQrCYRFxBxIgARKYeAKRm1xrfsvczunTps2EaJKtVhKiSDv1shLSB/RHnDxxOsU9hKCD84fjdMELUYzjRDDiXHhNksaIUMT3WhDKEz+bavMK2vxG/CjGd3+lXP3rG2++8ctr167F2Kq0u1KQnusIa3Oc2WoSIIH4EaAgjN+YsEUkQAJ1REDWQuFmV19LOK9l3geacg1/o4eLxlnwRDN5QuRJXUBJ9gIhKGJQH+JowhwIQqw3hDgU908vHYGfpUB9VAzWUjhtHU3zYbsaBIEKEVU7miYSyniu7/1bb1/f7QcPHtw+1AnoDg6LlTuQAAmQwIgIUBCOCBN3IgESIIGJIaA7g6HgC/B9+fLlzX0HDvai3AIEk+6ORROqTEzLju6s+lo+qQsoSWRwJjh8pVJpcJ2gCDnd0ZN+4rsUoz+c44frofC8uIR68h26hEc3djHZW817cf180+jt7ev7dHd390fD1yEWVc3BIAhsLDmlIIzJyLEZJEACNU+AgrDmh5AdIAESSCqBxQsWPptJp5eLeML3UPjg5jmWv78h1NBGuIP4wibZP6VQvPRD1hfqAg7CEfvhGIhCEZXiFIpjqhemT+r412G/VHZRtXzQNH9XLlXftrt996+iHBgqWoczg10mARKYUAKxvKGY0B7z5CRAAiRQIwRWrFhxUt/Bnt81ZLNp3Cf7vo+bZS9Mzz8QXhejTU94ExWEyBaKcFEpHSGF5KX5eqgnXD8RhdGyFJJkBu9zSw4BlJioVqsm5oVtWfkDBw98/tLLL//gunXrVCF6biRAAiRAAhNHgIJw4tjyzCRAAiQwJgIIG+05cODnTWrpVcUAACAASURBVLnG05COPwyRU6FzcXMIIdT0NX8QcpI9VF8jCCB6kXo91FTcRewDAYkQUxyrl5mQZDL4rp9nTKB58JQT0NfKOilnV19v7xv3dHT8HA1jaOiUDw8bQAIkkHACFIQJH2B2jwRIoHYJnH322alSofDO/v78XY5lIf5SX2cVq46JmBOnT3cCRfTJOj8pD3GktX4QfFKDUDqqh43KuWIFgY0ZNYFw3mB+B6Vq5ZEFCxeu2rx5c2HUJ+SBJEACJEACIyZAQThiVNyRBEiABCaXANZKzZ49e3FDJvvtXDZ7YSikxB2M9e9viD2IQoSOQrwNJf7QH/kCWSk/IQISglDWHUaPF0dpckeEV5soAhhPz/N8w7LKhVLxz9rb23+Ia9EdnCjiPC8JkAAJvEQg1jcUHCgSIAESqGcCEIRnnHFGrq+n5ybf9z/lWLYSVtHMpHFgpAs0/WeEjorQQzv1IvJSW1BcRYSYYn/ZisWiyk56yIa/Wson5ZYkAqHwMwvlcufMWTMXP/nkk1XpH0VhkkaafSEBEogjAQrCOI4K20QCJEACIYHVq1fbv/71ry/2ytWvZrOZ42XtXBxF4VCDBnEoX/I+BKCEjWo3/WrNIQShlNXI5/OH7KfXOuQESR4BCL+efP+9t9xyy+2tra2H1OVMXm/ZIxIgARKIDwEKwviMBVtCAiRAAkMSWLx48Sw7MD9g29Yd4Vq9KUkqoxeH15OA6NlFjzSE0WNkX4SUSjZRCQ2F8IVDyELzifpQoKKEifGWupraulCVZdRMOQvf/OY371u7di0eJPiJ6j07QwIkQAIxJUBBGNOBYbNIgARIQOqtPfjgg/bNN9/85oZM5kvZdMYK3bVJ//19OEEnBeWj2UN19y8q7CQJjYhBhJWKk4j+Yf0gvphJNDmfg3CdYGBZlpq7yJyLn8OHAEG+P//ins59S8NShGofhosmZ/zZExIggfgSmPQbiviiYMtIgARIIF4EgiCwwxVzwcknnLCsUvU+YVrmNWHx7in9/R0N3xzq3+ENvax7HHSFJMkMks7I+kJdDCKRDGoWSuhovEaFrRkLgSAIfNM0oQIHBSHmuOu6geHYV23fvv0/tZIqUmplLJfksSRAAiRAAsMQmNIbCo4OCZAACZDAkQnIWkHcQM+aMWttU2Puw5l02oyuwZsMjhLmF00gI8JP1gaKOJTwT/3fcg6sFxRXUNxDfIcQlKL0EIxT0c/JYFnH11BhoxCBcAchEPG9L59/2vW9C7u6uvqCIIBgVOGi2vxnKqE6njTsOgmQwMQSoCCcWL48OwmQAAmMmgAcQtM0vfCm2FyyaNEtKSd1l2WazajvPuoTj/JAqf2n1xrUM4hCvGHtH77L2rDwpl5dUdaOQSiiHAXWDUoxexyDjKIQhDiH7M81hKMcrBgeFg0FDUOi0VJEj37ktSuv/sS96++thPthftMhjOE4skkkQALJI0BBmLwxZY9IgAQSRkBckjVr1qQe3rDhnoaGhrdalu1Mdjf1tYKSBCa6xg8CDoIOLh8Enu4Sor16PUEpSSHHYH899JQho5M9whN7PVk3KmMMFYgHAoV8/gmvUn59+8GDO8IHCMohpDs4sePBs5MACZCAEKAg5FwgARIggRgTCG+KcYOsnMLjlyy5xbTsD5mmOXeqmg0hl8lklLsnIZ3RQvF66Ke0Uxd7Ig5EIIqrqAtGlpmYqhGemOvqgjB8OIDw0cD3vbXpXO6eLVu29IWCMFwmq0JL8TOzjU7MkPCsJEACJKAIUBByIpAACZBAjAnIeirJOHr++ecv2/PirvvT6cxlhhE46iZbFatHvfbgEAduvLsFsQZHUMI9cX4JEcXPEIiSHAbtQpZQOIX6JiGgevipiEA9i2koGMa7CzxffAioNYSVanV74HvXvbhnzyPhAwCuFYzPGLElJEACdUKAgrBOBprdJAESqD0CIgLFNZEeLJw//x0N2YYP2ZY1y3O9wB5IzhH4LwnCEf9uPxoXDvsiGQwEYVhCQK35wxfEIN4ToQfHT7KFhu0/JHxUdwJrb2TY4jEQUK5gmFDGdF3vs/t7D/5NX19f9xjOyUNJgARIgATGQGDENw1juAYPJQESIAESGAUB3R3UD7/grLNObtvb/lAulzvW8zyVw9/3UfHbVMIw3Hd0v99V/seXN1bWDzY0NChBiMuI4BPXUBxCuIYiFOVMsh5QzkNBOIoJUeOHYM0gkhCF9QetqutWy5Xyza969av/Yd26dQOZhLiRAAmQAAlMOoHR3TBMejN5QRIgARKoPwKSVENfR4XX7rzzztQD99//yaam5ls8z0uFoZZwXZRQG8lygOh6PnWQOfSfBL1shJSL0BPBSLZQnENCRcU1hHiEQETCGFlvqJ+PWUTral4rZxCCEFPFD4Ife0bwnp07dz7DAvR1NQ/YWRIggZgRoCCM2YCwOSRAAiSgE4i6hHLjvHDhwjkpy3kh5diNcAnhzg3osWBE5ShEiEVFoC4Uh0rwgmQyEIAi/rC/OIMQffiSOoISXgohKI6hlKOI1ijkqNcFAZSRgIuNhwRV1/X+5sQVJ/3Nxo0b3broPTtJAiRAAjElQEEY04Fhs0iABEggIgwHf19LnbZpTc27F8ybN9/3fRUqKqkZw+OO+Ptdd+Z04acLteg++DcEIb6iWUVxzUKhoAQhBCJCA/EVClUlEvEVdQSPZg0jZ0RtEwgdYl9lpw2C3/Yc7HtXd0/3z/S1srXdQ7aeBEiABGqTAAVhbY4bW00CJFAHBKJJZaKFvc9YccZJ+/u6n27IZGzXdaWIN3ShcmGG2kSASUF4hHMerlagZAyV88ixWEcoJSdEGOqCT5xBqVEIkYiMo3AJuXawDibuYbpo27bvui6WvJZ8z/v89t273l2/NNhzEiABEogPAQrC+IwFW0ICJEAChyVwOBdlzqzZlenNzXa4NkucQpznsL/f4dwh7FNCOfW1fRBx4uxB9GnrEpWgg/CTshN6iYnDhaDKNcQdHKrcBIe9XgjgIYXpp9OZ3fsPdL9/X1fXt8IQZ3mYUS8g2E8SIAESiBUBCsJYDQcbQwIkQAIjIyAC8filS3/kV6qvVQIvCMwjpRiVOoJSVB5XEvcOTiHEGs4jZSWiLcHxEIX6vkOFjoqTiO+ydlBE58h6x73iTOBIYb6He09ba1q1U+nv55pyb9u0aVOvenJhDk7bOHebbSMBEiCBxBKgIEzs0LJjJEAC9UDgildfsezJp594tHla8yzP8wYq0x8mXBRvwf1DSKdeBB6iEMJNLx+hh5zqAg/7QBDC8cM5ICDF9dMdQwhAOS/FYD3MxEP7qDvGMtds2w5STqqjVCm94/kdOx4M59Xg8tf6o8QekwAJkEA8CFAQxmMc2AoSIAESOGoCcAlXrVqV275t2w/cqvuaUJAd8fc6wkAh4iAM9fV8EHnYJGMoRBy+cNMOwSfrAeXmXsJH8bqElsp7OBe+5Pij7hgPqFkCR3IP0+l0kE6nn+gvFVddd911XWvXrh1c6EqXsGaHnA0nARJIAAEKwgQMIrtAAiRQfwSkRuGaNWusp598enXPwQNfzDU0zFAu4cB22N/vEHAIC9XXCOo38uLuiaiTdYU4RgrMY/9SqaRcQHEGRWCKmJRRYSKZZM/PkdaVzDU2Vkrlyl9vfX7rpzUHkQ5hsqcHe0cCJFADBCgIa2CQ2EQSIAESOBKBM046Y9H+wv7PpxznD80gwO/1YX+3iyiU5DLiBOI64v6JayiCT7KLKrVpmipzKL6OtLGsRH3MXXGRwxqDylmOPghoyOV6Sgf2L9u6d29XlAodwvqYJ+wlCZBAPAkMe9MQz2azVSRAAiRQ3wS0gvXWVVddldq6Zeu1pVLx7zKptFKEgaG+HXbDDTvCRpFgRsJBZS2gCMLo2j+IyMbGxkGXUC81oa9JFMFY3yNUP72XtaSYT5gzmBf4LuHHIhLLrrtxd9vuy0J3G9VR/PqhxJ6SAAmQQHwJUBDGd2zYMhIgARI4IgGtFIW5ZN68lXYmc2/KTl3qed4RozRFvOGmHTfx4vzpiUBwUw/3L1rPsLm5eXBdIYQjwkaxTzSJCBourzNkNNkTGQ8S8GABX5hTmBP4DvcZolAeMJTc6uzdu3fvD+eGKpcZ/TnZpNg7EiABEognAQrCeI4LW0UCJEACw4lBFPj2xW1Zs2aN+ejPH73RtozPO45j+r4foDYhToJ1fqlUyguCwBbhpq/7kuyiuIGX16P1AyHqEEI6ffr0wXZBMEI4cksuAX1dqJ5FVi83gnkjTjPmHWhICKnv+6o2ZndXV9+u9r0vTZ7kImPPSIAESKDmCFAQ1tyQscEkQAIk8BIBcQnxfcHcuW/IpNL3pzOZFgg73IwbhuHbtm1BzMGRgS2Do/UbfQkfleyjckOP73B3IPxwPMpVYB/Z4ATh9aiLyPFJDgHd+ZV5E32ooD9Q8H3fx4OIUBiq6Yaf9+/v/ljbvn0fSg4Z9oQESIAEkkOAgjA5Y8mekAAJ1BEByTIa3qTDhLHOOeec5q59nXfZlnmrYRqBZVomwkcty1KuTVhqwpTsonhNzyiKm3eIPr3MBN6XMhJwgcRBxGvFYlERpyBM9sSLJojBPJH1phIWjDmF+YFagyICQ1fZyvfnX0zlsqdu2bKlL9mk2DsSIAESqE0CFIS1OW5sNQmQAAmIGDtkLdaCefPuaMg2tNqWlQuFmno/dP+UGIxu2A9OIEJLsaG8BMTj4TbsL2sMRRhwOJJJQE8WhJ8xLzA/MO6YLzJv8O9wLSoeTignOnSj/YMHez577AlL/3rjxo2lZFJir0iABEigtglQENb2+LH1JEACdUxASyozKA6PW7jwFb5hfSaTSV/suq4NIRjWHAxs25YQPtl/MHRUMkEiDBQ39zhODw/V14whhBRCgM5gciffUKGiEIOSKAY9xz4QhZgPmDPIQIuX4R5L5lrP918wjeDa3z799K9U8ltuJEACJEACsSNAQRi7IWGDSIAESGB4AhIyCvcv/NlCBCiE29zZcz7R1Nh4m2mamVQqZSKUL3Rr1M16KCTVTbusJRQBgBt8uH94XYrXSzIRCS+FAMDPctNPYTj8eNXiHjKuGGfdGRQxiO+YL3iIgC1cYxqEa1dV+Gi5XPq8mUq1PvnkkwdYa7AWZwHbTAIkUA8EKAjrYZTZRxIggUQS0GoRDv4ux0336StX/mF/b9/dlm0fn8lkAsdxLNzUe54XuK5rirsXdXzCtV/K8cE+Urxe6svhtagzyMLziZxahyQdknqVEkYszqAeZiwPFiQkGfPQcZyCbdhvmjl/zg83bNiAWih0CJM5XdgrEiCBGidAQVjjA8jmkwAJkECUwNVXX537+cMPf3727Dl/1pDJZC3LQgFwy3O9oFAomoZ2Xy415KTkhO76iNjDe7j5150hUk82AX3tIEJBRejpYhBuMzZ5kDBABM6xHViWbQZ+8M+2kf7Aszue3ZFsWuwdCZAACdQ2AQrC2h4/tp4ESIAEhiRwwgknvMbwg681NzYuRgjfQM1CwyrkC0ZgQB++lB0Ugg/hfrjpl7BQKS6O/fB6WLaCtOuAgO76QuxBEIoDiHmAkGKEiurlJwYy0+KWAhHMhlGpVE3P9W9q69j7lTBEeUA9ciMBEiABEogdAQrC2A0JG0QCJEACYyfwjre+dd53/+3HP21pmbPSNAxVF873PL9YKtkQfdjEBcJ3rDPEmkE9uYyUFNATyoy9ZTxD3AmIIJTyErlcbvABAoSglBuRNaj4jocGAy5igLWlQalY2pUvFv7qrTfe+IPW1lZfwpvj3ne2jwRIgATqkQAFYT2OOvtMAiRQFwQWL1z4xpkzZ/2dGQTZMDFMEBaaRyaaQQZSf1DWiOk1BrGTCAQmj6mLaTMo/kToQRDKwwEIQnEHIQAxZ/RSJqhDj6nlG8Ene/v7P7Jjxw6WmqifacOekgAJ1CgBCsIaHTg2mwRIgAQOR0AykN55553mP37t613Tm5tnhGGjKiQUgg/CUNaAwRmU2nJ6jUFxEfUyAqSefAK6Iwyxh/qCeiF6/SFBNNMs3MGq6+4qlYrv3/rCC98K90UGXNQmZFKZ5E8f9pAESKAGCVAQ1uCgsckkQAIkMBICra2t1pe/9KWvzp3Tcr3m7qnf+xCGEjoKlwc39vi3CEJJIiMJQ2QN2Uiuy31qn4AeNopwYn2OSBkSEYbS23COVDzX+3ahWn7Xtm3bOqVWJkNGa39OsAckQALJJUBBmNyxZc9IgATqlIBesP7ss8+e07m3vWPWrFmh4WceUlBev/GHEyh1CCEOKQLrdAKF3cb4Y04g6RAcZIjCaJkRCSXFfuEDhu5yofixF9p23a3Xyqxvkuw9CZAACcSbAAVhvMeHrSMBEiCBURHQb8YXL1y0tTGXOzHlOOrmXl8LqGeKlAySzCg6KuQ1ddBIEwVB5ElheghCcQfFOQ7XEyK1qKl+NoLH3Wr1hl17924SIPoDipqCxMaSAAmQQJ0QoCCsk4FmN0mABOqPAML0kEx02dJlF1e9yn9mUinHcRxTMkKKKMBNf7SUQP3Rqr8e6+4wej9c0iDJOhqSCiTEeCBhrekbgVEolksPHLP0uA898sgjhyST4frB+ptf7DEJkEDtEKAgrJ2xYktJgARIYEQEQndQFYXDAWeccUauv7dvg22a56L8hGVZuIEfzBwpQkDcoBFdhDslhkC07mA0A62EhUqHdXcxTDajyko4jr2zWKiu3tW+C+6gcg1FCNIlTMx0YUdIgAQSSICCMIGDyi6RAAmQQOj42KZpepdeeqmTz+ff1rP/wP3BQDKZQ373Sxhg9MafFJNL4HAho8OFkoZiUT1UgOIToYfsom6lsuHYZSdeuWHDBh+OoYQtgyIdwuTOJfaMBEig9glQENb+GLIHJEACJHAIgTBU9JA0/yeeeOJiKzD/wUk5l5eLxcHkILpTGN64k2YdEBAXMJoxNJo0JnywMFSCIaUGLcuykIXUsqzecrn0Z1uef/7HFH91MIHYRRIggUQRoCBM1HCyMyRAAiTwEgE95f8111zTuHP79purVffjXrVqalkhBxOFyM0/GSafgP4gQE8UM1QosU4jfB+hyCrsGEmKGhoaglKp1P70c1sWRUNFwzk1GDqafLLsIQmQAAnUHgEKwtobM7aYBEiABI5IQA/VC12/ADUJv/3tb1/sVqrfNHx/ke4QDZdMhLiTR0CEnySKkTqD8ro8MMD3yFyBGFSCEK8jSVE2mw3y+cLHzzrvnA8/+OCDIhY9EYNCj85h8uYRe0QCJJAMAhSEyRhH9oIESIAEDiEQrQGHf5988smzyvniB0zTuD0aKsiEMvU1gSQ0FPUF4fIhOYwuEvE+xGC1WlVf0VBSiLuwVqVpmGa12Qjm/mbHjoPRdYNMJlNf84q9JQESqE0CFIS1OW5sNQmQAAkcFQG5UV80d/5fOunUlzPptIWbfN/3fawDYyH6o8KZiJ2l4DzKkMj4R4UfXi+XywZqDEY25QRCSPb09f22o6vzjERAYSdIgARIoA4JUBDW4aCzyyRAAvVL4Jhjjjnb8v3P2LZzCVwe1/MM27JwYx+EBen5d6EOpgfcwIaGBgNiEBuEn9QVRPgoNnGRIQhRp1ILLVbZRSEGq9WqW3X9P2lrb/shQ0LrYOKwiyRAAokkwD/8iRxWdooESIAEhiawcuXKdEd7+50N2Yb3ZdJpiADl9EATmKapXENuyScAdzCbzaqOYswh+BAaCpGH1/EdXxCJpVJJvS8iMXQR4SybfX19zy6a1nzh5hde6GF4aPLnDXtIAiSQTAIUhMkcV/aKBEiABIYkgJv2pUuX/h8rMD5uGsZxcIE8z1N15SAKDcOwiC75BCD64A6K6CuGpUhQQgIOIeYFNghBfMn6QgkthRs48PDA/PBVf/i6T913333l5FNjD0mABEggmQQoCJM5ruwVCZAACRyWwNlnn53a8cIL9zQ1Nr3NtizLtm3L8zzPNM2B+EFuiScAQQjhB1EIZxBhoZJgBp2H8IMQhDsoriFEIfYLlaDR39//rFcxruns7dwaBAHmDlxmWsyJnz3sIAmQQNIIUBAmbUTZHxIgARI4AgFJLrN44eJ3ZlPOBwzTnB2KAte2bYcho/UxfSD+IAoh8pAwBgIQ80CcQBGJmA9hrUH1nqwnHAg1Dj4ys6Xls5s3b+6pD2rsJQmQAAkkkwAFYTLHlb0iARIggcMSgChctWrV8meffOormUzmItd1Tdu2TWQcxTpCoks+AbiDCA+VchN6/UERg3hNQkixHzYkHiqXy36xVDrge8aatn1tG/SHCHQIkz932EMSIIHkEaAgTN6YskckQAIkMCICC+bMeWe2Ifchy7Kmh2sHJcHMiI7nTpNLQC8JIT+LoINQ0zcRaeL6Rd/D+xB7cAnhDuJ4CR+FY+h6np9Kpax0KoX1pQgTxQMDlYkWYaSuW/1ioVK5q6OjY1+4ntCkGJzc+cCrkQAJkMB4EaAgHC+SPA8JkAAJ1AgBCRs955xzluzdtes/GxpyJ+FunrUI4zuAIvD04vEQcAj9DMs/HFIaAq/BBdS/h3UnBwUgeotwUOwnJSfECdTmgo81plg3OCAEXcOtVvOeW73lxfb2bwRBYJmm6THDaHznDltGAiRAAsMRoCAcjhDfJwESIIEEERAxCDentbXVuv+e+z42Y8b0d/q+j+JzDBeN6VhHC8ZDDMLh0+sIItRTykNAKOJLNskaKv/G+bA/hB8EodQexPvhvio5DPbDnKlWq361WlUPDTzX+2mhWn73vn37fqvjokMY08nDZpEACZDAMAQoCDlFSIAESKCOCIggDLtsLlu2bGEpX3gqm8k0hS4URWENzAcIOEkKI2JRMoNKOKi4fSLsjiQK4RSKuAy7L8lETdd1g3K5rOpM+EEQVKqVT55+5pl3rl+/fqA4oUwmZhitgZnDJpIACZDAywlQEHJWkAAJkEAdEYgIQuUGzZk56/FZM2eeHoYN8u9CTOeDCDoJ5xQXUBd6Evop4k7CRKNrDvFvCMYwSYxyAqUuoXQ/PFatG5Rrup67vVQqvXdvR8d3sZ+4gmHoKOpYciMBEiABEqgxAvzDX2MDxuaSAAmQwHgQkDVfuJFfsmTJSscwfxtxiMbjMjzHOBDQw0Uh/nTRh7BRuHvYZD99naEUlhdBh31xjOyD46SURCjw1KnC8+EeIUDyWdu2Ifa8UrH09bLvvrOjoyMfdk0tP9VDkcehyzwFCZAACZDAJBKgIJxE2LwUCZAACcSBgO4Shg6P2TJjTn7W7BkNSBrCLV4ERLxB1ElWUb3UgxSZD7OBDgpDyQgqYlCO0Z1FPASAaCwWi+o42RAeCqVnWRbWDlrYLwiCfX35/rs6u7vvF8GoOYTMMhqvacPWkAAJkMCICVAQjhgVdyQBEiCB2icwlJOD15Yff+LXXM+9DqICAgLRgLZtwx1SSUWi689qn0Rt9kAXbWqQTFN96SJPzxYLoYfkMbKfiMqGhobBQvQQjoVCQQEJk8ioAQ/DSj3f923HcQLX9TZNb575tsefevyJ2qTHVpMACZAACQxFgIKQ84IESIAE6oxAKAr13/9BS0tLU8owX2yeNm2667mBaZgoNSBrywYTjNQZqlh3V19TCCEPUYiQUHEKReAhJBSiUN9yudwhbmM+nx90CENH0g9LkeDBgOEHQW/3/gOfO9h7cG2sobBxJEACJEACR02AgvCokfEAEiABEqhtAlg3iB5g7VcoGswlS5ZkncD8tmVbV4dCQ60fw5dlWRYyTVqWxb8ZMRx6vQg9RCEykEqYqSSOQVgowoF1h1Avag8nUXcWAyOAILRMw1RxpJ7nby171Wv27NnzbAwRsEkkQAIkQAJjIMA/7mOAx0NJgARIoFYJRMtPrFmzxtz27LO/393V/Q/pTGZu+D7EgPydgHhkSYqYDLiEgOqhoNHso9JUcXpFFEIwQjhKEiE4iPjSN8lCqhLGGIbb09/3lc7Oztsk4UxMMLAZJEACJEAC40CAgnAcIPIUJEACJFBLBIYoPaFyiCxbsGCO56TvtmzrWvRHslbiPT0MsZb6mrS2QgBiLCDqxOGTsYIDiPWA2EcK1+v9l/IRUl5CMpZi/WC4bnRwd0wIqWPo+X6+r5A/p6ur6zkKwqTNKPaHBEiABF568ksWJEACJEACdUJAE4QqLFQyRd52222Zh37wgzW+53/VcZw0cAzkFgkG/sfMMlM6Q4AfQlC+9PISuiiEMMSXrCmMDpuetRT7Rd1BrZMYc6M/n9968aWXnLJu3TpvSgHw4iRAAiRAAhNCgA7hhGDlSUmABEggvgS0pDJKDGo1Cc1j5h1zvJ02Pm3b9jWhcKAYjMlQQgiihiC+S8H5ocQenECpP4hsolKnMNoN7INkM9hfssvq55PX8uXSa9vb29fHBAObQQIkQAIkMM4EKAjHGShPRwIkQAK1TOCGG25IPfTDh27MpJx7kURGio6LOKzlvsWt7Xpx+KHaphekhziTeoOyVhBCDvsgBFTWEkqCGXyXUFA5Thd7pVJJCUEpci/vaWHCEJ5BX19f6cxzzp65fv36iv7wIG4s2R4SIAESIIHRE6AgHD07HkkCJEACiSTQMmvWmkwm+8WGbHaW53kqsQwKlEt20kR2ego6JeJL1vRBoOELm6zfE/EHZxBOnwg3CfWUrKF4L1pyAudCOQmcS47H/nAFJePo4bqNBwG2bZv9+f6vtbW3/6W4yFOAiZckARIgARKYYAIUhBMMmKcnARIggVoiANG3Zs0a51ePPLrWtq33O45jegMqxa6lfsSxrSIAdWdQkr9Ey0Og/XrpCHH55Bxw/yDqJNkPziMlJ3CsOIUQhBCBeB9feF2cxSOIQbVfuVw+UKiUj9u/f3+vhBlLqZI48mWbSIAESIAERkeAgnB03HgUCZAACSSZgDl3zpw7MulMazqVagjLTbDsayQN9gAAIABJREFUxBhGXDJ66qGZEGgQelL+Ae/BvZPyECIK8boIQrwGgdff3z8YJioZQuV8ssYQ+0rYqAhE6YIejhrtlrSxt6//X9MNmWt37dpVCtsyuN50DCh4KAmQAAmQQMwIUBDGbEDYHBIgARKYSgISGnjyySefWurP322a5u+hMH1UUExlG2vx2rorqDt/uqsnr8P5gygUoacLQtlHF3q62IRw1JPIiEOoMzuSGAz3CzzP229n0qs//vGP/8/q1auRfAgPBLiRAAmQAAkkkAAFYQIHlV0iARIggdESkJIUEBlzZ825s6m56a8s02yWtWyjPS+Pe6muoy4OZX0fXD3ZINggCmWtnwhCEXo4RrKISt1BKSSvZyHF+YaqMTjcWOB6pVLx733Lem9bW1t3NBOtlCkZ7jx8nwRIgARIoDYIUBDWxjixlSRAAiQwKQT0tWIrTjzx6nK5crdlWSdOysUTfpHDOXMI9ZSkMDoCcQoh+qTkhCSbwX4iGmVNIM4Bx1FfK1gsFgfXE44EL8Sg67p5M/DfPGv+/O9v2rTJFQGoPSxAoiFuJEACJEACCSFAQZiQgWQ3SIAESGA8CGhF640rr7xy5m8ff/yzjY1NawLfz8r5RxByOB5NSdQ5JORWksCgc+IU4j2IObh7Uj5CksxITUF8RzgoBJ8evgvnVkJLcYwIRpxHEs8MBVLCTBENjKaIA6wEYdX9YaFavr2jo+N5PbsoEg4xdDRR05KdIQESIAFFgIKQE4EESIAESGCQQFhaQjlAcIZOPPHEa9xy5Yu2ZS04ghBUooIYj0xA5xdlCUEIwYctup84gXhP1hzqYad69tLQ4VOZRFFrcJhtMFGQ1DP0fT+outXbm2fM+MKTTz7pojkyF+gQDoeT75MACZBAbRLgH/DaHDe2mgRIgAQmhEAoCPG3QSURedWrXtW07ZlnH5k+Y8YprutaeG0Il4uCcAyjIeGikh10KOEtdQfxntQUlHWD4hiK6yfrC4/UpHBf1JZEjUkzPFfget7TxUL+/7Z3dW3QhSCL0o9hgHkoCZAACcScAAVhzAeIzSMBEiCBySIQOkAIC/T0UMHFixdfkjKt9bZt58LQQiUAo4JkstqZlOsIPyk9AZEm6wHxM4S3lIBAn6UkBcYAIhICEusFZR8cC+GI79jnSJlhIfB831f3APjZxKD7vud6/scuuOiCjz744IPVUAQ6pmnCKcT5GDKalMnHfpAACZCARoCCkNOBBEiABEjgEAJ6aCB+XrNmjfXf/7WhY+aMGbMgOKIOlh6+SJRDE4gyE7GGEFB8yfq/crmMgvBK5OF1vYSEiEK8D9EnyWNEEMp6QhGTRxoLJUZNy7Vsy4Lza1mW7/v+3v0He95/sPfgN+RYeTBAMciZTQIkQALJJUBBmNyxZc9IgARI4KgJ6FlGdZdwXkvLd5obm9bghHoJCvysZ7486gvWyQGHc1OlbqCIamQFRcgnmEr2UTiBIvpwHkk0A3GuO4j6z6Gjd1i64fUgAk3btuEWer5p/FOxVLqtvb29MGAcmiqkNHQKbZiIdTJc7CYJkAAJ1BUBCsK6Gm52lgRIgASOTEATAIPhhDji0ksvzW595tl8LpeDlaRcQogW1icc2YyK8hIBqGcOxT4QhAgNFfcPjKPF63Es9oFTiGP00FA9c2lUIOotDUtJmNVq1U2lUo7ne935QuFjHV1dd4diUu4PVAjxyHrJvUiABEiABGqRAAVhLY4a20wCJEACE0wgUm5AuUSL5i94OpNOLw/jCw9JLjPBzanJ0w8VWquXd9ATxIiQg8gTh1CEHsSh1BcECBHi2BfCcDRbEASB4zgmXEaEi3qe/+v+UuGmjo6OJ5hAZjREeQwJkAAJ1C4BCsLaHTu2nARIgAQmlcDy5cv/JN/b948N2WxD6ExJgXJ8VxlIuRnK3RPRFq0TqLt5Iggh9qT+oCSOQViobLKeEPthk9ISKCshNQjHwt2yrL5Cf/6eZStPvnPjxo0qgQw3EiABEiCB+iFAQVg/Y82ekgAJkMCYCKxcubLp4P4Dm3PZ7DKsPQudJEkyU/d/TyDwsN5P3Dz8Gw4cvkS4RR1CKUivl/KQuoMiCrGPiEGITZwDoaXYbyzbYHipYewoVsqr9+7du2ks5+OxJEACJEACtUmg7v+A1+awsdUkQAIkMPkEzj777FShv3B7vr/vYynHscKQSLiDdAjDUE6sCYQo1J07SQSjF5gXAQhR1tDQcMiaQYyslJ/Az1KfUBL4IKQU7uCR1ggOOzsC0zdMdQo/Xyj86LgTjn/jI488UkYimWGP5Q4kQAIkQAKJIkBBmKjhZGdIgARIYGIJHH/88SdVi+VvNDRkz3VdV7mE4RXr/u9JLpdTwg6bXgpCzxAqjiEEnziAUl5CSkzoLiLOpYeZ4ni4g9gnKjyPauQDy/ADL0hnM4XuA/sv7erq2qSvGz2qc3FnEiABEiCBmiZQ93/Aa3r02HgSIAESmEQCEAxnnHFGLt/Xd7Pren+bsm3kJkGBelWbYBKbEstLSQkJXcRBzIlIlEZHC8iLuIMgjApKSUwjLqNeg3As6weRSAYuZW9/f9+r9rXPfjAIBp1BTeTHkjMbRQIkQAIkML4E6v4P+Pji5NlIgARIINkEgiCw586ae1E6m/puLpudEwrCZHd6hL2DJoZLKAllIOIkzFOv1SgJZGSNIUJAZT/JKCr7S+iovq4Q++AceG+0OjwUocH+Az0f7j7Y/dGw/qTqKQXhCAecu5EACZBAQghQECZkINkNEiABEpgMAhAOK1pWNJWzxTss21qLeMZwPRz/nhiGSv4iSWUg4rDWD8IPr0mxeUnmotcMhLhDhtFodlGMqdR91IXk4QrdR+dAtPSFvK9qGbpuZefuXRmKwcn45PAaJEACJBBfAvwDHt+xYctIgARIIFYE9DVmc2fPfVM2m37Ase10GC5a939PxK2DS6iXkZAC8lJkHqGhKpuL7w/uJwXm8RqEIcSkvnZwtBMB57MHQnuV+Sfngct4oOfgjzq6uq4Js8WiAD0TyowWNI8jARIggRomUPd/wGt47Nh0EiABEph0AiIKF7W0nGmnM59OOc5rdKEx6Q2K0QXFtZMyESL6EBIKkQcRhveiglDvgriGUo9wLOsEw/NK0h8RhOrfvu/3eKbxqp07dz6th4gysUyMJhSbQgIkQAKTRICCcJJA8zIkQAIkkAQCmmAw586Z86FsJvthlKCgKBzIBipr/2QtIcZc1v9BCCIzKDZx/2QdoKwLxHsSPqrXLxzN3JF1ghKGalmoFKLaaPYXCv/jG8Fr29vbC0ophtliKQhHQ5rHkAAJkEBtE6AgrO3xY+tJgARIYNIIiFiQNWfz58y/LNeY/YxlmmdQEB46DNGMoyIARTDqoaFwBSEU8YWfxVEch5BRtb7T931VHkTcRtM0S6Vy9e1t7W3fDAayiyJLrHIOKQgn7ePEC5EACZBAbAhQEMZmKNgQEiABEog/AeSQCVsZXHTRRdkXn9/+6Uw281bTNNPxb/3EtlBfFwhxJ8lloleF0IPow5ckfcGxUnICjp6sLxxri7WkMsodtG3bLJdL/+kaxltvuOGGtrVr1x4SUsp1hGMlzuNJgARIoPYIUBDW3pixxSRAAiQwZQSiDtIxixffYFt2q2WaC6asUTG5sJSCEGEnBedFKMrryDwKMYhNLxshiWX012VN4Si7iFqDlmQplZBR33NvOOfCC7+5bt26Yuj24l5AuYTi/rL0xCiJ8zASIAESqEECFIQ1OGhsMgmQAAnEhcCqVasWPP3b3307lUpdzOL0L60jhLiDS4jQUck4CucPQlDWBooYlNBQ2U/GVgTiaGsNynl83w/gDEL0VSuVXxYL1Zs6Dnb8Fv/W5xHFYFw+VWwHCZAACUwuAQrCyeXNq5EACZBATROIriOEkzR3ztybpjc1ftTz/dmhuwW3SdlNYWfr4m+NXhtQfpa6hOAgoaIiCA9XI3C8JkiYVAZJagbGA00wgnfbqdTnt23bVh6v6/A8JEACJEACtU2gLv5I1/YQsfUkQAIkEB8CesioOEoXXXTRCbu27/jXbDa7UsImQ7cLmlDWHManE5PYEt0lRIIXlJNAyKisERyHxDGH7Q1CRP2BTDI22lEql3tKpcpN+7r2fXsSEfBSJEACJEACMSdAQRjzAWLzSIAESCAuBIbKQCmvtcyc/dHp06e92/f9FMoaIEwxDHWEU3jIWrm49Ge82yFiGMJP1g3i50wmM5hBFNdEoXpZQzjebdDPB1PQ8zwTwhCve77/jf5i4f1dXV17JvK6PDcJkAAJkEBtEaAgrK3xYmtJgARIYMoIwO0bKgslROErlr5ienela2cmnWoW10uvWThljZ7EC+tZRqMZRyEK8RoEIkJG4RJKDcKJaqKyZy0MmRlUXbdQrVbWtrW3f4alJSaKOM9LAiRAArVJgIKwNseNrSYBEiCBWBCQsFE0pmXWnE2zZs18RbVSUeUN8Fq4jrDu/9Y0NDQMlpVA2KiUnJjgQZTagoFhmP/b29N/e+fBzsdwTWYRnWDyPD0JkAAJ1BCBuv8jXUNjxaaSAAmQwJQSiK4flDIFIi5mz559eWND7idpx1E6EG4YQhbHmiVzSjs9yovr9QWxjC+VSqkv/AwxOF51BodpHgQhxqLqVd0v7Nzb9i5VVyIsQj/KrvEwEiABEiCBhBGgIEzYgLI7JEACJDBRBIbKMCrXCt8z5s1pKU5rbk75vo9kMnWVZXQ47qhDCCGIL4jliUwog7aEIaO4Xlu+WGht7+j4e7qDw40S3ycBEiCB+iNAQVh/Y84ekwAJkMC4E5D1hScdf+InqtXKe0PBI4lllA4Z94vyhIcQ0OsZ4g3LNA3X8/wg8H9qZzLXPf/88x1h1le6hJw7JEACJEACgwT4B5qTgQRIgARIYFwIQGwsWbJkhleuPNXU1DQXTljoHPJvzbgQPsqT+IFhp5yOrv0H3td9oPtrEip6uORAR3l27k4CJEACJJAQAvwjnZCBZDdIgARIYCoJSHKZRYsWNTi28+O0bb86CAbK4FmwC7lNOAGs1YyGoQaBsdVM2Vdt27bteTSA6wcnfBh4ARIgARKoOQIUhDU3ZGwwCZAACcSTAJynO++80/rh9354efu+PQ/m/h97ZwJmV1Hm/VNnu0tvSTqdzr6RTdl3BB3DCIOKuKCJDirjiAZcQHEYcdzSUVxRGERgoiLi9vklMziOA8gmYREEElBIwpKQhISk973ves6p+r63br3X6sPtTqfXu7w3Tz/dufcsVb+qc279z7vF49WGEJhttDgbXYatQlFo27bX1d19w9nnvOULmzdvDqCrKNxJGJbhwFOXiAARIAKjJECCcJTgaDciQASIABH4GwE9A+msWbMabdO+IRpx1xpC5pWpyEyjUzk/wFoYcN6f8b2l69at62pqauJ6iRAShFM5OnRuIkAEiEBxESBBWFzjQa0hAkSACJQsARQca9eudbY9ue19vp/9ies4EZXIpGT7VWoNBzEIP/0DA4+0tLeB6y5+18NvVOiYAbbUukftJQJEgAgQgXEmQIJwnIHS4YgAESAClUpAtxLOnTt3pW2aP3Bt51zdMlWpbCaz3+gy2t+f/Lu2rrZHw+cm6+BkjgadiwgQASJQ/ARIEBb/GFELiQARIAIlQQCzV8Lv5cuXO5lU6lMWM79n2zbUwmOYW4ZzTuUoxmlEQfwprlB2EI4KnPnAwECyub2tRhfp43RKOgwRIAJEgAiUGQEShGU2oNQdIkAEiMBUE8Ai9fNmz36vbds3O7bTAK6KkHHUsiymBCFDBUM1Ckc/YmDt0zKLwnc6h4DNRCJ5ZXN76w2jPzLtSQSIABEgApVCgARhpYw09ZMIEAEiMAkEMF6QMcYXL148zc/611jM+ITruiwIAmklVKUoQCBSspkxjokqNQGiENgG8Dvrey1eEJzQ0tLSPsbD0+5EgAgQASJQAQRIEFbAIFMXiQARIAITTUBzFwWRBwIFag+Khhkzrqqqrv6abVpREIkgBhljJvyt9nlN7byJbms5HR9qPQJP6BNABwtsMpPe7Ljuxfv27UuXU1+pL0SACBABIjAxBEgQTgxXOioRIAJEoOIIgB5RLovSYgWuoCeeeOJRiZ6+f+eCnwefgxDUBYyycNF30RhmixKFcATmB0EyEo+97aKLLvoTlJoYw2FpVyJABIgAEagQAvQlXCEDTd0kAkSACEwkAT15CVoH4XwbNmxgN15//TV1tXWXm5ZVBaIlCAKIJZQWLYofHPuoYBwhMO1PDPzG5/xz7e3tLWM/Mh2BCBABIkAEKoEACcJKGGXqIxEgAkRgkgiEhCEDQbj5l785P5VNf9+0zKME59JyqOrhgW+prJlHr1ETyGds5Zwnmck+tuJ1r/vtXXfdlaXyEqNmSjsSASJABCqKAH0LV9RwU2eJABEgAhNLAGsOKquVjCdcs2ZN9Z8efvTfY9HIBznnUShDAW6OFEM4PmMhAzZN08hkM/+TSST+pbWnZw8cmQTh+PCloxABIkAEyp0ACcJyH2HqHxEgAkSgCAgsWbLkAiPg/2GZ5lwskyAMQ0B2Ga1sQhG0tOSaIIsPghDngn/y1DPO+NGmTZtk7CAJwpIbS2owESACRGBKCJAgnBLsdFIiQASIQGURWL169cyd23fcMb2u7iwoPwE/zDS5yZhJgnBMcyEnCA3j2WQm/dnm5uaHSAyOiSftTASIABGoOAIkCCtuyKnDRIAIEIHJJYBupHPmzHl73I1sNgwjBtlGtYQy9F00yiFRpTyghscNkXjsqy+88MKA7q47ysPSbkSACBABIlBBBOhLuIIGm7pKBIgAEZgqAlBy4u1vf7v9zFNb22pqampAJCrLIGUaHcOggPgLOG/vH0h8qaOr41ZVjlDGbo7hsLQrESACRIAIVBABEoQVNNjUVSJABIjAVBKA3CdzG2ffXBWPXwrtCIJA1iSkLKOjHxWwEAYBv01Y7NN79+7N4JFIEI6eKe1JBIgAEag0AiQIK23Eqb9EgAgQgSkk0NTUZG686WavurqacQ56kEFClClsUemeWgppIbr6BxLXtna2fxt6opf9KN2eUcuJABEgAkRgMgmQIJxM2nQuIkAEiECFEkChAr/nNsx6sbqmZjkIQSg+YTBZl5BewxAYQjgDvr9m0qlPH2pr+5Ne8oNgEgEiQASIABEYKQH6Eh4pKdqOCBABIkAERk1At1ydcsIJZ7W2tt0XjUZjgnOoj/AaKyG6kZL1UCKXdQZlZtZcbKC0rDLDSKTSmZsPtBy8mhkQkgk16nO/YSdyGx31dKUdiQARIAIVRYAEYUUNN3WWCBABIjD5BHShAiLlrJUra/b29f2xOhY/OfADgyyEw45Jvs6gaUKFjtx/TdOEzKL7s+nUmv3NzVt1IagEo6xFSC8iQASIABEgAocjQILwcITocyJABIgAERgTgbDlau3atc5fnn76imw68y3HcSyMJRzTScp7ZwyylOY/EIaQTCadSv/nrHlzLtm6dWsKu49WQYolLO8JQb0jAkSACIwnARKE40mTjkUEiAARIAIFCYCOAcsWWrJWLlmyMpHJ/DoejZ3IwW2UXsMRkJZB5UYrv7dty0p293Sf09rZ+eeQdVC6igJvVeuRyBIBIkAEiAARGJYACUKaIESACBABIjDhBMIC5fTTT69tb23/LPe9Jtu2sSbhoFhCKkchh0VAtCAXMiOrDBKEih2JZLK3ua11tmEYntxIxQ/iQJKFcMKnNJ2ACBABIlA2BEgQls1QUkeIABEgAsVJoFCyEyg/ccstt6x2mPmraDQ6G5PHhJPIkCg0hGkwQxiGCHjALMsy4Kezu+vSjq6uH+tiMByrWZyzgVpFBIgAESACxUaABGGxjQi1hwgQASJQZgTCQkUIYTHGguOOO64q0dt/pRD86yT8hh50JgyZSoaZ0hfU4EHg7331QEwIAWlH80lnKMNomV041B0iQASIwCQRIEE4SaDpNESACBABIvBaAg0zZnw0Fo39yHEciHljQRAYKmkKFK7HuDlCZxjSZxR0YX8i8Vxre9txFCdI04IIEAEiQATGgwAJwvGgSMcgAkSACBCBURFYMHvBqaZlXGfb1lnoLmpZlhSGZDXMIc0nlGEGZ4IlzcBb9eKBA4eozuCophztRASIABEgAiECJAhpShABIkAEiMBUEmDzGhu/aDvuV23LcpQAkolTLMuCkhRT2baiODcIP+AAQjmZTD40bWb9O3bs2DFAiWOKYnioEUSACBCBkidAgrDkh5A6QASIABEobQLzGue9w3Gt79qWtQoMYkEQmKZpgoskVGIv7c6NsfVYiF6mGBUikclmPjV73rxfb9u2zSNBOEa4tDsRIAJEgAhIAiQIaSIQASJABIjAlBJYvXp19a7nX/x+JOJ+xDRNF4rogQCiGML8sEAxepbNZrb4KePDr3a+ehA/IbfRKZ26dHIiQASIQFkQIEFYFsNInSACRIAIlC4B0H/z5sz7VMR1vmIy1qD0IMTOYd290u3cGFsOcZTAASyFggdXJz3v5paWlqRhGKaRSzRT2SbUMfKl3YkAESACRIAshDQHiAARIAJEoAgIHHfccUu62tpvi0Qib1LZRmXNvUp3GYWhAdHnedkXPSE+tm7dusfXr18Pb0shSIKwCCYvNYEIEAEiUOIEyEJY4gNIzScCRIAIlDIBMAJC+9euXWv++ZFHLotGYxu4EPVS8QhREZlGpfkPTH6miWU34G9DZVqVJQiDgDclMqnvt7e3UzKZUp7w1HYiQASIQBESIEFYhINCTSICRIAIVBIBFIVnnXXWwgP7Xrk/4rpLocYexBCCMCr3l3IL1UUg/M0huY5lWcLzPJZJpz5+qL39pxBaqcQygAGXWnIZLfcJQv0jAkSACEwwARKEEwyYDk8EiAARIAKHJwCicMOGDdZNN9zwtRkz6q/yPM/JVZ3g5a8IlTUUxK/mIoshlJB19dFMOvW5Q+3t23LJRmVoJQnBw08r2oIIEAEiQARGQIAE4Qgg0SZEgAgQASIwcQR0gXPMMcc09nR27Yq4bnUFZcLW8+fk/wbR5/u+8LJe06utzdfoI0DCcOLmIx2ZCBABIlBpBEgQVtqIU3+JABEgAkVGQLmMwvcRmL6MWfUzn6utqYGahFYlJZWBvoKVEMttgHuo5/v7Mhnv3y771GX/uX79+nwiGbISFtkkpuYQASJABEqYAAnCEh48ajoRIAJEoNQJYPwgWrygPwvmLrjQsc3/NE1TJlQp9T6OsP0ytwwkltHqL2Y937utZtq0q7Zv355Qx0HhTK6jIwRLmxEBIkAEiMDwBCrli5bmAREgAkSACBQpAbR26eJwTsOsvqqqqipILlOkzR7vZqH1D+IIIUbQ4EK0p5KJaw61td2IJ9OFc67qRC7JDL2IABEgAkSACIyWAAnC0ZKj/YgAESACRGDMBFAEwoF0sTNvzpyrIo77HVA8YClUrqMymQrnUI+9/L6+NJdRmT3U97wnDMEveaW5+Xngo7uJksvomKceHYAIEAEiQAQUgfL7RqWhJQJEgAgQgZIjEBaGy5Yta/BS6b/GYrFGEIDwA3X5oAwDbCuEAFVYNtZDIUQApQhBCKp+9fb39137icsv/1ZTUxNZAUtuRlODiQARIAKlQ4AEYemMFbWUCBABIlARBMBNdO3atZHnt+/8gWWyjynzIIhCaR30fd/wPK9sahRK91DOc36iBvzJQRi+bEXcC1566aUXqMRERUx76iQRIAJEYMoIkCCcMvR0YiJABIgAEdAJYLZRFRfHjl6x4jif8/visfhMdKfMZDIslUoJSL5SLhlIdUEoaxFy4fcO9P28vbPz4yAQaZYQASJABIgAEZhIAiQIJ5IuHZsIEAEiQASOmIBKJCNWrlxZH41Evmkz8+NgEVQ/UKidua5rgAtpmbxkQhklesEVNpX2vZX79+9vhvfJQlgmo0zdIAJEgAgUKQEShEU6MNQsIkAEiEClEUAhiP3+0Y9+ZN/0gx+8M/CDnxuGEU2lUuBKCQJJblIuFkIUguAO6zgO6+jqeqWzu2sJdLHS5gD1lwgQASJABCafAAnCyWdOZyQCRIAIEAFFIJxMBsGAOATX0fnz5y9zmPl90zQvCGXZlDUXygSkjB+ERDmQWGYgmfpYS1vLbSAIyTpYJiNM3SACRIAIFDGBcvkyLWLE1DQiQASIABE4HIFCtQhhnzVr1lh/fuRPl1m29UPHdgTnAROGISzLkgXcy+UFVkLIoDqQSKSb21qrcgbQnCgulz5SP4gAESACRKA4CZAgLM5xoVYRASJABIiAqr03Z86ct7q2c6NrWUvzbqI542BZfIfJOho5X1gxkEje2tLWsk4ffLIS0qVABIgAESACE0mgLL5MJxIQHZsIEAEiQASmjgBopde97nUz+nt6vu467mVgRQO3ynKJH0SykF00lc70urHIaS+//PLLenZREoRTN//ozESACBCBSiBAgrASRpn6SASIABEoUQJYimL2rFmfjkaiX3dsuybgnFumCaKwnL7DeCabfXTR0iXvePTRRwdyIYXCpDjCEp241GwiQASIQAkRKKcv0xLCTk0lAkSACBCBkRDA2MIVK1bMSyeTN7m28y4o4p6rxlAeX2HQD9/3eSQa+cBxJ554x+bNm8umnsZIxpi2IQJEgAgQgaklUB7fplPLkM5OBIgAESACE0gAROHmzZvNT6xb9291ddM+Z5nmNHivXNxGwQ02kUj8px1EPrOvfV+Lsg7mgiQZ5NChFxEgAkSACBCBiSNAgnDi2NKRiQARIAJEYIwE9FITq1atutDPeNf6XnapbdtlUYcQrIOe53HbdT47a/bsnzz++OMpvc9jxEe7EwEiQASIABE4LAEShIdFRBsQASJABIjAVBJAgQQlKLb88Y+31tXUfkAIEZnKNo3HudHlNZOZ7AVfAAAgAElEQVTO/jnDvUtbW1t3MsZ8ODbGR5KFcDxI0zGIABEgAkRgOAIkCGl+EAEiQASIQFET0C1mixcseJfJzFsYY7MhiBBqEUKGTuU+ColYijK4ENplmibnnJvQXoiDVL8NIYzPz5h13M3btv0+iQNBVsKinpLUOCJABIhAWREgQVhWw0mdIQJEgAiUF4GwMDrvvPNmPPv0X+6orql+k+AcBWE4nlAmnSkmElpcoBStIAaVu2hvNp39xKGO1v+rrIJQkxBLE1L8YDENIrWFCBABIlCmBIrqC7NMGVO3iAARIAJEYJQEwqUlQCw1NjS8Px6N3WbbdiwIAimscl6WUj8VZfZRaKOyXg6yZvqB/1/C875woK3tZb3MBPwNBtBRYqPdiAARIAJEgAiMmAAJwhGjog2JABEgAkRgKgjoohAE4erVq6M7t+9onVZbWwOCULMGSssgCq+paOtQ50SXUdVW+O4VnHM/lUlvONTS8s1wrCBaRsl1tJhGkdpCBIgAEShPAiQIy3NcqVdEgAgQgbIgoAsjwzCgUDsH8bRw3oLbHdv6MFjeII4QzYJoiSu6zjPGwcVVa6cIePBI2vOubG5uflpZB6HZaOYkd9GiG0RqEBEgAkSgPAmQICzPcaVeEQEiQATKgoCebVMXh8uWLWvIJJLN0WgUMrWAeILYOxCMKKSK6/vNNI3A8wzLsgzTYMIXPJVIpn64YNGCL2/bts2TSlBAF3J1BynLaFlMX+oEESACRKAkCBTXF2ZJIKNGEgEiQASIwGQSCFkJZbF2eG/2zJkddXXTpgVBIIWgyjoKv6F5RfX9xoUwLJVd1GImBAe+msikvtzS0nJ7SAhiX8hCOJmTjM5FBIgAEahgAkX1hVnB40BdJwJEgAgQgSMk8MYz3njBvn0v/3dVVRXzPE/G5WnJW4rq+025tkKNQTsXPxg8csbJJ3/oN7/73YEj7DZtTgSIABEgAkRgXAkU1RfmuPaMDkYEiAARIAJlTaChoaHaYuaO6nh8Idb1w9INxWYhNAwjYIxZMCBCiJ6Bgf7vtHZ2fpuSxpT1FKXOEQEiQARKggAJwpIYJmokESACRIAIhAmsXrw62lXVsbGvr+/Djm3Lcg56gpliIgZtsyxLlsZIZdIvLl669N2PPvroS9DGcIbRYmo3tYUIEAEiQATKnwAJwvIfY+ohESACRKAsCTQ1NZkP3nffm3e/vOdX8VhsThAE0mVUZmbJ1SQsmpdyGeWWbftd3V3X3rJx4/o1a9bIjKlF00hqCBEgAkSACFQkARKEFTns1GkiQASIQOkTAHfL448/viGTTF2XTqcvcmxbJpspQndREKkSeDKd7otXVy3btWtXB/yfBGHpz0PqAREgAkSg1AmQICz1EaT2EwEiQAQqlACIvyuuuMJ96I8Pfbi7u/PmiOtKRaji8orq+41zzl3XNbt7+3pb21unoxikGMIKnbzUbSJABIhAEREoqi/MIuJCTSECRIAIEIEiJ4DWwBNOOGFZf2/f9wzO31G0LqOmKbyMZ1TX1l6x/fntNyFashAW+SSj5hEBIkAEKoAACcIKGGTqIhEgAkSgEIFw8XP8P1qvcJ9CVqxCBeOHolyoyPpoCq8Xai8IqnXr1jm//a/fXhZxnRti0ahMLqP3ZbJHH+MX0U1U/jZNo6enJzjplJPr7r333oTepiMpSD+SsQiPX6FzHck5J5sfnY8IEAEiQAQmlwAJwsnlTWcjAkSACEw5gaEEmm6t0gSVrPeuicPXFE6fDLfHoc6B7y9ZtOhjzGA/NoTIx+tNOehcjKBshhcEPBKJ9L20e9d0na2qnSgTywxXoH4YUW0yxoJwX4c6RzEwoTYQASJABIhAcREgQVhc40GtIQJEgAhMGoEhLIRQKw9q5mEsHoqVQUJQCAH/h+8QmSlzOMsVdmg07pHqPJA9NC+a1PGkUIXzbtiwgTU3N1+049nnbjqwf3+14zggrqB9U/5CQZhIJIyLP/JPN377u9/9TAG2MhGOLrxRIIbZaUlzwkygvwXHAvfB44etgzrb0YzRlEOmBhABIkAEiMCYCJAgHBM+2pkIEAEiUNoEwq6VulgpJBzCAi3c+0Jup9pxWFNTE9uxYwdrb29nK1asYAcOHDB7enrMmTNnsv7+frO5uZl5nmdyzpnv+1LU8V5ucsFZEAsszrn8ceG3cC3HceyFyxfOrp8245KW5kNru7u7HSXCiub7DdqTzWb5P77/A9fc8+AD11uWla2vr2d1dXUsvSfN64+t54lEgh999NHSEvvmN7/ZWL16tRTlyFcTuHkhqIvGsGAeSqTjPiT8Svu6pdYTASJABMaTQNF8YY5np+hYRIAIEAEiUJhAWLAViiVTlr9B9fHCAkK3LkI9QBR5+/bts23bdnt7e+OMsSrGWNzw/Tjnpus4LGo7TgQ+hx+DMYcFhissIwJJOA3DiBicR7lhREQQuMJgluBBRHDhcCEiJjNjnPu1hsGmcSGqhWFUGYZRLYSIWKYZc12XmabUkEVXekLVIWw1THY7Y6xdMMZdZjPINeMLljRE4JnCzAZBNpNMZDJpL5WyLCttmWY6K0TSDdwUi7NETbYmk6nOeP/wD/8QnHPOOXznzp2iqakJraeyjEWh+MlC7xcSkXTdEAEiQASIQOURIEFYeWNOPSYCRIAISAJDJWnBz8AVc8uWLfGWlpa5Xsqbl8kmZ/hZvzrrZx2DG8IyLcO0TGaYhhGLRBzGLNu0rIhhGHVCBA2ci9kB5zOFEA1CiDpDiGrDMKKMMYh7k8JNZQUFq5f8Wwk62T4m/xki9wsKzufyxcj9DINx4//7i+YK0csPOId38jGERfX9BioN3ULB2icAP+fQRinmoO2KO/wN/0mbptltMNbJDKPDtMx2k1mthmH0CCYSPAhSPBC+H3hAg3Mv4B78zQ3DdV3ftJ1UrDrWbtv2wWnTpjXHYrHkli1bINZwkAuwGoRB4p8uDyJABIgAEagsAkX1hVlZ6Km3RIAIEIGpIaALwdNOO60+1Z86OplOrvQ9f5rJjAgINtsG65XBfJ/XCs6PEoZYKoTRyHlQFwQBWPPyYgx6AUJOCTop7EIvIWUby4sRBsIOtJwUQUqkqH1y70n9lH/pSVdQ9OU3UNY3OAG8J4VXERanl+1F8ap+SwR/s75il3JiGbqi3sl/oDKo5vkEgcwnI62CyMyyLI+ZZsJk5gHTZPsCHuzzvaA3CLzA930e+OCQKzzLcrprqmL7otXVLy5evLjl7rvvzkzNjKSzEgEiQASIwFQSIEE4lfTp3ESACJQlgdGWVCiU5XOohB/DWfc+8pGPRH3fn9966NDSzs6eWV4mWZXN+jHP9yOMCdc0zYhp2hGLsahpWQ2B4MuCIFjIg6AaXDmhgDoKqkwmY3ieJ8dJt94VGriQiBu0Se7LBgSbUNlhdPlXeBqgeNI/LfReCU0itBKGBW+uC0rKKlZ/k4MFOlhAdOcIK2upUom5wypxrcQkiEewQPqmafYz0zwkhPGK72fbPc8Dy6MnhPCEYFlwWY3Go+ma6ure+hkzDi2cO/eF2PTpr27cuNEfbq5ic/U5ClZRTAJUKL4RXZeHSnijI5iMrLYlNKeoqUSACBCBMRMgQThmhHQAIkAEiEDe/fI1mSLDC1m1aH9NmYGhtiu0UIaYvc7OTsc0zWm7du2a1d7cPqOjp6Mh2Z9cwLm/yLad+Y5tzTVNa4ZlW3HHdhzTZODOaVrMtLjgtkzOIoQd+D4kaclbl1zXNaKqlh+Ii3Q6DQlRBgkNGu/SI6ALSGVRRQkqpySIRGYYXBgGmBylYITfJmO+MIwMD4KBrO+3eV72FS7YHmaxvdFo9GBDXV3LzNralpUnn9x74403ZkIicNAao1AiGz1JkRDCghIahRIdKWGLfsYganPBolpJlNIbFWoxESACRKA4CJAgLI5xoFYQASJQJgTQElJgAZtfzKrPZBkHFIihRbCMLYMFNCZsyWQy8T179swa6O09Np3NvsXwgzMMw6g1bduNuK5tmiYkXnGZYUDyFVcYcnGtTpVbPFuWJa18KtZO4G/4zDTBgMMMx3EYlG3AFwhC3wdtQK9yIIDWwuEsjGrSSMsizBfbtgPTNE2wFHPOfWaaacMQGYOLTCB4NpPOelHX7bBc+wWP80dc191RVVV1sK6urm/16tXJpqYmGSBZKAMtMi2UvXao5DjaPoOuqXIYH+oDESACRGAqCJAgnArqdE4iQATKisAQpRbydftCVhNpBQmJwkGWRYjr6+zsvCTZP3BZNpOZDmIt4rqGZduWZVmwNnfAwmfbtjwH52DYMWSGTUysgi6fmgCAGnVyUQ7bYBIXHAj4DAQjWAfRNRSEIAhCTHhSVoNGncFYS0lCzZN8nCPGhMI8sW1bzo0gCARYi2FeqP/LeRuJRFg8HofPfduyg4yXCRL9A7Atz3qefD8SibZPr59+4+y5c3/zwAMPdGoxnmjtkw9AhquZqNqJVkSolynrLtJQEgEiQASIwNgIkCAcGz/amwgQASIwiMAw8U3m2972Nqetrc0aGBiwOjs7jcbGxiqLWe/v6en+WCqVWiKEiIHgi7guB3Vnm6aAxTiINd/389YQcPFECw+soFVsWD5jJ2bvVAvofNwaCjtY7OvxfsoyKMAyiJZCSFYCFiFyFy3PCa5lY5XzS0vGAwJOvheJROBHqPnC4H3f9wXMRRmIyLkUc/B5dTUkkDXgDZg3LJPJSLFoWRY8gJAPK7wgMKKRiOH5vgBx6XtegjHWXF1Te1d1rPq29p72V/r7+wPHcfiKFSv46tWr/fXr18uHJ5ihNTwaFE9YnvOTekUEiMDkEiBBOLm86WxEgAiUIYFwgpdNmzZZt912m93W1hbt6uqKJru64o3z5i01TPvsxED/yX0DA40G57PcSKTeNs0IuGkqi4t0rYMVNiy+YRENC2el/qTyQ8seikC1Usb6c+iWh/tI2rj4N01THoNzji6kAhbscG4QnvADohF+wAoEYhDbMVzCmDIc0krrkszOqlvnlGWQQUwpzA+p9nJlPaSVEESfcmuW8YdgIVQWazl3UqmU3F5ZpaX1D0RdTU1N3joNx0omk2CFZpD4NAiCTiFEX8Rx2qpral6IRGL39XS0Pt2fzfbF4/H0qlWrsu9973uz69atQ5GIx6208aL+EgEiQATGlQAJwnHFSQcjAkSgUgmACPziF79Y1d3dPa86Gl0aq6qaJ7xgYTKdWsI5P8Y0zWWWZYEFEBbOMokLLJxBpGkunPnyAaZpgrUF3U6lRQbNJJp7nzwO1u9TLndwPFl2IWRFlPd7PVMoLPbBKqiVQpCLdrAMwo8qaSCHtMSze1bktDzMmA1yGUVAuA/OK9d185ZjTQDKhwXZbDY/LauqqtCSKOdKaA6h9dqIxWKwnbQeZrNZsCTmH1rA+8oFGq8Pzw+CVxkznotF43siEafZD4KDXR0dB9yqqj0XXnhh+4033pjFWNyKHGTqNBEgAkRgHAiQIBwHiHQIIkAESo9A2NVsJKUi9H2OPvpot7+zc3kmkznOsKyqiBOxTMeaGwT87zjnZ9imGbVsG7I0wuo3n1UUU//D4heLlWv0BhWiQ6uNJuzQvS+/CwhMx3Hk4l4vLwBiDgUdWmlQJKLrKIhBEIVgGcTC7rCQB6Gqxw1ichGyEpbePB9Ji5X4C8892FWKNzXH5DyRb0IRSSGkKAQXUphn0WhUWhPxWHCtwDzCBwtwDcCDENgGH0rA/plMBs8Lv6UJG+YrWsX1WFjlsgqZmDocx/lfQxjPZNKZlO95PBaL9c6YVrN1+bHHHti8eTNY2sccW0juqCOZPbQNESAC5UCABGE5jCL1gQgQgTyBQmnvh0h3H876ifdDaaVQVrH8onL16tV284Hmczq7O1/POa+qjkXjjuuc4HnemYbBamGRCwtntZjNL5rHOjTDiTEQdPCDrp565kjd5RPboMeN4d+wLxwD/o9xg2NtM+1fHgT0+QJCDmIKw3MIBB8kHoL5H4vF5G/9AQa6IAMRjIeFz2GugXXwSDLY4rUFx4Lj6g89HNvu4IbxQCKZ2AXhidOm1WZnNTQ89fiTTz6A1/JI7w3a9TLkGomS2ZTHHKdeEAEikCNAgpBmAhEgAmVFILzo04tgF/pMWTxk0Wz8GwTh+eef33hw//43tLW0L8562fqqqlijaVqnCyGWMMbisC0kgNEFoNp/3HhivbhCJQLQuqfHd4WTxcCiGctGhNuJbUV3U7T6jFvj6UAlSyBcmgLmiO5ejB3D+YmZR+H/epbaQgBwHxSDKDBHan3WBSmsYBj8YywnEFW2XfhtmqZvO85zPd1df7Isp6u+vj7xulUr9s9sbHxg48aNXYVKvugiT6//Ge4HicGSndrUcCJABIYgQIKQpgYRIAJlRwAKXKt4J4jDA+8zzMeCiTNkEhZdAG7YsIE989hj83a89NJRXZ09J0XjkbPj0fgqw2TTeBDEGGNRSMaCVkDMxKjg5WP55JO2XNbGQZk8RwN5KEEI70MSD3S9060w8B5aadCtDxbssA1ury++cYFNMYKjGaHy3UcXhSAG4SdsodNiT6VrKIg8uD70RDR4PeDxYB5ifCFavw9X1kR/IKK7RWtzVrqZwqVnWZYIVGIk2V7D8IVhpEyDZbkhBvoTiR1V1VX3Llq06Jk3nXbaoWuuvfblodzHVdv1e4dMxoQPj8p39KlnRIAIVBoBEoSVNuLUXyJQAQQKxf6EC8aDAFy/fr14+9vf7j7z1DNv8PzsF2OxyOJIJBplQsQNg9UJQ9iwWLVtGxO1YJbP/P9REOoCsJBFbyzYw2INrIPgvofvo4UGBB+8j4IQ2g6LdFiAk+AbywhU1r44V0B8gcADV1A9Ay0+XECLNM53FRMo98HahSgi4TfGp4KbqP4gArORDkVZF6fheYznxvqbyuKND36gPgvEJeZSqObqcEKq1G4hRCqVyWQ453+eNWP6N9/3wQ++CPcDFIF6W7Q6o4PqhVbWrKDeEgEiUM4ESBCW8+hS34hABRLQi8QPtbhbunTprIG+vi+azPqQ67q26zpQ8t31fV9mzVCZP2EBCRUgONRdk3kRDWb4PPChVrcu+sbLIjjccOmucrBAh0U3LMhhcQ2p++EFYhCTdhSK0UK3UN2yE1r4viZpTQVOoYrvsi7W0DVZf/gAwg7mH7iHqnIpkhmKPngIgaIxbN0Lu4YOcgEdgnx4m3AcIxdC1juUwb9C/G1do4ppMJMJLoR0C1cZfiHhDZRc4dDObDabSqXTUOeFNcxs+PWceXOuueyyy1rWrl2L5S1ky0aSeKriJw8BIAJEoCQJkCAsyWGjRhMBIjASAieffLLjeZ7b3NzM5s2b94aWg4d+6AfBslg0CsXf83X+giCAhaIstgaupKpsgzyFshAaPODCsmWR7VzNPy4CLiCJqPRHVbvm4pnU4nEkTRzVNiAIYaEOLxB+ECeIC3doi1rkyiyQetIYzB6qC0O9vWRFHNVwlN1OuiDUrYPwPtQXxOy1mGgGHkzoVj5VkmJQploUjAhLn2uHm3fha0oXlcoNWibsVT/ykoQHOfLZjgG+4QLcSNF1XF6eEP+LbQY3U3WtC3j4k0gkmGCMz5k7d++M+hnn7Nixo+PEE08Uixcvzm7cuNHH+0TZDTx1iAgQgYolQIKwYoeeOk4EypMAlIPIZDLRzs7OaXMa51zU29uzxstm50YjkdlQAw16rVzWsE6fLNkA1gOwCGJsoFqkyoWmXJCCx5lpQop9rKNWqGzEIDGI7nIjTZgRHhHddU8/FlhmUBDC+1g8Hv5GN1F0ywNBiJYcsNyAeCz0GomlpjxnDPWqEAGcS9XV1fKhAswxmFtgjdYFmh5fqD8I0bPc4vb6fNYF4uHmXvjzsIBU11fenRtLsAguDBOe1+Ryz+TdpjEoEBPL4AMdM1fuwjDBy5QZLJ1Og3dAwCzrUMPM+oP1s2ZtOrRnz383LlrUaxjGwJYtW6Q4pBcRIAJEoNQJkCAs9RGk9hOBEiYQzuSn1+vTuiU9wfTEMOEuw3GOOeYYp7Ozc1mVGz2VWWxFMpH8e8uyTopGoy4Wu8ZjTBWywy18hxNquECH3yAGQeQVcqUD6wy49MHiHRbruB1YUrBEwGgF6lRwO5zFVXdJ1AXJZLT1cJatyWjDSM9xuLbiXNLnFOwDyYvALRQtz2Ah1JPA4HzEpDPYnkJlT0ba1mLYDu8VynooxWEQBJmI4z5TO632T4lk8s9uLPbYmjVr2qC9EH+o37/0e0343lUoiQ1lLi2GUac2EIHKJUCCsHLHnnpOBKacQDhZgx7/oxZR4MYpy0HgK5wafsGCBacm+5PH1lZX1QqDny+E8feO40DwH7qRYSIImVyiGF646MaSEWB9gfcwSQf+DW1FyyC2G13j0JVPd//EQuC4P8QUwjkw4QYm/QiLqGJgMpo2DCWww+OsW6jGSzTiOXSWR+IGOZr+Huk+4Vg72B/rZcLfOO8KHRf3raqqyieUge3AygzzCPsNc0uPJ0S++GCiWK650bBT16M0KML9BIUdPFgJOE+5EfcXAwMDzzBm+SuWrnj8kSce2an6P6jGqXoPMpQOEo2q9Ff+pkSi8EhHibYnAkRgvAiQIBwvknQcIkAERkVAiUBYLKHwyxeGL3RAWDQdu2LFqpbO7nOFEDPqamrOyWQzZzm2jYXhIc4PFnHShUy5hUl1qBaxU37fg0UyFpWHPsLiGeOyUASGMzXiwhqLx8NiFax/ussoWnHwGHqZiUIufKMasAnYaSyW05E2Rxcm4ymIw269I23PZG+HjHHewdyAuQTzAt1BC4lcdE/WLYiYLRRj8MKJZ+B4mPl2svs5zudDd3J5P8HazXgfgfeynie1tRuJ3NPb2/fk9PrpB0444YR7N23adEhdh68peaPaOOg+R2JwnEeODkcEiMAREZjyhdERtZY2JgJEoKwI6K5TurUQY3swtg8+O++88xqaX20+v621ZVk0FjnBMNiZhmHU2blsmzKeTy1a4e9B4lIdG62GU37fw1ptsJCGNqNlD36jCx6m7Udxh4t1FH2wLbzgGLAtWgpxguhCpZjF4GRM6ELukkO9B+0ZzqoVFq+lIAjRYowJhtAyjW7IIOD0H138YQwqPlxAPmhdhGNgxlucm/iAA+ekbv2ejPEex3Ngtig9YQ3cW+Aeotc3NfwgkPcf17Zbsp7/UKwqtueUk0574viTj3/gqquuSg7hro6WxHy91HFsOx2KCBABIjBiAlO+MBpxS2lDIkAEyo6AFkMoU8KHOwifX3nllXW/+93vTksNJD9WHY+/IRB8hiFEBNLMQ00ImTzFMALbsrDe2KDDwKoNjg11CMFyiJlkpgKmbqXR3TlhUY1WF/gbFuHwgwv2Qm0F6wwkiIGFerhoeNiaI13cglwG/fG0jk0kQ+zD4WLfhmrD4ayOoz3ukfb5cDGQh2vnkZ5P3163+MF80gvGo0jDOYZuxWg1hP+jBRATx2A2UZxH4bmkWwb1OViKglAYgjODyUL0aOJTc+ZviaZUKQrGGFxcluItBOcBM80sN4xmJow/nHjqyT/9wAc+8FcoYzHEQzC4/w0qcTGWcad9iQARIAJHSoAE4ZESo+2JABEYdwJ6fS/8e+3atebWrVuP7uvu+T91tbV1BmMNzDDy9f+CAJL/WfIeBmUjwEoIbqdCCCsUZwhP+WHBVTTF2cGigpY9vV2YrAMLy4ddQHVxgUliMIEMHlMtYAdZHuE9jE8c98EbxwOGBUbYUheOBTzSU+tW1iPdNyy0cIxQNOl89XYXcsPEY6EFbTJEOgpCtCaHHzbobYA+4UMEFIrwAAPmrD4Hw/ugJXoy+zWWcRxuX1V+RpaYUcXt0Q0d7iV6fHKuDE3OQ126lSoPBWlFtC070dPb02Ga5vMnHP36j9/14IMHNWth3m2UXEYnaiTpuESACIyEAAnCkVCibYgAEZgwAkrAySfncBJYZDY0NPzQEsba6qqqGDPNKnzyDvUBcdGlRA5k/pNiT4nBvFuoZgHKWwi1uMIJ689hFpl510503wPriy4adDGBrnew0EZLIC7KUYhgkg88LwpMtPCge6BeJ25KOj/MSbHNhYQRimLsDwoUeB/dZgu5eOriEcUbvocujuHzDucqGhaEOL+AP7r6Ims4n/4D2+oul2FBONLzHum4YRvRWqeXiID3QPTBC97HmEJ8eIDlV4A3ZBaFV/hBhrzoOJfWZzgW/OgPOHQrbzHPvyG45mMGdRf20DyAB1ESmda/fNyhssoz4BsEQZBKp1OcGZ1z5869btu2bT8IWQsLekkc6ZjT9kSACBCB0RAgQTgaarQPESACR0RgqPIScJBNmzZZ119/vdvX11fX1d7xecH5p6uqqsASKO9PE7VYPqIOTNDG0EVI2qG7h6JogcUkFgHHTKHQDCgDgNujG+jAwEDe+jkSaxO6vmEclBJZsLiVmRDBvRYLfquFrhTaULRbLfjzGRfV+MDnUhioouDSKqsScchgK7Woln9C0XAQ9yoODf72Pc/zfd8XXNYQ59Kka9k2pF5l8VhMRKLRTDxW1RePVzVXVVftqopHdtfWTNtuR+xDM6Izmo240Z9KpbI/+MEPsoeztvzv7373zu9+99rv7D9wYCWYk6E98GAB+DLDFAbLPZwYSihgn13XzZ5yyint02bW/7a/P/lIcqB3ViKRWNjfN/C6ZCq5NJ1Kz0ylU5F0JskCLxCCC+izFAymZTHHtplt25ZtWY4J5u6cFVtwzjEjJQwGWJxkU/DBB3wO79nAxzAkR+1zmTxJf8AC4wC8MR4Q9oOB8D0vSGcyFuwfjUYFZOfVRRxefyi+0WqIAhctgeV8jY7npY/XZiqVErZtD0TjVZ+xe+zNa45ek17/4Ho5iLq1EWOfUZCG53W4fMV4tpWORQSIQGURIEFYWeNNvSUCk04gJAb1moJhQgkAACAASURBVIL2mWee6bS0tBzr2PaVfb1958djsWpLiQVYp5eLICzk+qgLN90dDxfZ0HcoAh52c9RT/KOLKQjCI3nhucPujnomRW0RKg+tXHSlEARxAfGYoBpRt+fjM9EspfS8IUTGD4K0wTnEVPlBEGRBAVqW6buO2xeNxfbUTp/2VMP06U/MX7x4r+M4/fX19WnDMHys7aaXI8FFs5obaDEe1P2RLJQ/9I8fWvvQQ1tuiEYjs7gSVKZpMRBtYnClkzBa6DfLZDJ+/cz6G/7+jDO+/b2NGztD7cqJy1BcLLRr8+bN5s6dO53W1tbYoUOH5ne1d53c29v1xuRA4nXpbHZGEAQuaGF4MYPZBhO2ZdnwXsQQwpHXBbgxGgYKR2ndg3FBixQMATBGgY/ZT6QLo20bkUgErVgyG6jnefL/UHNPxRkOWhugSERrIFhE0WKLn6EgJXE4/JWoRD/kQTYGEgkvXlXVunDRwm+nUqlNV111Vc+aNWvADUI6M+hzCo+KIrFQzPWR3ANoWyJABIiAToAEIc0HIkAEJpwAWJxUZj652FmzZo113333zW+c0fDuvkT/1RHXnePkrB1YM0/G7Ux4wybxBJoLa/6suJgOu+Lh+5jgA9wSdVc83aoI2x6JIET3Wy25DsY9YbxUOEurXJfqFj4Qf9gJJQTBNJgxLQtMiPCTEUL0ZjPZg5ZtvzBjxrRdM+tntc5fNL9zwYIF/Uvmzu1ZtmhRD6up6T/zzDOlP2J4AVxI1IUTcgy3cD7c0IJl+uqrPv8rIfiFlmnamsAcdlclvIDHbtNyLt+9d/c9hRbu+kEKJU8K93fr1q1ONput2bt3b/3+/funHXzllaoDr746vb29vaGjs3NuIpFYykxrgW1Zs0zTrGEmi/KAO8wwXB4EERCRqs4duqdK0Y5jp7vLuq7LHMeRYwhWP5hfIPjBcghzC7TocMIOxKDap6wt+IebQ6P5XCt/I11wPd+HovdGVXXNdYYwttTNqHt427ZtvSEBKP8bLnw/mvPTPkSACBCBQgRIENK8IAJEYEIJhBf2c+bMOdli7ARmsHNNxt7vui4maNCFCYqQCW3bZB1ct6IUOid8rpeiUOIkX2MQF99qUWhAUXqMVwNrDcZ4jaQ/mnUw57pomtLiB/tiIW51HmlYAkuGHrcHn4ElKRKJ+I5td6RSqZ3JVPolx7U76hsa0osWLEotXba0f9GiRXsbGxufW7NmTUc45b6+sMU2hxIB5a0jQ1mY9QVz+HiHcxlF8XfOOecc+9xfn31sel1dHMSTilEdUgxp1lrBufj3084846ubNm1KhJKKyKbpVs3wQj7sQq36olvPB/UfPt+yZYu1/4X9jbsO7lq5Z/eeefv27ZnW0dFRnejvr/YD3lhdU7PCdZzlnufVe54HGS+ZmXNBlS6x6gGLHHMQg+AeiolwQBTCRQhCEMZWzREQlFLwYQwmMsdsouiqilbtkbgrj2SOlvs2+FBGXX+SPbyX9bxMxI18P5NNP/2GN77xkU2bNnXoLMhltNxnBvWPCEwdARKEU8eezkwEKorA65ctO7qzv/8c13bebTJ2umPbMS02ChbjGAeHpSHK5v6kJ/dAUacvnpFDoaQd8BmwwULfegkAOBZYF+CzI3yhhU9mZg1lYZWLU1mwHMp0mKYZi8cTtm3/ua215THTNIPq6lpjzpw52SVHLWlZvHjxnxcsWLB73bp1YBnMWw7Dbp7h9g0lEocQzAXd54bq80hcRnHf+XPnPR9xnFUah7y7XqHjQ0MCIRKW7Xx118u7rlf9wJi/fP+HG49w+wpZPsP761ZGZQnMt3PDpRtiB9IHVr687+WTmpsPzu7t7bWyWd+sikerItHY6mwmc5JmjZZuo3H1UAHex5qCKmsvWuoZzCuYezAvMREPZiDFhD4hwUIWw8NciGocZN1BTDQE1lkl2uVYcC7abcf5rcf9X+3fv/9R/ZAjmStHeC+gzYkAESAC0g2IXkSACBCBCSPwzne+s2bXCy+c0z8w8FHbtN9smqwGLVEy/SeX5QcxEYa0RihLzYS1abIPrCcFwYLzetZJjM1CUQyZREH4STAqoUhuoZhbnKPFBhPPYCzhCPuVFy2aGyos/iGxCiQ7SUSikSc55w8lk+l2xoQ3a/bs9JIlS7ZfdNFFYPHDepHDWrQKpdYPiYdB4lHfHuOjhkpGNJQ7KRy/kLVuOOF47LHHnt/V1v776upqiMGTyXCGFXOcBx4P7p2/cOHnHnvssRfVtnkWhYQcbhPulxpfWZ5AF3mFLJyF4ij1pCMF9mEXXHBBrK2t7aQDBw6syKbTViQSqYrFYqdkMtm32aY5PRKJsFgsxkEI6gIPjgtWQ8xyC/ME5x20GQXkCOcbbfZaAnlXXm0uo8Veuvr6QcADP3iyqqbq0YbGxp888sgju4eq1ToSizgNAhEgAkRgOAIkCGl+EAEiMGEEVsydOzPLzC8bpnmBbVkLDMNwMHFJIddFJX7ymQ4nrGFTcGDoL5aagMW1SvwxqK4bLMqxFACIQiwxoSeWQREHIhC2TyQScrFeKEaxUDcxeyicRyUHyUaj0a31M+u3xqPR/YmB1O4093YtXbr01Ugkkty8efOgYtp4zOEsVuHzFor1G8rScSTWPRRUQ7mbDivsVN24pqYm88e3/IcP2VuVi6QWXlngCFwM+Ny4ft+r+9YPJXCHEoWFXP5w27CQHSqpiM5f3zfMopCFdu3atc6eHTtmZzhfNXPmzOVCsHkDif5FqWTqRCHEMtu2bVXfUgpCfNBQyMKttSM/h6fgsirlU6IolLV00G1biT45B2UqXgZDkd1W39i47umnn34JYnQLzftSBkFtJwJEYOoJkCCc+jGgFhCBkiAQWsBDivxcrvsCCUHgvcbGxiqeyT5cV1e3UhhG1UgFS7HC0GOpMLZKd/vUF816Ahh01QOLHwg8eGGNOrQI4m/YD0QaxgxirCCeB48F/wdX0SAIuO/7slC2sjKp8YAMoJBjJOcFAvuBGIXjptJpbjLWO31m/b5FixY9yz3vN72dnS/Uz5vXe+qpp2Ze//rXZ9auXZsf28ONx5EKuMMdb7I+1wStdfbf/d1vdu3a/b54LCqthBB1h3UtMZ5Ojb/wA77r+OOOueJ3d955T6m674EIrq2tjbS1tUUfvusuJ+l5dbPmzj15YCDx7paW5hNTqfRCNxKJxiIReEAB2UqZwUXOmg/ZY5mRdzlWDyvAymjCfNTUNK4vYNvDWl4na9xL6TzadS8SyeS+BYsXfeipp556bLhrTiXwktmAS6mv1FYiQASmlgAJwqnlT2cnAiVBQLM2gPjQheBriinDgmTV0qXLe/sHnqytra3BJ9+lno5+OCsJiq5wXKCe2RFKS6AlD7bHtP0oDvE9FIUg+OBvlfUxn9wDOIKwg4W6qleH5Q1k3T8UMDKDoefJ+EDf93kqnWazGhv7Vq1Y+euquppr//rXv7addNJJweLFi7NNTU0Q01QxhbHDWT+POeaYxvbWtt211dVVar7qbrUghHzHcWzP81KJTPrnX/va1y5ft25dUMgFtCQuaK2R6Ha6YcMGc2BgIHL33XezoxYv/ofde/Z8rbWl9XWubZtgPZVuytJdlAv4Azih27Oad1Iw4pxXv2H+oUusnIulxmeq24s8IcYwmUym/SB4tbmtFWJe5UMLPYZV1RVFl264ZxxRbOtU95XOTwSIwNQRIEE4dezpzESgpAjgwhEWwZCQUBeG0JEHH3zQ/sxnPhNpPnTotng09p54PM4y6bQstl0OL3TxREsh9glFHsb46S6d+DfWGcR9Ve03KfIwkQz8xs9R9IHww88xphDeg/2VcAzAMqNczmTdOVyIZ7PZTDKV8mvr6nqOPvaYa0466aSfgPDDdsMY4oJSCdojStxSymMadsf86Ec/WvP0tm3393R2nQyF4lUiHxlbp+otSgEUcN6yfNXKj99///13IrMjiVksJmYiV9PQK9QmxUc+/Ln88ssj999336872trf4jqOHYlGoyZj8PAhVywv9wLLNrdtG4pUQgkSmFvyfa225SArdjGxKIW2wJwEDwPf90V/IrHn5FNPOa+6unrfpk2b5DWtZbKV9+ZKesBTCuNHbSQCxU6gPFZqxU6Z2kcEyoBAgcyIeYvS6tWr7Uwmc+wre/be7EYip4FVAUQLlDQYPiCrdMHAYhfFGlhKwNUTszJqlpO8lQ9cNjE9PxSc11P6w/ZhC6KeMAbOA/tj3CAeR5WewGyTUCIiFXhen8d5d0PDzJ/Omj37x/fdd18fWg6UxUBqmUKLyNIdjbG1HGoS/ubXv7no8cf+tDEei0W1o+WefpgmiJ8gk8k8fdUXrr7gM5/5TLvaRrrmHS7eb2ytm9i9w26vOC/CMaIbNmywfvvb357U1dF5deD7J0cjkTqohxgEgXwOIVvJGFRTl0CwbqVew3Jie1L+R1cPJ+Q9NZPN7po1a/bVbsy95/HHH08JIaCWJlgMZQZTqllY/vOBekgExpMACcLxpEnHIgJlSkBPUKEtNKQ70tq1a81nt207sT+Z+n40EnkTILBMUxa6xjpn5YAF4/ewL+G6gZiOH5Nx4Pa62EPhCIJQj6nEp/9gBdQTzkDB+bCrqlqw54vIqxivNGOsOeD8T8tXrfzfY4455rHrrrvuELqT4SJRlZeQLr96Bs9SFzWjmV/hpCsnnXTSnETfwI8zmczbbDC6GlCDURpfwPJqZT0vPb22Zt1fdu78pSaasBh83vI6mrZM1T4aA2lk1oVtSFTkH/6sX7++9rmnn1v5xJOPn2NZ1lst2zpGCDENrIZomcI5iqIQHwqVutv4VI2TPK+AoqG5hw/Kk4D7QfBi1Il8vWp67e+2bduWxOtaE+F5y+GUtp1OTgSIQNETIEFY9ENEDSQCxUNAj0mBhQlYDX55223HpTPZbziue56VK3IOlkFIMCHjjsrthYtasNihVQ8XwLooxKLdIPBgO9hejw8MZ3CEz9C1FEVgf39/vuyE7nqbywTpSyuMG4s+l04k/3D88Sf++f0ffP8fP/ShD4FFMF8Yfagi8GGRX6rJYcYyv9ANGnBdccUV7iOPPPJPna3tN0ccxxQG/JOueCDSRVdPT9+F73vvrI0bN8osj9pLloxAkTiW9kzmvoWsmuH3hvo/tvOiiy5a+dgjj12Q9bPHxiKR93HOo/AwSJXQkA+MlLWw/G4EkzlYfys/I+Dah4dttm3Le63g/BnLdW6sqqn572eeeaZXd2Emt9FJHiQ6HREoYQIkCEt48KjpRGAyCegWJTgvWAaffPKZ4wIv/W3Xts7BZCbYJrX9ZDZxUs+FLqNo1dP6nXcfBVGIQg/EHibdAPfSVCqVby8KQMgqCnFC6BIKJSX0DKSwA8Yq2k7kD6l05omz3vCGP226Y9P9uiAJxXtK97Hwe7h9JQpBFMxhC+oJJ5xwQn937w+ZEGcaZi5LI8DLZrNBdW3dL3Y8v+OjeuKO8DVRipkdC7mM6nMDJ2mBBwsYc8o/+9nPTrv7zjs/3tXVM686FvtHZrIGjJ9VolCKQz0T7qRerGVyMoxnBY7KA0EmkfJ4sNd2nA1HHXXUf917772JUnZhLpOhom4QgZIjQIKw5IaMGkwEpoaALigg5uq673zn+P2vvvq9aDS2WtY9UAXUp6Z1E39WPZmMLtLQdVTF8+UbAq6jmWzW4EEgi8xDtlC9bAQmlvE8T8C+kMAERKMqOg/lD4zEwACD8hHSdZExOJ5wHOch7ge/n7944T3nnnvu85goZiTCrpCAGcl+E0+3OM5wwQUXxJ975plPCy6+4ziuwXkgbMcxevv62Fl/96bFd9xxxyuFWlrKDEfS9vA2Q1kXly9fXsN9/3zBxfme570n4rpxlYnVVBZxKQphvoO4KfeHRhMwqyUzuEfo9yAZW8yDHfUzZnyjbsaMzVu2bPH1+/UEtIMOSQSIQJkRIEFYZgNK3SECE0kAF4ZQY9AI+IPVVVWnVNpTf3giH3aHxRqDGDMpF2xCGOlceQjDUu6g6DYKY4RlJ1T2UnAFk5kg0M02kUgwqImHItIP+P7auro7ps2Y9pujjjrq2Z/97GfpiRzrSjh2IaFz9PLl/+xzsTEIAhlJ6Pk+q6qtbdmxc8ecSmAy1j7Cw6L169fPz2Qyb8mm01c4ln28SqgkrVlgHUfroTJdy+RTWJ5mrOevxP1NMBgyw8ik03uPPuH4S+6+++6HKjEuuBLHnvpMBMaLAAnC8SJJxyECZUxAsyzJUgWzZ816IB6Lg2VQJi3QsleWMYVcgXd070TxB/8HN08QhViaQln5DB+e3Hue/IHPUDiiS6hys81nqVQLY5HNZmWWVlVLUARC7Fy0cMGXhGk+fMUVV/QdSeH4sh6QCejcu9/97qOef3b7dzLZzHtt2w4gsc/pZ5z+nv/+/e//F05Xim6hE4DpsIdcs2ZNrLW1ddWBV/Zfx4PgjZZlQdCbjKWFBx2qXIUKMZSHo/XIYakOsUEu4QwIa97d13uwvaNj4Ugsv6M9He1HBIhA+RGgG3D5jSn1iAhMCAGsW3fmKWeuPNi8f3s0GrWgJpYSRhVxLwlnGtXjCGGhCy99mwAEpGFIQQj1A4GVnkkUBSTshhxVllIB2UMzngf5ebYtX7ninDe+8Y2J9evXg8vdoLpjEzLYFXzQpqYm8+c//el6xswvA3yDGTtOPeOMN/3617/upkX24SeG9vBIJpKZN29edFb9zJ+0trWtraupgQcdIAalC6myhuvF6w9/AtqiIAEVXwheBUbA+fMHDh18vbof5UtQEDoiQASIwFAEKmIRR8NPBIjA2AhgdtHly5e73e0dbfX19bUQGxdwnnf/GtsZSmtv3Uqo1w9UBc1zC13GpNso3GThB2MG0aKI7qOqID1YBRkU94a4Q/AbTafTqfnz5/3ff7366o+tWbNGZhQlN7CJmye62Ftz4ZqPPP/Czm92dXY2nnjSyd+KV8e/tmnTJl/Fw01cI8rkyFr2VugRTH++du3aFX+8/4Gnpk2bVm0IwY1c+QRZkUJdT7QeGeX4w31H3UfAW4H39vT0ulXxpXv37pVZR0d5WNqNCBCBCiJAN+AKGmzqKhEYC4Gmpib31p/cep1jmusMLhzLtiC7AcQElWvt+SFxoWUPXEUhWYxc9UK8mWYJjESjIOzkahhca2HRBlZC2AYT1OBxUOjJjBumKVKpVPfSJUete/hPD/+2kAghS9VYZvLfajAOdRTgO3vW7K9ZpnmBbfAL97e27qHMjSNjPkTiIrAWsrPOOqt+3569T7muuwASUYGLIw8CzFZK65GRIS60lYzBzJWj8Yx4PG509/Tu/Luz33zm5s2be0d/WNqTCBCBSiFAN+BKGWnqJxEYI4G3vuWtx/312afvqK2uWSrdkqCkgmWWVfH5kSJCCyG4f4KFEIVdOp3Ou4aCWLRdV8ZMYRE2rFMI1kKsQwhxg+hmyoVgfhB0zG6c9a1FS5f+cPPmzVkUIqptsuYdPfUf6Ugd+XbI+6STTloYj8ejc+fO3btp0yZPiX6ytowAqTZn8/MV3tu8ebN58w9uftOefS//xLHtpWAlxGtpBIelTYYggPUyBefCYiY8VGKZTLq1dvq0zz23Y8evCRwRIAJE4HAESBAejhB9TgQqjEAh6xNkDvz85676CmPGlSYza02TgTekKf2+KiAZRDh2UImDQYXkIXsiCEJMBy+tgFCUXolC3Afeh6f4uigEgSfr3Xlexo24N0bj8W8+99xz3bCPbnHRi05X2LSc1O4WugbIKju6IQjPX0g2s3v37n/sbu/8lmWZs0Z3VNpLJ6CeUgiZtCdX0gMyzGSzWe/Ovz/3Lf96++23vxwmRvOZ5hARIAI6ARKENB+IABEYREC3SKEl6qMf+ujx9z1wz49c1zlFq4MlY4Mg8UYp1SAsJO5QrGmJLvLCbqjpgQXnwRKIpShAEILlVH9BbA9YEcFSiMeH37AtCEMlBuUiLgj8O4Rl/esrr7yyV7WJLFJ0fZYNAYhFBhfoU089dXZXe2eT72XXwfWj7h+0HhnbSEtDof7gyWTs0LJlR224+/77f1RIENI9ZmzAaW8iUE4E6AZcTqNJfSECYySACzY4jP73maedcXlLc/NXmMka1GccQoBgs1JNF68LQ/1vTPYCwg6Em15MHq1/uOgK1x8EKyHECaIoBKGImUVh4Ysv3ZpoMJZLsMH5QWY5n7n4ny/+7/Xr14NQlNlE6UUEyoUAWqUgk+td/3PXu7p7Om8IfH++Kr9C65HRD7QsXaMS9ODfXAgxwHnwvb0HDnxdP3TYajv609KeRIAIlAsBugGXy0hSP4jAOBDQRSAeDhYPSxYs+KrtuP8iOK9BEVgOsT/YBxR9IAZl7F+uVposog0/GO+ni0PgA9uBKMS6g/A5uILCPmg1xWPiNnCsVColrYMqG6mAxBrZTPaWaQ31X96+fbt0Fc3lqSFROA7Tmg5RZATgnnLhhRfO2Pbk1mssk11qmiatRcY4RupepsIJGdyzQCF6/f0DN7V1dXxOdxHFrNEUizxG6LQ7ESgjAnQTLqPBpK4QgbESKOQuCu81zJjx7brauiuEEFElbIRMKpN75Qurj/X8k7F/2GUU/4+unfBbF4og4DAZDFoMsZ24DzBRNdXyVkUUkbANFrGHc6EVUXdP9TwvGEgMNHV0d3+DSktMxiygc0wVAT3hzJJFi642mbnBEMKuuFTF4zwAmNhK3Z855xxqPQrTMv/wzve854rrr79+N5ySrIPjDJ4ORwTKhAAJwjIZSOoGERgrgeEWCvXTpt1YV1t3KWPMUe5daAErC5dRXQwiRywNAf9HUQi/QdChOyl8BhZFrEWojwFaCHVe4E4KFkR46SUnAs67hCHW79u//xa93iA9wR/rrKb9i5nAGWec8fGu9o5vBL4vXdHpNToCaB1UD+jg/uRZlmX5vm9W1VQfOPnUU//t9ttv/xUlkhkdX9qLCFQCARKElTDK1EcicAQEwsKwqakpfut//Ohmx3UuBtcuePSsFh4ypXyoLMIRnGlqNi3k6gpP1THxS6FW6eJQdyOFv1EUgusoFofWRSUKPxCR4CYK+2AxbhCYsE8QBHsd1/nCi7t3b6JF29TMCzrrxBMI31vOOfvsCw/sP/Bt3/eXKVeDiW9E+Z5BwP0Z7lVwrwFXdfg7XlV96LgTj/+3X/ziF7/UHzYZhmExxnI3MHoRASJQ8QRIEFb8FCAARGAwAYwjRKF30003zfjuN791k2VZa2DBoURhTgkyhu6VJXkv0V1DYQEVi8Vkf+AFiyoUgujyqbt+wjYo8EDYYawgMsFjo7spikc4pu62yiAxD2MvZrKZq/cfPPh7sgrSFVnOBPQHHmeedtr57e3t1wYBX0Uuo2Mfdbh3yIdMIAwNAx4+iZq6WmkhvO222/6PckeXmV7HfjY6AhEgAuVEoCQXceU0ANQXIlDMBLCY9BWf/PSN8Vj048w04amyDBpU5SdKzkI4HO94PJ5PEAMLK3DxhBeIPYwFDO+PbqSYfCYcTxiOOwzvDzdhn/O+/v7EVzq6O25UWVtluQkSh8V8dVDbjpSAbiGEfZcuXvpJ0xDXMMOYRvVVjpTmax7kwb1LMPm8SZgGYyLgAXg+/Pm8899+5Q033PAEJpPBewt5I4yNOe1NBMqJAAnCchpN6gsRGAcC4UUC/H/RvAVQRPoK27ajKHBUZkB4Il02D/dBzIEoVAumQQXkMaMoumIVSk6D7qRoXQzHERYaHtNgwgugqH3m6z+4+YdfW7NmjXx6T2JwHCYzHaLoCOiicE5Dw1ei0ViTY9uMC5KEww1WIVd3LeuxhCcTVUEpQmaAhRDKToh0OvXLL61f/+lPfvKTCbQQouto0U0OahARIAJTRoAE4ZShpxMTgdIhcMZppzW1tbZdaTJWDVoFRKBlWZBpVBoMS7UWYXgEYIEFbqNYMxD+DyUiQOjpghD2G6rAPbwPrqSQPEavWzjMaMvFXCaT3ZJJe//S1t32F9yWRGHpXCPU0sMTUG7ospzK/Pnzj2MBv9ZxnHPBh5Hk4Ij45V3atXuENAmiZ4HJTLAM5tZ2jKX8wL/xlQMH/i18T8GQAEJ/eO60BRGoBAIkCCthlKmPRGCMBD75yU9+4aEHt3w+k0pNU4lQGMSnWJYl3UfLRRACprCVEIQdWPyw3mC4vATGHOqJYmAf+BlKNIaGQ7rdciGCwAsuf9s7z//Jxo0bfVqojXHS0u5FSQDm+oYNG5xbf/zjS0xm3uDYtq0s6bQeOcyI4b0GS9ZgiRzMggzPqXSPDdO2u+fMmfudhx99+DvqIZZkTPeWorw0qFFEYEoJ0A14SvHTyYlAaRC45ZZbjrn+uut+7GW905gQYB3kQRBYELNSallGR0IcMo6CAFSLqJwrlmmqh+5MCj0sQA/vg0URFmfwgrhDsBCqhVe+QP1w54VjQM0wz/Of9r3Mxw+1tz9D8T0jGSnappQI4L1i7ty5J1oG+6nrOMeVemKqyeQfToKFD6lACMJDK/jJZrN5r41UOvOXte97/yXX//D6Z1AIai67lFxmMgePzkUEipwACcIiHyBqHhEoBgKbNm2yfvazn31qx3Pb1zuWBVZCEIXgOioNhOUSRKgXqdczjuriDpPIgOiDBRguaFEQ6slltFqDww0jZGuVJTzAlS6RSm9JZ9Mf6erqerUYxp7aQATGiwAkNZk3b948g4tfxiPRMw1mgHUQYmZh/tN65DCg9fsTPIQCN3bMfIwlgPJxzEL0uq5z089/+cumU045RT6h0l12hRA2lZ0Yr5lNxyECpU+AbsClP4bUAyIwKQR+//vfr/rkZZ/4n6jrLoeFiapHCE+ZR2QFm5RGjsNJsD9oJUTrIIo7sAxi9lFtMSbPHC5mj0JyWDWodsyXtrAs3tvf/ywz2ZtaW1sT49AlOgQRKAoCDQ0N1UwYpu/5lAAAIABJREFU22qqqpahAASRIgxDyBsJvYYkgPcfePAUjUbzdQZxB5laNFcnVnordHZ37/nwBy5+6zXXXrMrJASl+KbSEzTZiAAR0AnQDZjmAxEgAoclgAuKiy+++Nz7/3DPb2tqaiDbqLQQqp0xNuWwxyqVDeDpOyy80FUUE8yAZRBF4zitYWU9R8USLa88mUo9Xzt92htefPHFfp1ZgSywg1y/yNW0VGZYebQz7IIYTlaCn69cubJmoLt3qxtxl+mxx1jGhiyEw88HsKQyxsBHX2ZCBndR9FCAZ1GyKD0XhvwnRGJ6w8wPPPjgg3dSvGB5XGfUCyIw0QRIEE40YTo+ESgDArioA9fRr61venagv//1qvxCfpEyRDdLLuGM/iQerITQT3jB++l0WsYOjvcLSzviolgJTdHX3/eCG4u9e9myZQcefPBBWRRRbYtxQrD4k4JQj+WkReB4jxAdL/xQ4nBzEefp5z73uejmzZvnZxKpu2tqqhdbkJ5YCJivEJQrH4aUYxzyeM8Y3RMDYrfRSqhc2OXDOdd15QM6eJj0jW9/63gqYTPeo0DHIwLlS4AEYfmOLfWMCIwbAW3xJm699dZTvn3NN+7xfX+GZducB8Fw3l4lJwgBGsbqQJwOiEIUhBCfA+6i8GQ+7C46BtiSEVobVcZFbsIjf8ZEJpN9xbbY+t5k8v729vZm/Ty6OCTL4BhGgHYdFQG9pmChhxANDQ2z66qrz0knUxviVVVL4LpRL5zzeH+AbMWjakMl7aRc0mUmUbgvQZwzvKeSycDfnJlm/7lvPe/NN95441/pnlBJs4P6SgTGRoAE4dj40d5EoGII6Iu/D//jB7/82J8fv0pwXmOZZlk94ddLRYDoQyshvg+CEH607IhjmgOwkFap4qW1BMQhxAPJBTIXzLKtIOC8N+1l/yvI8lvnL57/9NatWweVpQhbWMhCOKYhoZ1HQEB3DQ1bqc8++2zrueeeOynuuh81Tet9ruPOkHHHMn9M7ukHzlF1nJJ8cDQCTOO6CcYJYqyyFksofN9n/QMDA/WzGr6/bdu2DerEFCs4riNAByMC5UuABGH5ji31jAiMKwFddGz453+O3PvCS19paWn+V8G5Y5ZJPgh0F9Wtf2glhM/gfXAZhWL1amE7Xgl18rGYaqGcq+/IhcEsKbjl+fyAP57JZv/ADf7r1tbWPWghDA80CcJxnfp0sCEI6MlKYBP4/8LGxqWeYXzQsuzzXMd5g3xgxDljBjNEbsUhJzO6isq6NepBCIEemkCoBqG8PcC9KRqNMmaaIp3JcMGMf1+yZMmX7rrrLvBrJzFIE4oIEIEREyBBOGJUtCERqFwCuusR/r1mzZqGPS+/3NTV0XmZyViuSN/fXiX7xF+3EMLfkLEPrYRYcgJEIWYfHQ9XNyXs8sJPK0MB7mCy7iNYYWTslWF4QvA/9vYNPLxg7ux7n33++afJQli51+ZU9Dw032TJlDe+8Y1nvfjii2fH3cjpzDTPhYLzhmHkCpVC0qQgkMJFu76km6iytJdlPdNxHhtZngbuO/jQSN2bhM95wveD/1i4eOH3HnjggVYlzjFGk3xxx3kg6HBEoBwJkCAsx1GlPhGBCSAQjheC/1966aULtj355Jd7unsuUdkCS/qegq5YatE1KJYQsvphMXq14BovyiieB7mMamn5MZFMbvEM5drAeGiIHsbYvvburl8sXLjwP7dv334gnOFxvBpIxyECg572SI0njdjszae/efGOl3ZcUF0dX2db1jxDGLWYcpiDiVsYTJVDwPmNh5JCkrKLjmxu6Q+qgiAQkKlVCcOsZdk3VE+rvfaCCy7oWr9+PXBGgU1WwpHhpa2IQMUTKOnFW8WPHgEgAlNMABaEn/jEJ+Y+8cQTX+rq7LzEYqZrmSbExMlwF4uZ4CaWi4dThaexxEIpFbPX4wXHwyI4HsMGUMFCIITo8TxvfzqVvM2KRn986NCh5OGSfShBm1/Ua/FceatCKEYM1/hkbRiPwZukYxSy7BcoW+IwxrxC24ZFoLyIGZQNNIxly5bV9nf3XhGJRD7gOvYcZprTVRkEWleMcnyBLXgE2LYN91B48MNMuIfKJ1U566AqgyM9BvwgSBvCuGXJ7Fnf3LJtW8coT0u7EQEiQATgUTO9iAARIAKjJwALybPPPjviZ7PfOXDg1XWubUchGyd4jPm+L8tS4CISLW9gMQiCQGbSHP2ZaU8QqrAItx3HN03TSyeTfiqT3i44v7qtq+vRkNCDxbwsT6HHHqq/86UrCsUfYtIQIl6aBPQswephgBT+hmGAmcnXHxBgD/X4QHj2oEpEiAVz5rwpm/W/bdvWMbFYLGIIwwx4YNOlPPa5AQ94gLPneXJtZsMDH1XqlcNDNWbAWNmwXTqbTVuWvdF27at3794tS9LQiwgQASIwWgIkCEdLjvYjAkQgT0AtOM2PXHzx1ffee99naqqqGoSA0BYOcUTShYnzvP6TT8EhIYKWhp5oHiEBDnBtWwZlAU+oTYaWTMg4mILMN8z8QXVdzff7+/uTNTU1/q5du/JFFPUsj2ERWChGjBLVHOEAFcnm4Qyg+jhqDwdeE2/W1NRk/uxnP3MjkYjT29sbtRm7wct6a2OxmAnXLmbHVRlypeUK5iTEDRZJ10uuGeqBmXyIBjl4ZLXGnGsF2GWZG40YnueJRCJxcOHSJd964oknbiY38ZIbZmowEShKAiQIi3JYqFFEoHQIhF0Lv/GNb7zjtp/+9Dru+UdZtg3LGvnUG9xIwTIouICcgrlSCxatHUc70so6KM19KAQxgyOsIZVAZJlMpjOZTLTarvtQ1LZvSXPePHPmzNSFF16YaWpq8ocrH0AicLSjU1z7hUWhah2YowL9wcCGszdYW4wt0b1799bMqJ2xoqe365JEYuD0iBtZEI1GI5jUBOaMcp3Om5th7oHFv1hcqotrBEbcGnmPRE8KDnUFc9cyiG24Z2aTydTut731/I/e9svbtmpu+Ll6HvQiAkSACIySAAnCUYKj3YgAEfgbAXQvQ0Fy7133vunzX/jXryYGBk7kQTBDvi8ToqgK7EIqQsMw6RY0hnkkrTGYoRQXkXA8vZ4h/A0JKHzfDzzPazGYca/tODsDT7zYm+jdvmzZsle3bt0qhYFKXFEo46NMAEICcQyjNQW7huMC9SagqzCM6+zZs+PM8xZH4vEVrhNZls6kTxZCvMV1nBnKCg3GP3x6k8sayqUvownuiypmGISLjG2bgq6WxSkDzgOTMXDjzYUNmqa8lsEF32SsOeNl7/zCl770jU9/+tOv6FZ8ui7LYvipE0RgSgnQamxK8dPJiUD5EcCFypYtW+pvuOGGy57fufNdXtY7GRIk4A1HupsFHKILyw/AJPUIF43qdPmMjfn3GYOyb2BtGGRBFGCyFQbzPG/AYOwei5kPe56f9Bnnfsp/tnF+43Pbt2/3lLCUyYFIDE7SoI7zaUIuofLoEEe6+oTV01489OLpvvDn2cI0o7Foo8+DcwXnp7uOE1HJiuScypXDFAKePCghOCjBEFoElZUaLYfj3JPKOJx+TWOgrx8E8DjtT42zZ90eGMbt27ZtkwmA9OueBGFlzA/qJRGYSAK0GptIunRsIlBBBAolK9m0aZN7z513nvHE1q0fTqfS52Wz2fmubWO9Pbr/jG1+5MtVKMOrXLwrKx+kgsx9nqv19pptlTgAwQgxiLCxLwzjccNgj2Wz6bTnBZloxHnZsKw/Hjx4sEs1lbKMjm3MJntvKdDOPffc2h07dpyRSWaOtR2zKhqNzxA8eKthGEeBRQoEIFj3YL6EXD6lFVBzRc6XYlGF5fPzTYnHUkoePNljMZLzyesLLIOQWIYx8yXDNO9fOG/hzy76p4v+cumll+piEAU+XZMjIUvbEAEiMCwBWpDRBCECRGBCCYBQ/OxnPzvr4YcfPj2dTH0qlUyezQxIjOlIMaKXpAg1ZJCI0RelVLtsEKlwLbfharvpn4VFojxowLk0CwkhPNM0DwrOH8+mM696gddr2nZ/TXVdy/zZDc8Ykci+LVu2BDguhZJbhEscwPFHkgSj0H7hSTqS44xlYo+kDdif4RL0FGr3UNsPdc4CpSJ0Kx0WeBfr1q2L79mzZ2Xz/oPH9vZ1N6aSyYjjujVuJNJoWdbJnIujDMOIQpyaCS7cymYfjvvTxJ6MERyOo1Yfj2oKKlC6WFYCD11pJSNkpraDpzgyThBSx4BFP5PN9ruueyfnxs9Wvn7lU3/4wx+61QMcEn9juahpXyJABIYkQIKQJgcRIAITTgAXtKtXr15VFat6x949L1/S3dOzPB6NynT2MtlM7oVPveX6Rwaz5daj0nUxrx5z79H9awJGTlv/4+IVFrOQ1j4NpS0CzhOB7zenMumXhBA7nEhkT11dXcvMmTNbFi1a1PGrX/2qD5oFWSqbmpryyS7CAg5jzcCFcaTCaqQisJC1uhCqUDbVfI29w4m4QovzAqKtoKttAQ75eRwuBzJUO+AYl1xySfX+/fsbDh061JDo65uXTKVWmYwdH3Hdo2zbabRMMx5wDteXyxiDH1nTQLGegJlDh0S8an5I1GDwy9/Y1D0NxJ9MzGMIbpkWWPHlHEikUtx2nG31DTN/KIR4+C9/+cs+okoEiAARmAwCtKCaDMp0DiJQwQTCiS2+973vxX/+8583nnD88bc+8vAjx2ez2WmxSARr5MlQJR5wg5kMk1eAMJQ1K7QYG7p3TdycylsONevP33gL4YOTITOMLBcixTlPC8PI8MCHV/r/lybYaTDjnngk8phTVXWwrq4utW3bNrAkSuEHQnH9+vX5BDWYkAiFoSZa9CQm+UQ3odqKeYvJeMRRjdSiOZww1Ws2hjK4Yk6lQSJZtxbqQlPb11izZo3zwgsvVPV19i1OpBNvNgT/B8t2ltiWZUcirmsYwmUGizPGYkIIKPWSN+xhNlC0xGuc6BqaoGtIe5CVE34wKUwZMC1LSqBrt7IK8mQqBWlEDx5/wgmPvrDrpasvv/zytiuvvDKN82Gk1uoJ6g4dlggQgQogQF8IFTDI1EUiUAwEMDmJagu79NJLoy//9eWautm19z711JPHwcopAsJQPVcXLB/PlC9gKLPtmabMkhK27hRDH8uhDZqVFksKyG4pcSgzm6pgRSh+CBkR898jat/Atm3PEEaQyWZ5EAQ8k80wcEVljCWYYWyPxqK/ramru3Pnzp0HdJfTDRs2MLQqFnKT1DJjwsMBWVB9qNdw1j/9s0JWORSp4WQ6utjThKsUemrxnncNxOMWEqpwfL2vypoqjj76aKevr2+Fl8m8xw+Cd3EulpiM2RB3C0XKI9EonMfhnIPFD1JQGjwIUFzrsX5SfKjMs8BqSPfQcpizxdSHUGyltDoriyBkC4VBE8wypUDMZLMilU6z161adSdPDHz0Le96V6KpqSmprrdBluNi6iO1hQgQgfIjQIKw/MaUekQEiopA2DVQLXZgkQqLZ6ntPn7xx1e8tOfF7728e9dqy7KijuPYEEtjmmagnqZL66Cqg4aL76LqZ5k2Jm/JU3UP8+ICrYdqfOR2aP0AFrgIVunz0dqrdFMulb7neRCzKOBHHSclhGh3XXdfNBrb5tjOU07U2dbf39+ZTCalAESBNcuYZXSYHdJCaFmWmDlzppwXXV1d3LZt+T7+hr+XL18uh2j//v0iGo2Kmpoa0dDQACJMiqcdO3bI/eH/W7ZsGTScK1asYNu2bTPS6TRLJBLmnDlzWDabZc3NzfntgiBg0IaOjg4ZB4aiszEadYy6uhlBNjg1m82clcqkT/Wy2TmC8+mGYcShQ45lGRBTa9u27AuU81MiU8ab6TF+2t+wjTQ+KSb5fZQYNOF4uL3mtohtpu//iblosXxL/uEJjpGqDQrz3s9ks+npM6bfvur1r//WHXfc0RzypABxL+elPucnprl0VCJABIgAxeDQHCACRGASCRRytRNCQGyTzHD4+Ss+v+S+Lfd+vqOz460Rx5lp/L/27ixGruvOD3Dd2rubZJPiJolaSHqRZFvenYzjMcY2kgmgxHAmGPsh8UPejCAvmUcjY1AKggR5sIMAgREoxvjFyYPkQWzDM3AyjsVYMzDksQQPbe0SKYqUKIk72WTtVcG5fU/NZambbFJqheL5GhDUS1X1Pd853by//p8lq8xXs3y9zfJB9su7Zeb3SO/gZSf1rcrTclfabKSo6C0flLZ8NmH+lgfEEGQmk7BraQyO+WOKKYxxB8vQkXlmnN3UpLhhDn1dDdWtUF0chncmk/5kMumOx+NO2A11NBoNssmkW6lWR9VKJZSN+7VqtZdlWTfLwv8nvWajdWGShY1x6r1GozbIKtX+pDLuZ1k2aNTr/UajfaZez46Ps6xXGVUaeeVt0K11BoNQgVvIxpVGpZaNW625sLNjOGxvc7ff39ztXNw6Ho8WhuPxhsloPD+ZVFrj0bA5Hk8a1Wq1nmWVRrFmr5VVq63q8vq9uWq1Gr4eAl+oeOdVxbhuNk4rLKpL5UPfy2N9OvZL62orWSWswZzUQqSOabv4evnswOUfmsvvD5PUOF/nxsZQGGZXh3G8nNyr1VNLFy++3m7Pfe9zX/jcf/rud78b1uaWA/p0una5smzK6Dr3lpcnQMBNlTFAgMD6Csyso5pOa5u94YlXsX///tb+/fs/+aMf/OAPhoPhP1laWtpWzbINcRpfvu6mmMK4vlee9KvHcHGJdTzSYnbdW3hQSCUxGc6uPSytqSpPL41b7E/DZWk9YdxMKB7HFp4Xq5BxLV5+o13afbZcOY5VuuWD9ErHKcQpfc1mM0xRjl/Lg+xwNKqG7f5D9TKGp/n5+VBpDBXPSbfbrfT7/XyBXgxlsXJdOvojBr2i2csqswFwmgJmdvosvV5e3SutP8vfL75v2KE3/wc8P1UyrLddXjc4rSiWjhqJbZlu3lMEjKQH+Ho2vhTYw4Yxw9F4fHo8Hj87157/75/9wu/9r+985zuHZqfQxxkTpXHxpnWz63nNXpsAgbQF/JU97f7XegLvmMDslKjylNHyRZR3iPwv3/rPf/jwnz70geNvnPi71Xr18xcvdtrFuXqh0hIWSeX3+8UupVfTlku2yI8h4Wpe4EZ9bHlN3WyFMKxZC2/lfzhi6ikS5HIVK1QLZ7bXL0J8/vDLhPpp4IlTJWMwm7muuDPtit1Q3ta//MeDcoUshLwQCpf3x1munoXnhWms+VTW5apOZW5ubhKmc4bHdDqdGAhjEL3k3L4YBEprCnOPmTWL8ZqnN/yxilp8YbYSWJBOz5iM17p8JESeCP/2rWh7XP85HeelkH6jDt31ate0arfCzIRLvhaPkVguak/CFODXO93OT3Zs2/HEl/7xP/3Rvv+w7/DsmtIYDMubJc1usLReDfO6BAgQiAICobFAgMB1KVC+if7GN76x968fe+wPn3vuha2tVuMLg17/E8UGM5NwYz+ejCeT8fJaqlhSKjUqL6TM5phSULhcQLkubVzUWxcIASmMnXa7nQes8vTVEAZ7vV4eCMNGR81mM/zxIQ+K8fMxRMZxtNp0zNImPW/9or3C2y2w/Hshq4zDCIizbuO612Kaer4WsKhQl9dk5r9q4pE54XfQaDgK46hfyar7u53OY3fuvuPlOzZv/tOHf/rTs7PB7+1uiNcjQIDAWxEQCN+KnucSILCuAuVqYbj5uv/+++d/8eijn3jx4MG7Nm5c/N0LF5b+4MKFCxtr9dqkUavnm5qEG7xQOYw3+cVOi8uz60Llqrj5z2/+QhlreSlXPOJgXdvjxa8fgeKmP680h2DYaDTysRHGS3gLf3AIwTB8LgTCUNUMH4dQWNqoJX/87KYvq1Uor5/Wu5JCYLrGtQj2+e+Q8k6hYZOfsJY17F1UmiY8BQz93+31KvVa/alms/m9/qB3bPGmm544cODAb4s/GsRK8HTaM30CBAhcbwIC4fXWI66HAIFc4DLHDuS/t7761a/u6na7f280GHz0yNFX7znxxvH7Br1evdVqZfVGLa6/iofb51XA4mY/7lYapfOzwUpf1wMJCYQxEUJhWCtYTEOeVgtDKIyVxNnjBIoxGsfZVCw8Jz6vCASXBMaEaK/7pobJtvn0zEklHBIfTrrJf7fEtbLx3MD4B6a4c+54NAl9PBlPKq9sWtz4Z1u2bXvu4MEXHv3iF7/41IMPPhiOjbhkKnEMhtc9iAskQCBZAYEw2a7XcALvDoFSlfCSDWnC5x9//PH6o48+uvCTn/xkbsumLZ+qVCr/6qknn/r4Gyde3xL+zD/XbudBcLR8Vlt4fr7DZdjFMrwfAkCoDoYKQJ4IvSUhUF4zWoyBvN2hEhgqheW3WEmMQSF+rbzGMQ6dWEEMgXC2cmiHz+tvaBVr9cKOtvmGRcVur/kRIOGDokIcfofk8wlCJXA0HHYWNy2+dvttt//5qVNn/qTWrh2+7777OuH8wNL5lflwiS0unZ85Pcbl+tNwRQQIpCwgEKbc+9pO4DoWiIeAr1ApXPGMroceeqh2+PDh9ve///3aZ37nd/7lCy8e/DdPPfnkhnPnz2fhYO+5ubl8LVC4+Sv+Yh93tyzvZHkdi7i0t0sghrwQ/kIIjGsGw+uHNYUhJJZu5qdVwPi82XAXwl8+dbDbnQbB8rrE2TD5drXD67w1gfC7oKgK59M5iwpgHgzr9Xq+k2uYInyh0wlnV4727t373O69e/7tY4899uef/vSnB+HYiCLs1bMsy8/JLP3BYMUdld/aFXs2AQIE1kdAIFwfV69KgMBbFChVBuuVSiWcLxArfOVNFfMKX/GtwudDYTA/iyC+PfDAA//oLx999E9eeP6F9vmzZ6sLCwutcF5co9EIFYB8alfYaXI4HKoSvsU+e7c8PYS1sFlMXDcYrjscJxE2jAmhIHwthsK4HrA4FzEPj+Ex8b/wWuFzq00VtanM9T0q4gyCoj/D74HJcDjsdTqdfrPdHt+x+87/etttt/3xQw89lJ+VGlpT3gU0/uGqCP3Te6qZY3XC77BQHbzkd9P1LePqCBBISUAgTKm3tZXAu0hg5piKVat4s9u1r/a8Bx54IDt57Njdz75w8N+9/PLhj164sNSoVWsLlSzbVK/VQjDMg6UjKN5Fg+QaLzVUBcN/sb9Dn4dAGP6LawpDKIxTQePasRD64i6jxWZF0/WGMSiudEnG1DV21Do9rdQfy8eCVCqd8Xh0ttfrdZuN5pkdO3b+t91bt/yPsDtoDHpxSuns/4vzJ8P5N+GPUcs7EpXWQM8GxtljJ9apiV6WAAECVyUgEF4VlwcTIPBuF3j11VfnDx06tPfnP//5rT/93z/90NEjR/5+rV794GgwXBwMBuGk8lZx1mFcdxiPsijuHZfPB48hobSjZDwUfLoVfXFGXx4043l9ZT9BYf1HU/n8vbhBzGwFMJ49GHcYDVcVKoRxTWH8fKwGhlAYAmDp5n8aDNe/Rcl8h+l5jOX1eMXP0vJuwZMQ5sLqvuXCXXxcMaU3n/IZ1v9FsXg+YFathr/+XJxk2YXxePxqt9f/v3t23/HIZz/zmZfuvvfew4cPHz53//33T8NdMuIaSoBAsgICYbJdr+EE0hQon28YBP56//6dj/zil//g8Scev/PXv/71lna7+bF6tfbpi51Oq9ftVkZhF8pqNavVarEKEI4Cz3ckLB0/EI+5qOZnWxRvpTByye/aosoQb2LT7Ih3uNVx3V+YJhr+i5vJlCuD5bMIw/vlx5aDSHhOPLx+9jnvcLNumG9X/NyEmQAxXMfjGmLVPj8ioqi45d2Rbw1ayX8U8xkE4ZPh7MAQAuOUghDci2rupN5oZO1W+/jZ8+d/Vq9XX7j7fXe9cc+HP/T4N7/5zV/MQIanC4Q3zOjSEAIEriQgEF5JyNcJELhhBWbDYZhWevPNN9/76yee+IdPPPHr+aNHj062bF68q1Gv//7FTuemixcv5osUQ5gIN52xSpjfPYYdKpanjeX3pfG1SxuQ5De75d0pVQjf2aEV+itU/cK5g/HMwbARTJgKutIuoMX60rAh0fRIivAaIQyGUFiuEr6zLblxv1vxR5RL/qhSbm2cxjsejYrjYmqhShiPl8kD4WAwyM+TaDaaw2ar+fTShaX/0+v1zuzYcXPlQx+85+iHP/axH339618/UZpu/qY/2Ny4wlpGgACBNwsIhEYFAQJJCZQPuw8Nj2uCVnv/63/09TsPPHfg7xx64YVNS0ud1uKmjXsajcY/O3P2zM7RcBgqgiEs5NNEi40pJsXUtLxKEc8kK00tnW5vX9yQljeicGbdOo7GuGFMCIThLQS6TqeTV5DKU4BLQT8PiuHjUC0MzysfLRHDfTF21vHKb7yXXumPIeWAVqqux12Bc+bwwxM2gZpMwo/ZOOwanJ8JGL4Y+mduYf6pwWDwP5eWlo7Mzc0Nbt+166UPf/zjj2/dunUpTgMt1gvHoybytX/lIyNUB2+88aZFBAhcXkAgNEIIEEhKYPYYi9j4UrVwOl1stoK4f//+2ve/+/3Fg8ee+9Dc/Pz7xpNs19nTp7eeOn1q7/nz5z/V6XS2h5vWeq02KU9LLIJhHjxi+CgqUtNpceVOsDPl+gzJEOzKx0oE51AhDBW/cqiLlcGw1jC8hceE/grVxfJuouVQ45zBK/fZlcZ1UbWdrtGN6/9KO72GXUAr/XAo/Hg8bLdaTy9sWHhicePiawsbF06O+sNXe+Ph83v27Hn2e9/73vnyrqAzfwgq/4xPN4NZ7XfDlVvmEQQIEHh3CwiE7+7+c/UECFylQBHy3nSExWq7BIaXL98o/upXk8YnPlEZ7t+/v/Wb3/ymeejQofpvf/nbdmO+smPv++760tkzp3/v0KFD21577bXtnYsXd45Go7yiEQ67DhWMOOUt3OSWNzERCK+yI6/h4XHKaDxuIvRBefpnDHXlSmJ8THhcDDTlTWau4TL4n7EFAAAcNklEQVSSfcrlAmGslgf7OJ03TMsN1b+wjjerVnutVvPYtq3bX73t9tsP1Wv1Pzvw5IFf7ty58/w999zT/8hHPjL63Oc+1//ABz4Q0n0e+C4X8GJFMFYDV9qdONmO0nACBJITEAiT63INJpC2wGzVr5gyWp42FqtFy1vSh/1jSm/lKabx0/E1Hn744frx48ebP/zhDyeLi4utj97zoU+f7yz9x4MvHnz/wYMHw9eybrebTykNAXH2EPTi+02/W2l/mrQ77Rpbv9K0xNkjJ8JLx1A4e+REDO/xuInwuBhYymtBr/HykntauYo6W1ENU3GLzXrCVNDw81Hdvn378Pbbbjt72x13/MV4UPn3Tz7/5Evdbnd07733ju+7777BV77ylXyr19J63fLaw1r53L9yhbB8VE2xM+n0/NLydNLkOkiDCRBIVkAgTLbrNZwAgXdKoBwqv/3tby8888wz/+L555//10ePHt1+6sTJyqDfz6pZVm00Go1ardao1+v5xjVhn5qi2nHJZjSlSku+OWM8BiMGyskkbJC4fG+cZbX8uXH3xvLOqKUpddMt/uPXSzs15tdRTHu9ZIprvKm/3K6p5WMfrsX7chvvxGMgylWlON0zBL94eHz4XJzqGa4hHkofq7RxnWA5gMfXCUElbCYUnh8D4rW0Yx2fE/tmWnGe6evy8Q3xMqbBKY6B0i6f+bvx6IblMRSqbaP8+JSwjG+5ALe8QVI8jzGMlzAOw+eK9+PYzY+DKD6frwFcXoc5HA4G/f5oMhnX6/XJ4pbFwa233vKz9773/X+8a9euF0rr/aY7iK6joZcmQIBA0gICYdLdr/EECLwTApfZyCa/2f3WH32r/ezZZz965JXD//z111//3bPnzs33Op1WJcvqWWVSr9Zq7WpWncs/Xk5f46w4dy3LsnCjHk+7iLmtEkJheGgIhGHnxZlNOuJNdv5vwEwlMr+Rn3nBPBRUKpV8E50iJOTfdLaCGr82GxLLxzNMU8nfBo9Vu+FygbAIGdPrD4EtTMsNYbB0fME0EIfwEqpQ4Xlxk5g4PXGl6Yzhc/FYilKb3/YhU66WrVQVLv8BIAa4ot/yviouKB59kgewYq3qtH+L18jDY3m32/z4huWjHqZ9Hl4vbJJUrHnNN0wKpzqEcVephPEWPiieV82TYUiMuWuxIU8+MCqVSm80Gl0Yj0aDSpYNw/+bzdZg46aNJ7Zv3/GzO27f9YM73/veZ/bt29cp2jCdyr1SZf5th/eCBAgQILD8bzoHAgQIEFh/gVIozANcETDiefXTis2LL764+MqhV3Ydef3IhqeffvqmQ4cO3fTSwYPvOXP67N2j8XhvNavsGI5GC9Usa4yGw+ZwNApbLjYmlUq9KO1MwrmJ8YY67pgZA0383sXXZ6tHl6smhYCQh4fitabnMJYP/y6CRwwisZ0r/ltzNcdurFZpDO2L1btQ+Suv01ypV8PrxPWAoQobdxwt+UwrX3Eq6fqPjtW/Q5zeGHerLfqvvDNtORROK8kxMMYAWP4OhXse8GOYLO4HwlEO051xw/eK1dfRaJQHzTxAh/eX64RhPvVoklWG1azaq9aq43GlEnbgOTPo949mtdrT27duf/r23be/svf2vafuufue0zffcfPxHTt2nPnkJz85KE/1LP18TKd6rjQV9P9nX/jeBAgQuFEFBMIbtWe1iwCB60qgXPEor1ssbtyn0+Jmb4LjZjePPPJI+8LpC3sOHz18z+FDB28++NLBjW+cPDl38vjxuQsXO9t3bNv+4Uaz8f5ut9vu93q1fr9fDRty5FWe0ai4f89v4ItzvLP8Zr9cYYqhqBwWQ3WxFAzyqtFMtTG+xuyayxge4yar0/5YqQq2WmfNhsbyx+FaQqAr1pzllcFyAI6bv4TgVzjHQ87zUBjPHwzVwvKxE+F5YVpj+Hq5CvlWp79ebkBerkpYtDn6TgN56fWmobC4xtx+hSpb+RJCIMzvAeJjw3PzaaDLHZQH/vwk+Go196nXalm90Ri3Wq1BrV472bl48clzZ86+2J6fP3fLzbdc3HzT5ou7d+8+e+eePS/u2bPnNwcOHDixb9++6R87Vjr3r7Qmd7oRzKxTKRRfVz/TLoYAAQI3ioBAeKP0pHYQIHBdC6w0bXSlC17LVLnyDonhfv3HP/5x+/ixY586cvToR48ceXXDa6+/Wn/jjRPZqVMnKktLS5V+f1jZvGXz9i2Lix+pVCp393q9LYPBIOv1emE91yVTTuu15TWHoeoXg1S4ziIwzU4ljWsYy4FrOoUxTj19UyJcQ09dKXyVp3jGXUHD9cbA2Ov18qAYHhdC48wxIHnYC8dJxGNAyoEwBqM1XOYlD1lL0J3dTGWN3+NNldzCJ870jFNB8/BeDvnxmvKgV0wdLt4PqW+6zi+cpRmMms1mp1qtHur2+39z5vSpl7IsG1Sr9fy4jm033VTZun3reOctt/RuueWWY7t27fpVq9V6/mtf+9rgkUceqX/+858fFsH7TfcW5VA3M8Zj5XF2+vH0aIg1GnkYAQIECFyjgEB4jXCeRoAAgbUKlG6Apze/xY3z9Ay08mutFh5np9iF58xWT1aoMGYPPPBA1mq1Fo8cOfLeY8eO7T5+/PjGc2fOZGfPnMm63fwMvmqr3Wg3Gq1NmxYW3p9Vqx/p9Xt7e/3+/HAwyIajUTYejUKpMA+PxSYsec6L1aMYRIrAM93oZLq7TWmJQjmkrMVwpfWHMaTGQDc3Nzfd9KW87i9+ryLsTHcJLe1queKmO4XtJVMwrzHMXbGJV3rdFaqH04AYpvGGtsSqbvi4qCqHjgolwEl1eWrspNVqnW7U60+PR+Mnu53Oyxd7vbOjYb9frdWyWq0x2rhxY2XTpk297Vu3HLt1+/bnb33Pe17dt29fvpNnXsm7//5qZd++fOjOBrzVKn3x8+WdPctHPUSc8u695dea/V5XxPQAAgQIELhqAYHwqsk8gQABAlcvsMp6qdm1YNMXLp+LVoTHS6aVlm+0Zx97uatbIVTmIfXBBx+sHzt2rPX8gQObT1y4sKPT6Wybm5vbvGF+w2KlWtkwHg5bo8Gg3R8Mmt1Ob37Q77Z7vcF8v9/f0h8MtvQH/W3j4XDLaDzePBqNmuWz+uI6tBji4sfljV9KaxPzyy+HwPLZjbNVuPBxCHuhghWf1+l0ptM9Y6UxvF7ccCZUEuNawlhJXC10xmuMVcPLhbe1fG02DM9+XGzkMl3HGNoULeN00Fqt1q3Xaser1erxRrP1er1eO9NqNpYazWan2Wj1Wu1mv1FvdhuNRjerZd1ev7909vz5s5PB5Mzcxrnj27ZtO3nnnXee37BhQy8EvvAHg7ir5+wfJmbG0iXVvPIU0JWOY1ltHK4QEuPU1VWPern6nzjPIECAAIG1CgiEa5XyOAIECCQkEILj/v37a7fddlvtmWeeqXU6ner58+ez4889Vz187lz1wmuvVY93u9WlN96on+716ufOnWu0q+3m3fe8Z+v2W2+9s91s7h6MRrf2er2buhc7i91uJ6x1bHcuXGx2+93GsD+o93q95nB5Y5z2YDCYG4/HrfF43IghKExxrFez/JiIWi1fKzgJ1b+QjEO4CwEsfBzWDi4sLEzXAYaKWZgOOhssw3PKZz/G8wVXOlIiTjctv0YRzC/ZlTU+LkyxDRuvlHbwDOs3Q4FueTfWsDNnFk4XyXf0zHdtrdVqg1qt1qvX651GvZEHuGa72W83WsO5hbne3NzcxXZr7uLcwtzZRrN5slarHeksLR069PLLhw8/d/hMfaE+bLVa/a2t1nBu+/bRznZ7vGHXrvEtt9wy2bFjx/iOO+4YdzqdyQcrldEHvvzlYazMJTSMNZUAAQIE1iAgEK4ByUMIECBA4PICcfObECQffvjh6unTp6u9Xq966tSp7OzZs9mFCxeyTqeTdbvd7Nlnn80rQSFAbd68OTtx4kT+/pe+9KUtu2/ffXe9Vv1YfzB4/2DQ29HrdbcNR5PFTqezZWlpaWFpaalRHCCfnTlzplY+SiKuAwxVv3PnzlVDMCxXKvMNdarVStiFNbwfgmAIlOFxsbqXB7wsm4SQGSqP+a6axVrE8KxGs7l8rMVyUpyEqarh4/Aa8/Pzo0ajManX66N2uz2ca8/15ufnLjTnWkubNi4eb9QbR+r1+rOVauXZ8+fPP/83f/VXr/zFL37R27lzZ+4R1vGF/991111Zu90Orz1ZWFiYLC4uTk6ePDn57Gc/G74++vKXvxx2A41TQ8PmMN4IECBAgMA1CwiE10zniQQIECCwksBK6xiX81M41Hztb2s9dmCVsxCv6nuVr2ql14tfv1Ib1nLNITzHtXHF++Hl42Ywl6zPW+G6LlmHunZNjyRAgAABAisLCIRGBgECBAi8bQIrrX1cKQyuELriDpmrBse4u2rxetdcGbtc4LuW4DqLt9r6zxj+rjR1s9zO1TZVWUvwfNs61QsRIECAwA0tIBDe0N2rcQQIEHjnBFYKKWs5RmO1QFV+7kq7qV6uWvd2VPmuVW52g5U1bKIyrRjG71kOlaWAuGr18Fqv1fMIECBAgIBAaAwQIECAwFsWuFx4u9KLXy40rhCMrnrq6Urf/1qC6lraMRv+wnNWC8pXmn4an3u1YfhK1+nrBAgQIECgLCAQGg8ECBAgsG4CazkS43KPWcvz1+3ir/GF387pnGudgnuNl+ppBAgQIEBgeaM0bwQIECBAgAABAgQIECCQnoBAmF6fazEBAgQIECBAgAABAgRyAYHQQCBAgAABAgQIECBAgECiAgJhoh2v2QQIECBAgAABAgQIEBAIjQECBAgQIECAAAECBAgkKiAQJtrxmk2AAAECBAgQIECAAAGB0BggQIAAAQIECBAgQIBAogICYaIdr9kECBAgQIAAAQIECBAQCI0BAgQIECBAgAABAgQIJCogECba8ZpNgAABAgQIECBAgAABgdAYIECAAAECBAgQIECAQKICAmGiHa/ZBAgQIECAAAECBAgQEAiNAQIECBAgQIAAAQIECCQqIBAm2vGaTYAAAQIECBAgQIAAAYHQGCBAgAABAgQIECBAgECiAgJhoh2v2QQIECBAgAABAgQIEBAIjQECBAgQIECAAAECBAgkKiAQJtrxmk2AAAECBAgQIECAAAGB0BggQIAAAQIECBAgQIBAogICYaIdr9kECBAgQIAAAQIECBAQCI0BAgQIECBAgAABAgQIJCogECba8ZpNgAABAgQIECBAgAABgdAYIECAAAECBAgQIECAQKICAmGiHa/ZBAgQIECAAAECBAgQEAiNAQIECBAgQIAAAQIECCQqIBAm2vGaTYAAAQIECBAgQIAAAYHQGCBAgAABAgQIECBAgECiAgJhoh2v2QQIECBAgAABAgQIEBAIjQECBAgQIECAAAECBAgkKiAQJtrxmk2AAAECBAgQIECAAAGB0BggQIAAAQIECBAgQIBAogICYaIdr9kECBAgQIAAAQIECBAQCI0BAgQIECBAgAABAgQIJCogECba8ZpNgAABAgQIECBAgAABgdAYIECAAAECBAgQIECAQKICAmGiHa/ZBAgQIECAAAECBAgQEAiNAQIECBAgQIAAAQIECCQqIBAm2vGaTYAAAQIECBAgQIAAAYHQGCBAgAABAgQIECBAgECiAgJhoh2v2QQIECBAgAABAgQIEBAIjQECBAgQIECAAAECBAgkKiAQJtrxmk2AAAECBAgQIECAAAGB0BggQIAAAQIECBAgQIBAogICYaIdr9kECBAgQIAAAQIECBAQCI0BAgQIECBAgAABAgQIJCogECba8ZpNgAABAgQIECBAgAABgdAYIECAAAECBAgQIECAQKICAmGiHa/ZBAgQIECAAAECBAgQEAiNAQIECBAgQIAAAQIECCQqIBAm2vGaTYAAAQIECBAgQIAAAYHQGCBAgAABAgQIECBAgECiAgJhoh2v2QQIECBAgAABAgQIEBAIjQECBAgQIECAAAECBAgkKiAQJtrxmk2AAAECBAgQIECAAAGB0BggQIAAAQIECBAgQIBAogICYaIdr9kECBAgQIAAAQIECBAQCI0BAgQIECBAgAABAgQIJCogECba8ZpNgAABAgQIECBAgAABgdAYIECAAAECBAgQIECAQKICAmGiHa/ZBAgQIECAAAECBAgQEAiNAQIECBAgQIAAAQIECCQqIBAm2vGaTYAAAQIECBAgQIAAAYHQGCBAgAABAgQIECBAgECiAgJhoh2v2QQIECBAgAABAgQIEBAIjQECBAgQIECAAAECBAgkKiAQJtrxmk2AAAECBAgQIECAAAGB0BggQIAAAQIECBAgQIBAogICYaIdr9kECBAgQIAAAQIECBAQCI0BAgQIECBAgAABAgQIJCogECba8ZpNgAABAgQIECBAgAABgdAYIECAAAECBAgQIECAQKICAmGiHa/ZBAgQIECAAAECBAgQEAiNAQIECBAgQIAAAQIECCQqIBAm2vGaTYAAAQIECBAgQIAAAYHQGCBAgAABAgQIECBAgECiAgJhoh2v2QQIECBAgAABAgQIEBAIjQECBAgQIECAAAECBAgkKiAQJtrxmk2AAAECBAgQIECAAAGB0BggQIAAAQIECBAgQIBAogICYaIdr9kECBAgQIAAAQIECBAQCI0BAgQIECBAgAABAgQIJCogECba8ZpNgAABAgQIECBAgAABgdAYIECAAAECBAgQIECAQKICAmGiHa/ZBAgQIECAAAECBAgQEAiNAQIECBAgQIAAAQIECCQqIBAm2vGaTYAAAQIECBAgQIAAAYHQGCBAgAABAgQIECBAgECiAgJhoh2v2QQIECBAgAABAgQIEBAIjQECBAgQIECAAAECBAgkKiAQJtrxmk2AAAECBAgQIECAAAGB0BggQIAAAQIECBAgQIBAogICYaIdr9kECBAgQIAAAQIECBAQCI0BAgQIECBAgAABAgQIJCogECba8ZpNgAABAgQIECBAgAABgdAYIECAAAECBAgQIECAQKICAmGiHa/ZBAgQIECAAAECBAgQEAiNAQIECBAgQIAAAQIECCQqIBAm2vGaTYAAAQIECBAgQIAAAYHQGCBAgAABAgQIECBAgECiAgJhoh2v2QQIECBAgAABAgQIEBAIjQECBAgQIECAAAECBAgkKiAQJtrxmk2AAAECBAgQIECAAAGB0BggQIAAAQIECBAgQIBAogICYaIdr9kECBAgQIAAAQIECBAQCI0BAgQIECBAgAABAgQIJCogECba8ZpNgAABAgQIECBAgAABgdAYIECAAAECBAgQIECAQKICAmGiHa/ZBAgQIECAAAECBAgQEAiNAQIECBAgQIAAAQIECCQqIBAm2vGaTYAAAQIECBAgQIAAAYHQGCBAgAABAgQIECBAgECiAgJhoh2v2QQIECBAgAABAgQIEBAIjQECBAgQIECAAAECBAgkKiAQJtrxmk2AAAECBAgQIECAAAGB0BggQIAAAQIECBAgQIBAogICYaIdr9kECBAgQIAAAQIECBAQCI0BAgQIECBAgAABAgQIJCogECba8ZpNgAABAgQIECBAgAABgdAYIECAAAECBAgQIECAQKICAmGiHa/ZBAgQIECAAAECBAgQEAiNAQIECBAgQIAAAQIECCQqIBAm2vGaTYAAAQIECBAgQIAAAYHQGCBAgAABAgQIECBAgECiAgJhoh2v2QQIECBAgAABAgQIEBAIjQECBAgQIECAAAECBAgkKiAQJtrxmk2AAAECBAgQIECAAAGB0BggQIAAAQIECBAgQIBAogICYaIdr9kECBAgQIAAAQIECBAQCI0BAgQIECBAgAABAgQIJCogECba8ZpNgAABAgQIECBAgAABgdAYIECAAAECBAgQIECAQKICAmGiHa/ZBAgQIECAAAECBAgQEAiNAQIECBAgQIAAAQIECCQqIBAm2vGaTYAAAQIECBAgQIAAAYHQGCBAgAABAgQIECBAgECiAgJhoh2v2QQIECBAgAABAgQIEBAIjQECBAgQIECAAAECBAgkKiAQJtrxmk2AAAECBAgQIECAAAGB0BggQIAAAQIECBAgQIBAogICYaIdr9kECBAgQIAAAQIECBAQCI0BAgQIECBAgAABAgQIJCogECba8ZpNgAABAgQIECBAgAABgdAYIECAAAECBAgQIECAQKICAmGiHa/ZBAgQIECAAAECBAgQEAiNAQIECBAgQIAAAQIECCQqIBAm2vGaTYAAAQIECBAgQIAAAYHQGCBAgAABAgQIECBAgECiAgJhoh2v2QQIECBAgAABAgQIEBAIjQECBAgQIECAAAECBAgkKiAQJtrxmk2AAAECBAgQIECAAAGB0BggQIAAAQIECBAgQIBAogICYaIdr9kECBAgQIAAAQIECBAQCI0BAgQIECBAgAABAgQIJCogECba8ZpNgAABAgQIECBAgAABgdAYIECAAAECBAgQIECAQKICAmGiHa/ZBAgQIECAAAECBAgQEAiNAQIECBAgQIAAAQIECCQqIBAm2vGaTYAAAQIECBAgQIAAAYHQGCBAgAABAgQIECBAgECiAgJhoh2v2QQIECBAgAABAgQIEBAIjQECBAgQIECAAAECBAgkKiAQJtrxmk2AAAECBAgQIECAAAGB0BggQIAAAQIECBAgQIBAogICYaIdr9kECBAgQIAAAQIECBAQCI0BAgQIECBAgAABAgQIJCogECba8ZpNgAABAgQIECBAgAABgdAYIECAAAECBAgQIECAQKICAmGiHa/ZBAgQIECAAAECBAgQEAiNAQIECBAgQIAAAQIECCQqIBAm2vGaTYAAAQIECBAgQIAAAYHQGCBAgAABAgQIECBAgECiAgJhoh2v2QQIECBAgAABAgQIEBAIjQECBAgQIECAAAECBAgkKiAQJtrxmk2AAAECBAgQIECAAAGB0BggQIAAAQIECBAgQIBAogICYaIdr9kECBAgQIAAAQIECBAQCI0BAgQIECBAgAABAgQIJCogECba8ZpNgAABAgQIECBAgAABgdAYIECAAAECBAgQIECAQKICAmGiHa/ZBAgQIECAAAECBAgQEAiNAQIECBAgQIAAAQIECCQqIBAm2vGaTYAAAQIECBAgQIAAAYHQGCBAgAABAgQIECBAgECiAgJhoh2v2QQIECBAgAABAgQIEBAIjQECBAgQIECAAAECBAgkKiAQJtrxmk2AAAECBAgQIECAAAGB0BggQIAAAQIECBAgQIBAogICYaIdr9kECBAgQIAAAQIECBAQCI0BAgQIECBAgAABAgQIJCogECba8ZpNgAABAgQIECBAgAABgdAYIECAAAECBAgQIECAQKICAmGiHa/ZBAgQIECAAAECBAgQEAiNAQIECBAgQIAAAQIECCQqIBAm2vGaTYAAAQIECBAgQIAAAYHQGCBAgAABAgQIECBAgECiAgJhoh2v2QQIECBAgAABAgQIEBAIjQECBAgQIECAAAECBAgkKiAQJtrxmk2AAAECBAgQIECAAAGB0BggQIAAAQIECBAgQIBAogICYaIdr9kECBAgQIAAAQIECBAQCI0BAgQIECBAgAABAgQIJCogECba8ZpNgAABAgQIECBAgACB/wcz5zo+E6jrSwAAAABJRU5ErkJggg==;" parent="1" vertex="1">
          <mxGeometry x="344" y="510" width="140" height="140" as="geometry" />
        </mxCell>
        <mxCell id="wqn46flcgay6vvXDy6C1-31" value="&lt;h4&gt;Nº DO ENDEREÇO&lt;/h4&gt;" style="shape=step;perimeter=stepPerimeter;whiteSpace=wrap;html=1;fixedSize=1;fillColor=#808080;strokeColor=#000000;shadow=1;fontFamily=Lucida Console;" parent="1" vertex="1">
          <mxGeometry x="252" y="410" width="100" height="30" as="geometry" />
        </mxCell>
        <mxCell id="wqn46flcgay6vvXDy6C1-33" value="" style="rounded=1;whiteSpace=wrap;html=1;shadow=1;" parent="1" vertex="1">
          <mxGeometry x="372" y="350" width="190" height="30" as="geometry" />
        </mxCell>
        <mxCell id="wqn46flcgay6vvXDy6C1-34" value="" style="rounded=1;whiteSpace=wrap;html=1;shadow=1;" parent="1" vertex="1">
          <mxGeometry x="372" y="410" width="190" height="30" as="geometry" />
        </mxCell>
        <mxCell id="wqn46flcgay6vvXDy6C1-36" value="&lt;h4&gt;NOME DO USUÁRIO&lt;/h4&gt;" style="shape=step;perimeter=stepPerimeter;whiteSpace=wrap;html=1;fixedSize=1;fillColor=#808080;strokeColor=#000000;shadow=1;fontFamily=Lucida Console;" parent="1" vertex="1">
          <mxGeometry x="252" y="470" width="100" height="30" as="geometry" />
        </mxCell>
        <mxCell id="wqn46flcgay6vvXDy6C1-37" value="" style="rounded=1;whiteSpace=wrap;html=1;shadow=1;" parent="1" vertex="1">
          <mxGeometry x="372" y="470" width="190" height="30" as="geometry" />
        </mxCell>
        <mxCell id="2dVyMAP3Nzwn1a5JVERK-2" value="" style="shape=mxgraph.signs.transportation.car_4;html=1;pointerEvents=1;fillColor=#000000;strokeColor=none;verticalLabelPosition=bottom;verticalAlign=top;align=center;sketch=0;" parent="1" vertex="1">
          <mxGeometry x="287" y="80" width="254" height="170" as="geometry" />
        </mxCell>
        <mxCell id="2dVyMAP3Nzwn1a5JVERK-1" value="&lt;h1&gt;ENTREGA DO PEDIDO&lt;/h1&gt;" style="rounded=1;whiteSpace=wrap;html=1;fillColor=#4D4D4D;fontFamily=Lucida Console;strokeColor=#4D4D4D;" parent="1" vertex="1">
          <mxGeometry x="244" y="130" width="340" height="60" as="geometry" />
        </mxCell>
      </root>
    </mxGraphModel>
  </diagram>
</mxfile>
